<svg width="17" height="16" viewBox="0 0 17 16" fill="none" xmlns="http://www.w3.org/2000/svg">
<path fill-rule="evenodd" clip-rule="evenodd" d="M15.8334 8.00521C15.8334 12.048 12.5429 15.3385 8.50008 15.3385C4.45729 15.3385 1.16675 12.048 1.16675 8.00521C1.16675 3.96241 4.45729 0.671875 8.50008 0.671875C12.5429 0.671875 15.8334 3.96241 15.8334 8.00521ZM14.4141 8.00521C14.4141 4.74306 11.7622 2.09123 8.50008 2.09123C5.23793 2.09123 2.5861 4.74306 2.5861 8.00521C2.5861 11.2674 5.23793 13.9192 8.50008 13.9192C11.7622 13.9192 14.4141 11.2674 14.4141 8.00521ZM7.79035 9.89801C7.29357 9.89801 6.82992 9.7064 6.47981 9.35629H6.48454L5.6353 8.50704C5.50046 8.37221 5.42712 8.19479 5.42712 8.00554C5.42712 7.81629 5.49809 7.6436 5.6353 7.50403C5.7725 7.36446 5.95465 7.29586 6.1368 7.29586C6.31895 7.29586 6.5011 7.36683 6.63831 7.50403L7.48755 8.35328C7.65315 8.51887 7.93228 8.51887 8.09788 8.35328L10.3665 6.08468C10.6433 5.80791 11.0927 5.80791 11.3695 6.08468C11.5043 6.21952 11.5777 6.39694 11.5777 6.58618C11.5777 6.77543 11.5043 6.95285 11.3695 7.08769L9.10089 9.35629C8.75078 9.7064 8.28712 9.89801 7.79035 9.89801Z" fill="#9DA4AE"/>
</svg>
