<svg width="17" height="16" viewBox="0 0 17 16" fill="none" xmlns="http://www.w3.org/2000/svg">
<path fill-rule="evenodd" clip-rule="evenodd" d="M13.8754 10.3676C13.8754 10.0131 14.1661 9.72248 14.5206 9.72248L14.5215 9.72506C14.8759 9.72506 15.1666 10.0157 15.1666 10.3702V10.3702C15.1666 11.4412 15.1666 11.9762 14.9944 12.4819C14.6743 13.4236 13.9217 14.1787 12.9776 14.4987C12.4744 14.6709 11.9368 14.6709 10.8658 14.6709H6.60784C5.06135 14.6709 4.28519 14.6709 3.59472 14.3182C2.98403 14.0065 2.49768 13.5185 2.18604 12.9078C1.83325 12.2173 1.83325 11.4411 1.83325 9.89468V5.6367C1.83325 4.5657 1.83325 4.03065 2.00545 3.52496C2.32549 2.58333 3.07813 1.82818 4.02228 1.50814C4.52542 1.33594 5.06302 1.33594 6.13402 1.33594C6.48849 1.33594 6.77913 1.62658 6.77913 1.98105C6.77913 2.33552 6.48849 2.62617 6.13402 2.62617C5.20667 2.62617 4.74048 2.62617 4.43724 2.72949C3.87192 2.921 3.41832 3.3746 3.22681 3.93992C3.12349 4.24147 3.12349 4.70767 3.12349 5.6367V5.6367V9.89468C3.12349 11.2361 3.12349 11.909 3.33432 12.3222C3.52164 12.6876 3.81397 12.98 4.17936 13.1673C4.5943 13.3781 5.26713 13.3781 6.60693 13.3781H10.8649C11.7939 13.3781 12.2584 13.3781 12.5617 13.2748C13.127 13.0833 13.5806 12.6297 13.7721 12.0644C13.8754 11.7628 13.8754 11.2966 13.8754 10.3676ZM11.4563 1.39987C11.6662 1.39987 11.7998 1.4343 11.9569 1.47547L11.9543 1.47632C13.4538 1.86941 14.6281 3.04376 15.0212 4.54062C15.0792 4.75818 15.1111 4.89509 15.0943 5.18574C15.0842 5.40583 14.9851 5.76702 14.886 5.96022C14.7465 6.23153 14.5894 6.38862 14.3316 6.6465L10.5811 10.397C10.5729 10.405 10.5649 10.413 10.557 10.4209C10.3042 10.6713 10.1492 10.8248 9.95949 10.9413C9.78561 11.0463 9.5966 11.1261 9.39836 11.1731C9.17662 11.2269 8.97502 11.2269 8.57266 11.2269H8.10813C7.22615 11.2269 6.74064 11.2269 6.32736 11.016C5.96196 10.8287 5.66964 10.5364 5.48232 10.171C5.27148 9.75605 5.27148 9.27053 5.27148 8.38853V7.924C5.27148 7.52167 5.27148 7.32174 5.32524 7.0983C5.37227 6.90005 5.45207 6.71105 5.55707 6.53885C5.67719 6.34315 5.83679 6.18355 6.10307 5.91727L6.10308 5.91726L9.85357 2.16678C10.1123 1.90722 10.2685 1.75182 10.5398 1.61238C10.733 1.51411 11.0942 1.41667 11.3118 1.40407C11.3706 1.39987 11.4151 1.39987 11.4563 1.39987ZM13.8108 5.11186V5.07994L13.8116 5.08331C13.8133 5.06651 13.8133 5.04299 13.8091 5.00183C13.804 4.97327 13.7981 4.94387 13.7872 4.90691L13.7788 4.87247C13.5041 3.82584 12.6826 3.0043 11.6352 2.7288L11.6007 2.7204C11.5638 2.70948 11.5318 2.70108 11.5016 2.69436H11.4588C11.4411 2.69436 11.4243 2.69436 11.4025 2.69856H11.379C11.3168 2.70948 11.1874 2.7414 11.1102 2.77584C11.0413 2.81196 10.9858 2.86405 10.7683 3.08328L7.0178 6.83376C6.77419 7.07653 6.69272 7.16053 6.65827 7.21849C6.62383 7.27477 6.59779 7.33693 6.58099 7.40581C6.56419 7.47468 6.56419 7.60992 6.56419 7.92829V8.39281C6.56419 9.1236 6.56839 9.43356 6.63475 9.59232C6.69438 9.71243 6.79351 9.80903 6.93127 9.87791C7.06905 9.93335 7.379 9.94007 8.10979 9.94007H8.57432C8.89267 9.94007 9.02875 9.94007 9.09931 9.92327C9.16651 9.90647 9.23035 9.88043 9.28663 9.84599C9.3446 9.81154 9.4286 9.72923 9.67135 9.48647L13.4218 5.73598C13.6369 5.52094 13.6948 5.46298 13.7402 5.37478L13.7486 5.35294C13.7637 5.3143 13.7998 5.17822 13.8108 5.11186Z" fill="#9DA4AE"/>
</svg>
