<svg width="56" height="56" viewBox="0 0 56 56" fill="none" xmlns="http://www.w3.org/2000/svg">
<path d="M8 0.5H48C52.1421 0.5 55.5 3.85786 55.5 8V48C55.5 52.1421 52.1421 55.5 48 55.5H8C3.85786 55.5 0.5 52.1421 0.5 48V8C0.5 3.85786 3.85786 0.5 8 0.5Z" fill="white"/>
<path d="M8 0.5H48C52.1421 0.5 55.5 3.85786 55.5 8V48C55.5 52.1421 52.1421 55.5 48 55.5H8C3.85786 55.5 0.5 52.1421 0.5 48V8C0.5 3.85786 3.85786 0.5 8 0.5Z" stroke="#F3F4F6"/>
<path d="M27.9897 30.3807L29.0353 29.262L29.1029 29.189L30.1485 28.0703L43.6879 39.0735C44.0689 39.3842 44.1067 39.9517 43.7717 40.3084L41.1103 43.1564C40.7752 43.5158 40.2051 43.5131 39.8728 43.1537L27.9897 30.3807Z" fill="#126E53"/>
<path d="M28.0987 30.806L30.4439 28.2988C30.6952 28.0287 30.6817 27.6072 30.4115 27.3532L29.2821 26.2969L26.183 29.6146L27.48 30.8277C27.6556 30.9925 27.9339 30.9817 28.0987 30.806Z" fill="#59CD98"/>
<path d="M15.8972 28.1978C19.6908 31.8079 25.9917 31.1161 28.8206 26.3198C30.4228 23.6069 30.3067 20.1832 28.5288 17.5838C25.3837 12.9874 19.0531 12.7172 15.5082 16.5732C12.4604 19.8887 12.6333 25.093 15.8972 28.1978Z" fill="#DDF0FF"/>
<g opacity="0.45">
<path d="M16.1766 24.7548C16.9983 24.7273 17.6178 23.3112 17.5604 21.5919C17.5029 19.8725 16.7901 18.5009 15.9684 18.5284C15.1467 18.5559 14.5271 19.972 14.5846 21.6913C14.6421 23.4107 15.3549 24.7823 16.1766 24.7548Z" fill="#F3FFFE"/>
</g>
<path d="M21.4147 15.0097L21.4282 14.8584C21.4093 14.8557 19.526 14.6936 18.0373 15.7257L18.1238 15.85C19.5666 14.8476 21.3958 15.007 21.4147 15.0097Z" fill="#21111D"/>
<path d="M21.7682 15.9863L21.7817 15.835C21.7628 15.8323 19.8796 15.6702 18.3908 16.7023L18.4773 16.8265C19.9201 15.8269 21.7493 15.9836 21.7682 15.9863Z" fill="#21111D"/>
<path d="M27.6743 27.8569C24.5428 31.2022 19.2956 31.3778 15.9479 28.2487C12.6029 25.1197 12.4273 19.8694 15.5561 16.5214C18.685 13.1761 23.9348 13.0005 27.2825 16.1296C30.6275 19.2614 30.8031 24.5117 27.6743 27.8569ZM28.1823 15.1676C24.305 11.5386 18.2202 11.744 14.5942 15.6216C10.9655 19.4992 11.1682 25.5844 15.0482 29.2134C18.9254 32.8397 25.0102 32.637 28.6389 28.7595C32.2649 24.8792 32.0622 18.7939 28.1823 15.1676Z" fill="#29B273"/>
</svg>
