<svg width="56" height="57" viewBox="0 0 56 57" fill="none" xmlns="http://www.w3.org/2000/svg">
<path d="M8 0.777344H48C52.1421 0.777344 55.5 4.13521 55.5 8.27734V48.2773C55.5 52.4195 52.1421 55.7773 48 55.7773H8C3.85786 55.7773 0.5 52.4195 0.5 48.2773V8.27734C0.5 4.13521 3.85786 0.777344 8 0.777344Z" fill="white"/>
<path d="M8 0.777344H48C52.1421 0.777344 55.5 4.13521 55.5 8.27734V48.2773C55.5 52.4195 52.1421 55.7773 48 55.7773H8C3.85786 55.7773 0.5 52.4195 0.5 48.2773V8.27734C0.5 4.13521 3.85786 0.777344 8 0.777344Z" stroke="#F3F4F6"/>
<g clip-path="url(#clip0_21471_218345)">
<path d="M13.8762 35.1178H42.6542L43.5341 20.043H12.9963L13.8762 35.1178Z" fill="#EF9E44"/>
<path d="M27.3724 22.0763C27.3724 23.9655 25.4314 25.4923 23.0505 25.4923L13.2422 25.5829L12.854 18.6602H23.0505C25.4314 18.6602 27.3724 20.187 27.3724 22.0763Z" fill="#EF9E44"/>
<path d="M42.8484 21.6602H13.6822V33.5647H42.8484V21.6602Z" fill="#E8F1F8"/>
<path d="M43.2237 34.2249H15.7526V22.3203L44 22.1133L43.2237 34.2249Z" fill="#E8F1F8"/>
<path d="M42.8872 20.9609H14.2774V32.8655H42.8872V20.9609Z" fill="white"/>
<path d="M16.3907 17.3503L13.2027 28.8203L40.7682 36.482L43.9562 25.012L16.3907 17.3503Z" fill="#D2E3F2"/>
<path d="M42.6672 22.3203H15.3902V34.2249H42.6672V22.3203Z" fill="white"/>
<path d="M43.8318 24.1336L44 21.3516H33.3635C31.1638 21.3516 29.3263 22.555 28.9381 24.1336H12L12.9187 39.2084H42.926L43.5859 28.2873V28.2743L43.8318 24.1336Z" fill="#FFAF57"/>
<path d="M43.9999 21.3516H42.3436C42.3825 21.7656 42.4083 22.1797 42.4083 22.5938C42.4083 31.4057 32.9106 38.5614 21.1871 38.5614C18.211 38.5614 15.3643 38.0956 12.7892 37.2545L12.9057 39.1955H42.9259L43.5858 28.2743V28.2614L43.8317 24.1336L43.9999 21.3516Z" fill="#EF9E44"/>
</g>
<defs>
<clipPath id="clip0_21471_218345">
<rect width="32" height="21.8552" fill="white" transform="translate(12 17.3516)"/>
</clipPath>
</defs>
</svg>
