<svg width="56" height="57" viewBox="0 0 56 57" fill="none" xmlns="http://www.w3.org/2000/svg">
<path d="M8 1.27734H48C52.1421 1.27734 55.5 4.63521 55.5 8.77734V48.7773C55.5 52.9195 52.1421 56.2773 48 56.2773H8C3.85786 56.2773 0.5 52.9195 0.5 48.7773V8.77734C0.5 4.63521 3.85786 1.27734 8 1.27734Z" fill="white"/>
<path d="M8 1.27734H48C52.1421 1.27734 55.5 4.63521 55.5 8.77734V48.7773C55.5 52.9195 52.1421 56.2773 48 56.2773H8C3.85786 56.2773 0.5 52.9195 0.5 48.7773V8.77734C0.5 4.63521 3.85786 1.27734 8 1.27734Z" stroke="#F3F4F6"/>
<g clip-path="url(#clip0_21431_9009)">
<path d="M19.4757 32.7088C18.3209 32.7088 17.3337 32.1314 16.2906 31.5354C15.024 30.7903 13.7016 30.0267 11.9507 30.2688C10.8331 30.4178 9.75279 30.958 8.72834 31.8707C8.5607 32.0197 8.31856 32.001 8.16955 31.8334C8.02054 31.6658 8.03917 31.4236 8.2068 31.2746C9.34301 30.2502 10.5723 29.6541 11.8389 29.4679C13.8692 29.1885 15.3593 30.0639 16.7004 30.8276C17.7435 31.4236 18.6189 31.9452 19.6247 31.8893C21.804 31.7775 23.946 28.8718 25.9763 23.2653C26.0508 23.0604 26.2743 22.9487 26.4792 23.0232C26.6841 23.0977 26.7959 23.3212 26.7214 23.5261C24.5421 29.5796 22.2324 32.5598 19.662 32.7088C19.6061 32.7088 19.5316 32.7088 19.4757 32.7088Z" fill="#331306"/>
<path d="M24.7097 22.7982H36.7237L38.4186 13.8203H26.4047L24.7097 22.7982Z" fill="#59CD98"/>
<path d="M36.7236 22.7969H24.7096V44.7573H36.7236V22.7969Z" fill="#29B273"/>
<path d="M38.4186 13.8204L39.2755 12.7773V35.8926L38.4186 37.2709V13.8204Z" fill="#A9E0C7"/>
<path d="M27.2615 12.7773H39.2755L38.4187 13.8204H26.4047L27.2615 12.7773Z" fill="#29B273"/>
<path d="M36.7238 44.7773L39.2756 43.6598V12.7773L38.4187 13.8204L36.7238 22.7983V44.7773Z" fill="#A9E0C7"/>
<path d="M25.7527 21.6633H35.5873L36.9471 14.4922H27.0937L25.7527 21.6633Z" fill="#331306"/>
<path d="M30.3536 28.2748L28.4165 31.8883C28.3792 31.9628 28.4351 32.0373 28.5096 32.0373H29.6272C29.7017 32.0373 29.7389 32.0932 29.7389 32.1677L29.2733 34.4214C29.2546 34.5332 29.4037 34.5891 29.4595 34.496L31.7692 31.0315C31.8251 30.957 31.7692 30.8638 31.6761 30.8638L30.3163 30.8824C30.2605 30.8824 30.2046 30.8266 30.2046 30.7707L30.5399 28.3493C30.5585 28.2189 30.4095 28.163 30.3536 28.2748Z" fill="white"/>
<path d="M32.5323 17.5479L32.6999 16.5234H30.1295L29.9432 17.5479H32.5323Z" fill="#BAA69E"/>
<path d="M32.2901 18.87L32.4578 17.8828H29.8873L29.7011 18.87H32.2901Z" fill="#A9E0C7"/>
<path d="M29.6451 19.207L29.4589 20.2501H32.0293L32.2156 19.207H29.6451Z" fill="#29B273"/>
<path d="M32.1227 16.206L32.2158 15.7031H30.9306L30.8375 16.206H32.1227Z" fill="#BAA69E"/>
</g>
<defs>
<clipPath id="clip0_21431_9009">
<rect width="32" height="32" fill="white" transform="translate(12 12.7773)"/>
</clipPath>
</defs>
</svg>
