<svg width="56" height="57" viewBox="0 0 56 57" fill="none" xmlns="http://www.w3.org/2000/svg">
<path d="M8 1.27734H48C52.1421 1.27734 55.5 4.63521 55.5 8.77734V48.7773C55.5 52.9195 52.1421 56.2773 48 56.2773H8C3.85786 56.2773 0.5 52.9195 0.5 48.7773V8.77734C0.5 4.63521 3.85786 1.27734 8 1.27734Z" fill="white"/>
<path d="M8 1.27734H48C52.1421 1.27734 55.5 4.63521 55.5 8.77734V48.7773C55.5 52.9195 52.1421 56.2773 48 56.2773H8C3.85786 56.2773 0.5 52.9195 0.5 48.7773V8.77734C0.5 4.63521 3.85786 1.27734 8 1.27734Z" stroke="#F3F4F6"/>
<g clip-path="url(#clip0_21431_26687)">
<path opacity="0.3" d="M44 35.5796L33.7881 31.2969L12 40.4656L22.2119 44.7785L44 35.5796Z" fill="black"/>
<path d="M36.6822 33.9485L35.4832 33.4659L30.9767 32.1992L29.571 32.8024L34.2429 34.5216L36.6822 33.9485Z" fill="#B5AFA7"/>
<path d="M41.1886 36.5117L39.7829 37.0848L39.6589 37.2054L39.7829 37.3562L41.1886 36.7832V36.5117Z" fill="#A39C95"/>
<path d="M35.4832 33.4648L34.0775 34.0379L34.3256 34.4601L35.3178 34.8221L36.6822 33.9474L35.4832 33.4648Z" fill="#E6E1DD"/>
<path d="M36.6821 33.9492L35.2765 34.5524L39.4935 37.0859H39.7829L41.1886 36.5128L36.6821 33.9492Z" fill="#B5AFA7"/>
<path d="M39.7829 37.0835L35.2765 34.5501L34.0775 34.0374L29.571 32.8008V33.0421L39.7829 37.355V37.0835Z" fill="#D8D1C7"/>
<path d="M21.9225 40.1935L20.7235 39.6808L16.2171 38.4141L14.8114 39.0173L19.4832 40.7364L21.9225 40.1935Z" fill="#B5AFA7"/>
<path d="M26.4289 42.7266L25.0233 43.3298L24.8992 43.4202L25.0233 43.571L26.4289 42.998V42.7266Z" fill="#A39C95"/>
<path d="M20.7235 39.6797L19.3178 40.2829L19.5246 40.675L20.5582 41.0369L21.9225 40.1924L20.7235 39.6797Z" fill="#E6E1DD"/>
<path d="M21.9225 40.1953L20.5168 40.7684L24.6925 43.332H25.0232L26.4289 42.7288L21.9225 40.1953Z" fill="#B5AFA7"/>
<path d="M25.0233 43.3285L20.5168 40.7649L19.3178 40.2824L14.8114 39.0156V39.2871L25.0233 43.5698V43.3285Z" fill="#D8D1C7"/>
<path d="M40.6925 19.5634L44 17.0903L33.7881 12.7773L12 21.9461L22.2119 26.259L40.6925 19.5634Z" fill="white"/>
<path d="M22.4186 26.2582H22.2119L12 21.9453V39.1366L22.2119 43.4496L22.4186 26.2582Z" fill="#F4EFE9"/>
<path d="M44 34.251V17.0898L22.2119 26.2586V43.4499L44 34.251Z" fill="#D1D1D1"/>
<path d="M36.186 25.2038V25.445L35.9793 25.7165L23.7002 30.8739L23.4935 30.7834V30.6929L34.863 25.7466L35.8553 25.1434L35.9793 25.1133L36.186 25.2038Z" fill="white"/>
<path d="M35.8553 25.1445V25.2953L35.6072 25.5668L23.4935 30.694V30.5432L23.7002 30.2718L35.8553 25.1445Z" fill="#0A0808"/>
<path d="M36.186 26.2584V26.5299L35.9793 26.8013L23.7002 31.9587L23.4935 31.8683V31.7476L34.863 26.8013L35.8553 26.2283L35.9793 26.168L36.186 26.2584Z" fill="white"/>
<path d="M35.8553 26.2266V26.3774L35.6072 26.6488L23.4935 31.7459V31.5951L23.7002 31.3236L35.8553 26.2266Z" fill="#0A0808"/>
<path d="M36.186 27.3444V27.5857L35.9793 27.8571L23.7002 33.0145L23.4935 32.924V32.8335L34.863 27.8873L35.8553 27.3142L35.9793 27.2539L36.186 27.3444Z" fill="white"/>
<path d="M35.8553 27.3125V27.4633L35.6072 27.7347L23.4935 32.8318V32.681L23.7002 32.4096L35.8553 27.3125Z" fill="#0A0808"/>
<path d="M36.186 28.4303V28.6716L35.9793 28.943L23.7002 34.1004L23.4935 34.01V33.9195L34.863 28.9732L35.8553 28.4002L35.9793 28.3398L36.186 28.4303Z" fill="white"/>
<path d="M35.8553 28.3984V28.5191L35.6072 28.7905L23.4935 33.9178V33.767L23.7002 33.4955L35.8553 28.3984Z" fill="#0A0808"/>
<path d="M36.186 29.4889V29.7604L35.9793 30.0318L23.7002 35.1892L23.4935 35.0987V34.9781L34.863 30.0318L35.8553 29.4588L35.9793 29.3984L36.186 29.4889Z" fill="white"/>
<path d="M35.8553 29.457V29.6078L35.6072 29.8793L23.4935 34.9764V34.8256L23.7002 34.5843L35.8553 29.457Z" fill="#0A0808"/>
<path d="M36.186 21.9772V22.2185L35.9793 22.4899L23.7002 27.6473L23.4935 27.5568V27.4362L34.863 22.5201L35.8553 21.9169L35.9793 21.8867L36.186 21.9772Z" fill="white"/>
<path d="M35.8553 21.918V22.0688L35.6072 22.3402L23.4935 27.4373V27.3166L23.7002 27.0452L35.8553 21.918Z" fill="#0A0808"/>
<path d="M36.186 23.0319V23.3033L35.9793 23.5748L23.7002 28.7322L23.4935 28.6417V28.521L34.863 23.5748L35.8553 23.0017L35.9793 22.9414L36.186 23.0319Z" fill="white"/>
<path d="M35.8553 23V23.1508L35.6072 23.4222L23.4935 28.5193V28.3685L23.7002 28.0971L35.8553 23Z" fill="#0A0808"/>
<path d="M36.186 24.1178V24.3591L35.9793 24.6305L23.7002 29.7879L23.4935 29.6975V29.607L34.863 24.6607L35.8553 24.0877L35.9793 24.0273L36.186 24.1178Z" fill="white"/>
<path d="M35.8553 24.0859V24.2367L35.6072 24.5082L23.4935 29.6053V29.4545L23.7002 29.183L35.8553 24.0859Z" fill="#0A0808"/>
<path d="M36.186 30.5709V30.8424L35.9793 31.0837L23.7002 36.2411L23.4935 36.1808V36.0601L34.863 31.1138L35.8553 30.5408L35.9793 30.4805L36.186 30.5709Z" fill="white"/>
<path d="M35.8553 30.5391V30.6899L35.6072 30.9613L23.4935 36.0584V35.9076L23.7002 35.6361L35.8553 30.5391Z" fill="#0A0808"/>
<path d="M36.186 31.6569V31.8982L35.9793 32.1696L23.7002 37.327L23.4935 37.2365V37.146L34.863 32.1998L35.8553 31.6267L35.9793 31.5664L36.186 31.6569Z" fill="white"/>
<path d="M35.8553 31.625V31.7758L35.6072 32.0171L23.4935 37.1443V36.9935L23.7002 36.7221L35.8553 31.625Z" fill="#0A0808"/>
<path d="M36.186 32.7428V32.9841L35.9793 33.2555L23.7002 38.4129L23.4935 38.3225V38.2018L34.863 33.2857L35.8553 32.6825L35.9793 32.6523L36.186 32.7428Z" fill="white"/>
<path d="M35.8553 32.6836V32.8344L35.6072 33.1058L23.4935 38.2029V38.0823L23.7002 37.8108L35.8553 32.6836Z" fill="#0A0808"/>
<path d="M36.186 33.8014V34.0729L35.9793 34.3141L23.7002 39.5017L23.4935 39.4112V39.2906L34.863 34.3443L35.8553 33.7713L35.9793 33.7109L36.186 33.8014Z" fill="white"/>
<path d="M35.8553 33.7695V33.9203L35.6072 34.1918L23.4935 39.2889V39.1381L23.7002 38.8666L35.8553 33.7695Z" fill="#0A0808"/>
<path d="M36.186 34.8874V35.1286L35.9793 35.4001L23.7002 40.5575L23.4935 40.467V40.3765L34.863 35.4302L35.8553 34.8572L35.9793 34.7969L36.186 34.8874Z" fill="white"/>
<path d="M35.8553 34.8555V35.0063L35.6072 35.2476L23.4935 40.3748V40.224L23.7002 39.9525L35.8553 34.8555Z" fill="#0A0808"/>
<path d="M36.186 35.9733V36.2146L35.9793 36.486L23.7002 41.6434L23.4935 41.5529V41.4625L34.863 36.5162L35.8553 35.913L35.9793 35.8828L36.186 35.9733Z" fill="white"/>
<path d="M35.8553 35.9141V36.0649L35.6072 36.3363L23.4935 41.4635V41.3127L23.7002 41.0413L35.8553 35.9141Z" fill="#0A0808"/>
<path d="M42.7597 33.6193L40.1137 34.7352V34.2526L42.7597 33.1367V33.6193Z" fill="#FA5C52"/>
<path d="M42.7597 32.9544L40.1137 34.0402V33.8592L42.7597 32.7734V32.9544Z" fill="#574943"/>
</g>
<defs>
<clipPath id="clip0_21431_26687">
<rect width="32" height="32" fill="white" transform="translate(12 12.7773)"/>
</clipPath>
</defs>
</svg>
