<svg width="16" height="16" viewBox="0 0 16 16" fill="none" xmlns="http://www.w3.org/2000/svg">
<path d="M8.00006 0.667969C11.6525 0.668003 14.6241 3.64627 14.6241 7.31055C14.6239 11.4478 10.491 15.3339 8.00006 15.334C5.50916 15.334 1.37625 11.4478 1.37604 7.31055C1.37604 3.64861 4.34759 0.667969 8.00006 0.667969ZM8.00006 2.08691C5.1306 2.08691 2.79596 4.42926 2.79596 7.31055C2.79619 10.9156 6.57365 13.915 8.00006 13.915C9.42652 13.915 13.2039 10.9155 13.2042 7.31055C13.2042 4.43164 10.8695 2.08695 8.00006 2.08691ZM8.00006 4.45215C9.56596 4.45218 10.8388 5.72514 10.8389 7.29102C10.8389 8.85702 9.56605 10.1298 8.00006 10.1299C6.43404 10.1299 5.16119 8.85704 5.16119 7.29102C5.16135 5.72512 6.43413 4.45215 8.00006 4.45215ZM8.00006 5.87207C7.21714 5.87207 6.58127 6.50813 6.58112 7.29102C6.58112 8.07403 7.21705 8.71094 8.00006 8.71094C8.78304 8.7109 9.41901 8.07401 9.41901 7.29102C9.41885 6.50816 8.78295 5.8721 8.00006 5.87207Z" fill="#9DA4AE"/>
</svg>
