<svg width="17" height="16" viewBox="0 0 17 16" fill="none" xmlns="http://www.w3.org/2000/svg">
<path fill-rule="evenodd" clip-rule="evenodd" d="M8.48751 0.503906C6.41683 0.503906 4.73456 2.18617 4.73456 4.25686C4.73456 4.87766 4.88962 5.49776 5.17405 6.04077L5.17403 6.04078L5.17537 6.04324C5.36671 6.39403 5.78855 6.52595 6.14349 6.33235C6.49403 6.14114 6.62601 5.71976 6.43299 5.36497C6.24823 5.0183 6.15615 4.64972 6.15615 4.25686C6.15615 2.96386 7.19451 1.92549 8.48751 1.92549C9.78491 1.92549 10.8189 2.91873 10.8189 4.20739C10.8189 5.50039 9.78051 6.53876 8.48751 6.53876C5.62537 6.53876 3.30005 8.86408 3.30005 11.7262V14.0511C3.30005 14.8604 3.94353 15.5039 4.75283 15.5039H12.2469C13.0562 15.5039 13.6997 14.8604 13.6997 14.0511V11.7262C13.6997 10.4221 13.2135 9.19487 12.3201 8.22489L12.3202 8.22479L12.3153 8.21995C12.0287 7.93331 11.5821 7.93357 11.2953 8.1885L11.2916 8.19176L11.2882 8.19522C11.0015 8.48186 11.0018 8.92845 11.2567 9.21525L11.2567 9.21528L11.2593 9.2181C11.8983 9.90445 12.2534 10.8037 12.2534 11.751V14.0759C12.2534 14.0841 12.2518 14.0888 12.2508 14.0913L12.2494 14.0938C12.2484 14.0954 12.2472 14.0969 12.2456 14.0983C12.2401 14.1033 12.2311 14.1071 12.2222 14.1071H4.77756C4.76928 14.1071 4.76458 14.1055 4.76217 14.1044C4.75959 14.1033 4.7573 14.1016 4.75512 14.0993C4.75007 14.0938 4.74637 14.0848 4.74637 14.0759V11.751C4.74637 9.69123 6.42779 8.00981 8.48751 8.00981C10.5582 8.00981 12.2405 6.32754 12.2405 4.25686C12.2405 2.18617 10.5582 0.503906 8.48751 0.503906Z" fill="#1C75BC"/>
</svg>
