<svg width="56" height="56" viewBox="0 0 56 56" fill="none" xmlns="http://www.w3.org/2000/svg">
<path d="M8 0.5H48C52.1421 0.5 55.5 3.85786 55.5 8V48C55.5 52.1421 52.1421 55.5 48 55.5H8C3.85786 55.5 0.5 52.1421 0.5 48V8C0.5 3.85786 3.85786 0.5 8 0.5Z" fill="white"/>
<path d="M8 0.5H48C52.1421 0.5 55.5 3.85786 55.5 8V48C55.5 52.1421 52.1421 55.5 48 55.5H8C3.85786 55.5 0.5 52.1421 0.5 48V8C0.5 3.85786 3.85786 0.5 8 0.5Z" stroke="#F3F4F6"/>
<path d="M27.9161 40.9679C26.0551 40.9679 24.5663 39.4013 24.5663 37.5291V32.2943C24.5663 30.3839 26.0923 28.8555 27.9161 28.8555C29.7771 28.8555 31.266 30.4221 31.266 32.2943V37.4908C31.266 39.4013 29.7399 40.9679 27.9161 40.9679Z" fill="#FFDCB5"/>
<path d="M27.842 42.8054C27.4698 42.8054 27.172 42.4997 27.172 42.1176V40.5511C27.172 40.169 27.4698 39.8633 27.842 39.8633C28.2142 39.8633 28.512 40.169 28.512 40.5511V42.1176C28.512 42.4615 28.2142 42.8054 27.842 42.8054Z" fill="#1E2832"/>
<path d="M27.6187 33.3661C22.2217 33.3661 17.7925 28.8191 17.7925 23.2787C17.7925 17.7384 22.2217 13.1914 27.6187 13.1914C33.0157 13.1914 37.445 17.7384 37.445 23.2787C37.445 28.8191 33.0157 33.3661 27.6187 33.3661Z" fill="#FFDCB5"/>
<path d="M27.1471 24.9601C27.147 24.6765 26.9296 24.4847 26.6882 24.4847C26.4228 24.4847 26.2295 24.7011 26.2294 24.9601V36.6525C26.2294 36.9362 26.4468 37.1279 26.6882 37.1279C26.9068 37.1279 27.1138 36.921 27.1471 36.6405V24.9601ZM27.4944 36.6525C27.4944 36.6587 27.4944 36.6649 27.4937 36.6711C27.45 37.0748 27.1378 37.4758 26.6882 37.4759C26.2597 37.4759 25.8815 37.1329 25.8814 36.6525V24.9601C25.8815 24.5315 26.2093 24.1367 26.6882 24.1367C27.1167 24.1368 27.4943 24.4798 27.4944 24.9601V36.6525Z" fill="#1E2832"/>
<path d="M29.194 24.9601C29.1939 24.6765 28.9765 24.4847 28.7351 24.4847C28.4697 24.4847 28.2763 24.7011 28.2763 24.9601V36.6525C28.2763 36.9362 28.4937 37.1279 28.7351 37.1279C28.9698 37.1279 29.1939 36.9047 29.194 36.6525V24.9601ZM29.5413 36.6525C29.5412 37.0879 29.1703 37.4758 28.7351 37.4759C28.3066 37.4759 27.9284 37.1329 27.9283 36.6525V24.9601C27.9284 24.5315 28.2562 24.1367 28.7351 24.1367C29.1636 24.1368 29.5412 24.4798 29.5413 24.9601V36.6525Z" fill="#1E2832"/>
<path d="M24.5292 35.4688V37.4939C24.5292 39.4043 26.0553 40.9327 27.8791 40.9327C29.7401 40.9327 31.2289 39.3661 31.2289 37.4939V35.4688H24.5292Z" fill="#FF6C35"/>
<path d="M15.0852 28.0164C15.0852 27.831 14.9427 27.6895 14.777 27.6895C14.5982 27.6897 14.4697 27.8069 14.4697 28.0164C14.4698 28.2257 14.5983 28.3423 14.777 28.3425C14.9426 28.3425 15.085 28.2016 15.0852 28.0164ZM15.8841 28.0164C15.8839 28.595 15.4301 29.1413 14.777 29.1413C14.1375 29.1411 13.671 28.6471 13.6708 28.0164C13.6708 27.3855 14.1374 26.8908 14.777 26.8906C15.4303 26.8906 15.8841 27.4376 15.8841 28.0164Z" fill="#1E2832"/>
<path d="M39.9666 33.0831C39.9666 32.4286 39.4525 31.9161 38.8401 31.9161C38.2278 31.9161 37.7136 32.4287 37.7136 33.0831C37.7136 33.7377 38.2278 34.2502 38.8401 34.2502C39.4525 34.2502 39.9666 33.7377 39.9666 33.0831ZM40.7655 33.0831C40.7655 34.159 39.9133 35.0491 38.8401 35.0491C37.7669 35.049 36.9147 34.159 36.9147 33.0831C36.9148 32.0073 37.767 31.1172 38.8401 31.1172C39.9133 31.1172 40.7655 32.0073 40.7655 33.0831Z" fill="#1E2832"/>
<path d="M14.7775 14.1289L15.8569 16.1158L17.7924 17.1857L15.8569 18.2938L14.7775 20.2807L13.6981 18.2938L11.7626 17.1857L13.6981 16.1158L14.7775 14.1289Z" fill="#FF9A74"/>
<path d="M17.7926 31.9922L18.4998 33.3295L19.7653 34.0173L18.4998 34.7433L17.7926 36.0424L17.1227 34.7433L15.8199 34.0173L17.1227 33.3295L17.7926 31.9922Z" fill="#FF9A74"/>
<path d="M38.7013 14.0156L39.3341 15.2001L40.4879 15.8497L39.3341 16.4993L38.7013 17.6837L38.0686 16.4993L36.9147 15.8497L38.0686 15.2001L38.7013 14.0156Z" fill="#FF9A74"/>
<path d="M43.0837 20.2812L43.4931 21.0454L44.2375 21.4657L43.4931 21.8861L43.0837 22.6502L42.6743 21.8861L41.9299 21.4657L42.6743 21.0454L43.0837 20.2812Z" fill="#FF9A74"/>
</svg>
