<svg width="57" height="56" viewBox="0 0 57 56" fill="none" xmlns="http://www.w3.org/2000/svg">
<path d="M8.33337 0.5H48.3334C52.4755 0.5 55.8334 3.85786 55.8334 8V48C55.8334 52.1421 52.4755 55.5 48.3334 55.5H8.33337C4.19124 55.5 0.833374 52.1421 0.833374 48V8C0.833374 3.85786 4.19124 0.5 8.33337 0.5Z" fill="white"/>
<path d="M8.33337 0.5H48.3334C52.4755 0.5 55.8334 3.85786 55.8334 8V48C55.8334 52.1421 52.4755 55.5 48.3334 55.5H8.33337C4.19124 55.5 0.833374 52.1421 0.833374 48V8C0.833374 3.85786 4.19124 0.5 8.33337 0.5Z" stroke="#F3F4F6"/>
<g clip-path="url(#clip0_21431_73478)">
<path d="M18.1868 26.5433C16.9063 24.8432 14.1303 22.6482 12.3334 22.0241L12.3441 21.3785L18.3266 18.043L22.1895 25.6072L18.1868 26.5433Z" fill="#A0E8C6"/>
<path d="M17.6703 24.9519C16.3899 23.2518 14.4316 21.7024 12.3334 21.3796L18.3266 17.3984L22.1787 24.9519H17.6703Z" fill="#59CD98"/>
<path d="M35.6176 42.2911L30.8725 45.6698L13.3984 19.5231L18.1543 16.1445L35.6176 42.2911Z" fill="#A0E8C6"/>
<path d="M26.8675 10.3249L18.0996 16.1836L35.5679 42.3264L44.3359 36.4677L26.8675 10.3249Z" fill="#59CD98"/>
<path d="M26.3318 12.379L42.2349 36.18L36.1126 40.2687L20.2094 16.4678L26.3318 12.379ZM26.4609 11.7227L19.553 16.3387L35.9834 40.9251L42.8913 36.3091L26.4609 11.7227Z" fill="#126E53"/>
<path d="M19.8758 16.4082L21.6189 15.2461C22.1031 16.0531 21.7695 17.1829 20.8442 17.8608L19.8758 16.4082Z" fill="#126E53"/>
<path d="M21.5219 15.589C21.6295 15.8687 21.6295 16.1915 21.5327 16.5251C21.4251 16.8909 21.1991 17.2353 20.8978 17.5043L20.1985 16.4605L21.5219 15.589ZM21.6726 14.9219L19.5529 16.3422L20.7795 18.1821C20.8118 18.1606 20.844 18.1391 20.8763 18.1176C22.0061 17.3644 22.4042 15.9979 21.7694 15.051C21.7479 15.008 21.7156 14.9649 21.6726 14.9219Z" fill="#126E53"/>
<path d="M25.9661 13.9053C25.3959 13.9053 24.9009 13.6901 24.5889 13.3028L26.3965 12.0977L27.3326 13.4964C26.9022 13.7547 26.4288 13.9053 25.9661 13.9053Z" fill="#126E53"/>
<path d="M26.3212 12.422L26.9775 13.4119C26.6547 13.5841 26.2997 13.6701 25.9553 13.6701C25.5572 13.6701 25.2022 13.5518 24.9439 13.3366L26.3212 12.422ZM26.4503 11.7656L24.2553 13.2397C24.266 13.272 24.2876 13.2935 24.3091 13.3258C24.6749 13.8638 25.2882 14.1436 25.9661 14.1436C26.4718 14.1436 26.9991 13.9929 27.4833 13.6701C27.5371 13.6379 27.5909 13.5948 27.6447 13.5518L26.4503 11.7656Z" fill="#126E53"/>
<path d="M40.7932 37.4193C40.309 36.6124 40.6426 35.4826 41.568 34.8047L42.5363 36.2573L40.7932 37.4193Z" fill="#126E53"/>
<path d="M41.5035 35.1505L42.2029 36.1942L40.8902 37.0766C40.6642 36.4525 40.9117 35.6885 41.5035 35.1505ZM41.6219 34.4727C41.5896 34.4942 41.5573 34.5157 41.525 34.5372C40.3952 35.2904 39.9971 36.6569 40.632 37.6038C40.6642 37.6468 40.6965 37.7006 40.7288 37.7329L42.8593 36.3126L41.6219 34.4727Z" fill="#126E53"/>
<path d="M35.0904 39.1696C35.51 38.9006 35.9834 38.75 36.4461 38.75C37.0164 38.75 37.5113 38.9652 37.8234 39.3526L36.0157 40.5577L35.0904 39.1696Z" fill="#126E53"/>
<path d="M36.4461 38.5156V38.9891C36.8442 38.9891 37.1993 39.1074 37.4575 39.3226L36.091 40.2372L35.4347 39.2473C35.7575 39.0751 36.1125 38.9891 36.4569 38.9891L36.4461 38.5156ZM36.4461 38.5156C35.9404 38.5156 35.4131 38.6663 34.9289 38.9891C34.8751 39.0213 34.8213 39.0644 34.7675 39.1074L35.9619 40.8936L38.1569 39.4195C38.1462 39.3872 38.1246 39.3657 38.1031 39.3334C37.7373 38.7954 37.1132 38.5156 36.4461 38.5156Z" fill="#126E53"/>
<path d="M33.6036 29.8978C34.8043 29.0955 34.7098 26.8469 33.3924 24.8753C32.075 22.9038 30.0337 21.9559 28.833 22.7582C27.6323 23.5605 27.7268 25.8092 29.0442 27.7807C30.3616 29.7523 32.4029 30.7001 33.6036 29.8978Z" fill="#29B273"/>
<path d="M26.8393 19.7762C27.2148 19.5253 27.1873 18.8252 26.7779 18.2124C26.3685 17.5997 25.7322 17.3064 25.3567 17.5574C24.9811 17.8083 25.0086 18.5084 25.418 19.1211C25.8274 19.7338 26.4637 20.0271 26.8393 19.7762Z" fill="#D8E6EA"/>
<path d="M37.0809 35.1055C36.7043 35.353 36.0695 35.0625 35.6606 34.4492C35.2517 33.8359 35.2195 33.1365 35.5961 32.889C35.9727 32.6415 36.6075 32.932 37.0164 33.5453C37.4252 34.1479 37.4575 34.8473 37.0809 35.1055Z" fill="#D8E6EA"/>
<path d="M37.7803 26.6498L24.3089 35.8495L21.3929 31.481L34.8536 22.2812L37.7803 26.6498Z" fill="#126E53"/>
<path d="M37.5612 26.1544L33.783 20.5L24.8988 26.4364L28.677 32.0908L37.5612 26.1544Z" fill="#D3C4AE"/>
<path d="M23.9323 35.4603L20.1556 29.8006L24.976 26.3789L28.7528 32.0386L23.9323 35.4603Z" fill="white"/>
<path d="M34.7942 22.0173L34.4355 21.4805L25.5512 27.4168L25.9099 27.9536L34.7942 22.0173Z" fill="#0C58A6"/>
<path d="M36.8996 25.1735L36.5409 24.6367L27.6567 30.5731L28.0154 31.1099L36.8996 25.1735Z" fill="#0C58A6"/>
<path d="M21.1779 31.32L20.8228 30.782L25.6325 27.3711L25.9875 27.8983L21.1779 31.32Z" fill="#1C75BC"/>
<path d="M23.2868 34.4723L22.9317 33.9343L27.7307 30.5234L28.0965 31.0507L23.2868 34.4723Z" fill="#1C75BC"/>
<path opacity="0.33" d="M19.5422 21.1301C19.4562 21.1839 19.3593 21.2054 19.2625 21.1839C19.1657 21.1624 19.0796 21.1086 19.0258 21.0225L16.4972 17.2565L17.1213 16.8477L19.6391 20.6244C19.7574 20.7858 19.7036 21.0225 19.5422 21.1301Z" fill="#29B273"/>
<path opacity="0.33" d="M19.3594 23.5507C19.2733 23.6045 19.1764 23.626 19.0796 23.6045C18.9828 23.583 18.8967 23.5292 18.8429 23.4431L15.2598 18.0847L15.8839 17.6758L19.467 23.045C19.5746 23.2064 19.5315 23.4431 19.3594 23.5507Z" fill="#29B273"/>
<path opacity="0.33" d="M30.6142 40.7964C30.7003 40.7426 30.7972 40.7211 30.894 40.7426C30.9908 40.7641 31.0769 40.8179 31.1307 40.904L33.2504 44.0782L32.6264 44.4871L30.5174 41.3129C30.399 41.1515 30.4421 40.9148 30.6142 40.7964Z" fill="#29B273"/>
</g>
<defs>
<clipPath id="clip0_21431_73478">
<rect width="32" height="35.3463" fill="white" transform="translate(12.3334 10.3281)"/>
</clipPath>
</defs>
</svg>
