<svg width="57" height="56" viewBox="0 0 57 56" fill="none" xmlns="http://www.w3.org/2000/svg">
<path d="M8.66666 0.5H48.6667C52.8088 0.5 56.1667 3.85786 56.1667 8V48C56.1667 52.1421 52.8088 55.5 48.6667 55.5H8.66666C4.52452 55.5 1.16666 52.1421 1.16666 48V8C1.16666 3.85786 4.52452 0.5 8.66666 0.5Z" fill="white"/>
<path d="M8.66666 0.5H48.6667C52.8088 0.5 56.1667 3.85786 56.1667 8V48C56.1667 52.1421 52.8088 55.5 48.6667 55.5H8.66666C4.52452 55.5 1.16666 52.1421 1.16666 48V8C1.16666 3.85786 4.52452 0.5 8.66666 0.5Z" stroke="#F3F4F6"/>
<g clip-path="url(#clip0_21431_50717)">
<path d="M32.018 41.1517H25.3148C25.163 41.1517 25.0424 41.0311 25.0424 40.8793V39.0625H32.2903V40.8793C32.2903 41.0311 32.1658 41.1517 32.018 41.1517Z" fill="#1C75BC"/>
<path d="M23.0192 28.9492C23.0192 28.9492 20.2881 32.5907 18.3429 34.8276C15.7208 37.8505 16.4172 38.2357 18.767 46.6156C24.7427 42.589 22.1905 36.7845 24.3381 35.6135C28.2557 33.4777 23.0192 28.9492 23.0192 28.9492Z" fill="#004B75"/>
<path d="M34.3131 28.9492C34.3131 28.9492 37.0481 32.5907 38.9894 34.8276C41.6116 37.8505 40.9152 38.2357 38.5654 46.6156C32.5897 42.589 35.1379 36.7845 32.9904 35.6135C29.0766 33.4777 34.3131 28.9492 34.3131 28.9492Z" fill="#004B75"/>
<path d="M36.0988 26.0773C36.0988 19.059 32.0411 12.7915 29.9442 10.0216C29.3178 9.19679 28.0846 9.17733 27.431 9.98265C25.2912 12.6359 21.2296 18.6155 21.2296 25.735C21.2296 28.6139 23.2021 36.7837 24.2292 38.8651C24.4742 39.3631 24.9839 39.6821 25.5402 39.6821H31.9477C32.5041 39.6821 33.0098 39.3631 33.2588 38.8651C34.2859 36.7837 36.0988 28.9523 36.0988 26.0773Z" fill="#004B75"/>
<path d="M33.259 38.8663C34.2861 36.7849 36.1029 28.9535 36.1029 26.0785C36.1029 21.8029 34.5973 17.8074 32.9478 14.7106C31.66 14.0493 30.2439 13.6797 28.7578 13.6797C27.1121 13.6797 25.556 14.1271 24.1632 14.9285C22.5992 17.8619 21.2337 21.6084 21.2337 25.7322C21.2337 28.6111 23.2062 36.781 24.2332 38.8624C24.4783 39.3603 24.988 39.6794 25.5443 39.6794H31.9518C32.5043 39.6832 33.01 39.3642 33.259 38.8663Z" fill="#7CC6FF"/>
<path d="M28.9523 27.2949C31.4726 27.2949 33.5158 25.2518 33.5158 22.7314C33.5158 20.2111 31.4726 18.168 28.9523 18.168C26.432 18.168 24.3889 20.2111 24.3889 22.7314C24.3889 25.2518 26.432 27.2949 28.9523 27.2949Z" fill="#EBD6AC"/>
<path d="M31.9156 25.9026C33.6978 24.1205 33.6978 21.2311 31.9156 19.449C30.1335 17.6668 27.2441 17.6668 25.462 19.449C23.6799 21.2311 23.6799 24.1205 25.462 25.9026C27.2441 27.6847 30.1335 27.6847 31.9156 25.9026Z" fill="#E9571F"/>
<path d="M24.3306 22.7429C24.3306 20.2219 26.373 18.1794 28.894 18.1794C29.357 18.1794 29.8044 18.2494 30.2284 18.3778C29.746 18.2067 29.2286 18.1133 28.6917 18.1133C26.1707 18.1133 24.1283 20.1558 24.1283 22.6767C24.1283 24.7348 25.4899 26.4738 27.3612 27.0418C25.591 26.4115 24.3306 24.7231 24.3306 22.7429Z" fill="white"/>
<path d="M29.0924 26.6548C29.0924 26.8455 28.9368 27.0011 28.7462 27.0011C28.5555 27.0011 28.3999 26.8455 28.3999 26.6548C28.3999 26.4642 28.5555 26.3086 28.7462 26.3086C28.9368 26.3086 29.0924 26.4642 29.0924 26.6548Z" fill="white"/>
<path d="M29.073 18.815C29.073 19.0056 28.9173 19.1612 28.7267 19.1612C28.5361 19.1612 28.3805 19.0056 28.3805 18.815C28.3805 18.6244 28.5361 18.4688 28.7267 18.4688C28.9173 18.4688 29.073 18.6244 29.073 18.815Z" fill="white"/>
<path d="M32.0119 20.205C32.0559 20.0189 31.9406 19.8324 31.7545 19.7884C31.5684 19.7445 31.3819 19.8597 31.338 20.0458C31.294 20.2319 31.4093 20.4184 31.5954 20.4624C31.7815 20.5063 31.968 20.3911 32.0119 20.205Z" fill="white"/>
<path d="M26.2913 25.5377C26.2913 25.7283 26.1357 25.8839 25.9451 25.8839C25.7544 25.8839 25.5988 25.7283 25.5988 25.5377C25.5988 25.347 25.7544 25.1914 25.9451 25.1914C26.1357 25.1914 26.2913 25.347 26.2913 25.5377Z" fill="white"/>
<path d="M32.018 25.3853C32.018 25.5759 31.8624 25.7316 31.6718 25.7316C31.4812 25.7316 31.3255 25.5759 31.3255 25.3853C31.3255 25.1947 31.4812 25.0391 31.6718 25.0391C31.8663 25.043 32.018 25.1947 32.018 25.3853Z" fill="white"/>
<path d="M26.1512 20.0689C26.1512 20.2595 25.9956 20.4152 25.805 20.4152C25.6143 20.4152 25.4587 20.2595 25.4587 20.0689C25.4587 19.8783 25.6143 19.7227 25.805 19.7227C25.9956 19.7227 26.1512 19.8783 26.1512 20.0689Z" fill="white"/>
<path d="M32.936 22.9909C33.0712 22.8557 33.0712 22.6365 32.936 22.5013C32.8008 22.366 32.5816 22.366 32.4463 22.5013C32.3111 22.6365 32.3111 22.8557 32.4463 22.9909C32.5816 23.1261 32.8008 23.1261 32.936 22.9909Z" fill="white"/>
<path d="M25.0861 22.7541C25.0912 22.5629 24.9403 22.4039 24.7491 22.3988C24.5579 22.3938 24.3989 22.5447 24.3938 22.7359C24.3888 22.9271 24.5397 23.0861 24.7309 23.0911C24.9221 23.0962 25.0811 22.9453 25.0861 22.7541Z" fill="white"/>
<path d="M28.6878 26.0274C30.5377 26.0274 32.0374 24.5277 32.0374 22.6778C32.0374 20.8278 30.5377 19.3281 28.6878 19.3281C26.8378 19.3281 25.3381 20.8278 25.3381 22.6778C25.3381 24.5277 26.8378 26.0274 28.6878 26.0274Z" fill="#D2E3F2"/>
<path d="M25.7233 23.0902C25.7233 21.2422 27.2211 19.7405 29.0729 19.7405C29.9405 19.7405 30.7302 20.0712 31.3216 20.6081C30.7069 19.8261 29.7576 19.3281 28.6878 19.3281C26.8398 19.3281 25.3381 20.8259 25.3381 22.6778C25.3381 23.6621 25.7622 24.5452 26.4352 25.156C25.9917 24.588 25.7233 23.8682 25.7233 23.0902Z" fill="white"/>
<path d="M30.777 22.7906C30.3996 24.2496 28.9096 25.1288 27.4468 24.7514C26.9955 24.6347 26.6025 24.413 26.2835 24.1173C26.6492 24.7475 27.2561 25.2377 28.0148 25.4322C29.5204 25.8213 31.0571 24.9187 31.4461 23.4131C31.7651 22.1799 31.2166 20.931 30.1817 20.3008C30.7575 20.9622 31.0104 21.8842 30.777 22.7906Z" fill="white"/>
<path d="M29.6177 38.5806C29.6177 43.0157 29.1781 45.879 28.6684 46.6143C28.1393 45.8518 27.7192 43.0196 27.7192 38.5806C27.7192 34.1416 28.6684 30.5469 28.6684 30.5469C28.6684 30.5469 29.6177 34.1455 29.6177 38.5806Z" fill="#004B75"/>
</g>
<defs>
<clipPath id="clip0_21431_50717">
<rect width="24" height="37.2274" fill="white" transform="translate(16.6667 9.38672)"/>
</clipPath>
</defs>
</svg>
