<svg width="56" height="57" viewBox="0 0 56 57" fill="none" xmlns="http://www.w3.org/2000/svg">
<path d="M8 1.27734H48C52.1421 1.27734 55.5 4.63521 55.5 8.77734V48.7773C55.5 52.9195 52.1421 56.2773 48 56.2773H8C3.85786 56.2773 0.5 52.9195 0.5 48.7773V8.77734C0.5 4.63521 3.85786 1.27734 8 1.27734Z" fill="white"/>
<path d="M8 1.27734H48C52.1421 1.27734 55.5 4.63521 55.5 8.77734V48.7773C55.5 52.9195 52.1421 56.2773 48 56.2773H8C3.85786 56.2773 0.5 52.9195 0.5 48.7773V8.77734C0.5 4.63521 3.85786 1.27734 8 1.27734Z" stroke="#F3F4F6"/>
<g clip-path="url(#clip0_21431_20025)">
<path d="M13.7098 31.2305L12.2206 44.6988L13.1859 44.7101L14.6935 32.2769L13.7098 31.2305Z" fill="#E0E0E0"/>
<path d="M12.3126 28.8789L12 30.0266L18.1132 44.7551L39.2749 44.7326L39.707 43.8325L30.1097 38.8255L12.3126 28.8789Z" fill="#E0E0E0"/>
<path d="M12.3126 28.8789L18.4901 43.8437L39.707 43.8325L33.1158 29.0589L12.3126 28.8789Z" fill="#F5F5F5"/>
<path d="M12.3126 28.8789C12.5056 28.8789 20.871 28.9464 33.125 29.0364H33.1342L33.1434 29.0477C35.1566 33.5596 37.3904 38.5667 39.7346 43.8212L39.753 43.8662H39.7162C39.661 43.8662 39.5967 43.8662 39.5415 43.8662C31.5898 43.8662 24.2632 43.8662 18.4993 43.8775H18.4901L18.4809 43.8662C14.7119 34.7186 12.3769 29.0477 12.3126 28.8789C12.3861 29.0477 14.7303 34.7073 18.5085 43.8325L18.4901 43.8212C24.254 43.8212 31.5806 43.81 39.5323 43.7987C39.5967 43.7987 39.6518 43.7987 39.707 43.7987L39.6886 43.8437C37.3445 38.5892 35.1106 33.5821 33.0974 29.0702L33.1158 29.0814C20.871 28.9689 12.5056 28.8789 12.3126 28.8789Z" fill="#004B75"/>
<path d="M14.8773 30.7144L13.7558 30.7032C13.6915 30.7032 13.6271 30.6582 13.5904 30.5907L13.0939 29.4992C13.0664 29.443 13.1031 29.3867 13.1491 29.3867L14.243 29.398C14.3258 29.398 14.3993 29.4542 14.4453 29.5442L14.9325 30.6132C14.9601 30.6469 14.9233 30.7144 14.8773 30.7144Z" fill="#1C75BC"/>
<path d="M16.5504 30.7261L15.4289 30.7149C15.3646 30.7149 15.3002 30.6699 15.2634 30.6024L14.767 29.511C14.7395 29.4547 14.7762 29.3984 14.8222 29.3984L15.9161 29.4097C15.9989 29.4097 16.0724 29.4659 16.1184 29.556L16.6056 30.6249C16.6332 30.6586 16.6056 30.7261 16.5504 30.7261Z" fill="#1C75BC"/>
<path d="M18.1592 30.7379L17.0377 30.7266C16.9733 30.7266 16.909 30.6816 16.8722 30.6141L16.3758 29.5227C16.3482 29.4664 16.385 29.4102 16.4309 29.4102L17.5249 29.4214C17.6076 29.4214 17.6811 29.4777 17.7271 29.5677L18.2143 30.6366C18.2419 30.6816 18.2143 30.7379 18.1592 30.7379Z" fill="#1C75BC"/>
<path d="M19.7587 30.7496L18.6372 30.7383C18.5728 30.7383 18.5085 30.6933 18.4717 30.6258L17.9753 29.5344C17.9477 29.4781 17.9845 29.4219 18.0304 29.4219L19.1244 29.4331C19.2071 29.4331 19.2807 29.4894 19.3266 29.5794L19.8138 30.6483C19.8414 30.6933 19.8138 30.7496 19.7587 30.7496Z" fill="#1C75BC"/>
<path d="M15.5025 32.3121L14.3809 32.3008C14.3166 32.3008 14.2522 32.2558 14.2155 32.1883L13.7191 31.0969C13.6915 31.0406 13.7283 30.9844 13.7742 30.9844L14.8682 30.9956C14.9509 30.9956 15.0244 31.0519 15.0704 31.1419L15.5576 32.2108C15.576 32.2446 15.5484 32.3121 15.5025 32.3121Z" fill="#1C75BC"/>
<path d="M17.1388 32.3238L16.0172 32.3126C15.9529 32.3126 15.8885 32.2675 15.8518 32.2L15.3554 31.1086C15.3278 31.0524 15.3645 30.9961 15.4105 30.9961L16.5045 31.0073C16.5872 31.0073 16.6607 31.0636 16.7067 31.1536L17.1939 32.2225C17.2215 32.2563 17.1939 32.3238 17.1388 32.3238Z" fill="#1C75BC"/>
<path d="M18.7934 32.3355L17.6719 32.3243C17.6076 32.3243 17.5432 32.2793 17.5065 32.2118L17.01 31.1203C16.9825 31.0641 17.0192 31.0078 17.0652 31.0078L18.1591 31.0191C18.2419 31.0191 18.3154 31.0753 18.3614 31.1653L18.8486 32.2343C18.8762 32.2793 18.8486 32.3355 18.7934 32.3355Z" fill="#1C75BC"/>
<path d="M20.4114 32.359L19.2898 32.3477C19.2255 32.3477 19.1611 32.3027 19.1244 32.2352L18.628 31.1438C18.6004 31.0875 18.6372 31.0312 18.6831 31.0312L19.7771 31.0425C19.8598 31.0425 19.9333 31.0988 19.9793 31.1888L20.4665 32.2577C20.4941 32.2914 20.4665 32.359 20.4114 32.359Z" fill="#1C75BC"/>
<path d="M16.1827 33.8863L15.0612 33.875C14.9968 33.875 14.9325 33.83 14.8957 33.7625L14.3993 32.6711C14.3717 32.6149 14.4085 32.5586 14.4545 32.5586L15.5484 32.5698C15.6311 32.5698 15.7047 32.6261 15.7506 32.7161L16.2379 33.785C16.2654 33.83 16.2379 33.8863 16.1827 33.8863Z" fill="#1C75BC"/>
<path d="M17.8282 33.9097L16.7067 33.8985C16.6423 33.8985 16.578 33.8535 16.5412 33.786L16.0448 32.6945C16.0172 32.6383 16.054 32.582 16.1 32.582L17.1939 32.5933C17.2766 32.5933 17.3502 32.6495 17.3961 32.7396L17.8834 33.8085C17.9109 33.8422 17.8742 33.9097 17.8282 33.9097Z" fill="#1C75BC"/>
<path d="M19.4829 33.9215L18.3614 33.9102C18.297 33.9102 18.2327 33.8652 18.1959 33.7977L17.6995 32.7063C17.6719 32.65 17.7087 32.5938 17.7547 32.5938L18.8486 32.605C18.9313 32.605 19.0049 32.6613 19.0508 32.7513L19.5381 33.8202C19.5656 33.8539 19.5289 33.9215 19.4829 33.9215Z" fill="#1C75BC"/>
<path d="M21.1008 33.9332L19.9793 33.9219C19.915 33.9219 19.8506 33.8769 19.8139 33.8094L19.3175 32.718C19.2899 32.6617 19.3266 32.6055 19.3726 32.6055L20.4665 32.6167C20.5493 32.6167 20.6228 32.673 20.6688 32.763L21.156 33.8319C21.1836 33.8769 21.1468 33.9332 21.1008 33.9332Z" fill="#1C75BC"/>
<path d="M16.8722 35.4722L15.7507 35.461C15.6863 35.461 15.622 35.416 15.5852 35.3485L15.0888 34.257C15.0612 34.2008 15.098 34.1445 15.1439 34.1445L16.2379 34.1558C16.3206 34.1558 16.3942 34.212 16.4401 34.3021L16.9273 35.371C16.9549 35.4047 16.9181 35.4722 16.8722 35.4722Z" fill="#1C75BC"/>
<path d="M18.5177 35.484L17.3961 35.4727C17.3318 35.4727 17.2674 35.4277 17.2307 35.3602L16.7343 34.2688C16.7067 34.2125 16.7435 34.1562 16.7894 34.1562L17.8834 34.1675C17.9661 34.1675 18.0396 34.2238 18.0856 34.3138L18.5728 35.3827C18.5912 35.4277 18.5636 35.484 18.5177 35.484Z" fill="#1C75BC"/>
<path d="M20.1724 35.5074L19.0509 35.4961C18.9865 35.4961 18.9222 35.4511 18.8854 35.3836L18.389 34.2922C18.3614 34.2359 18.3982 34.1797 18.4441 34.1797L19.5381 34.1909C19.6208 34.1909 19.6944 34.2472 19.7403 34.3372L20.2275 35.4061C20.2459 35.4399 20.2183 35.5074 20.1724 35.5074Z" fill="#1C75BC"/>
<path d="M21.7811 35.5191L20.6596 35.5079C20.5952 35.5079 20.5309 35.4629 20.4941 35.3953L19.9977 34.3039C19.9701 34.2477 20.0069 34.1914 20.0529 34.1914L21.1468 34.2027C21.2295 34.2027 21.3031 34.2589 21.3491 34.3489L21.8363 35.4178C21.8639 35.4516 21.8363 35.5191 21.7811 35.5191Z" fill="#1C75BC"/>
<path d="M17.5616 37.0621L16.4401 37.0508C16.3758 37.0508 16.3114 37.0058 16.2746 36.9383L15.7782 35.8469C15.7507 35.7906 15.7874 35.7344 15.8334 35.7344L16.9273 35.7456C17.0101 35.7456 17.0836 35.8019 17.1296 35.8919L17.6168 36.9608C17.6352 36.9946 17.6076 37.0621 17.5616 37.0621Z" fill="#1C75BC"/>
<path d="M19.1979 37.0699L18.0764 37.0586C18.0121 37.0586 17.9477 37.0136 17.9109 36.9461L17.4145 35.8547C17.387 35.7984 17.4237 35.7422 17.4697 35.7422L18.5636 35.7534C18.6464 35.7534 18.7199 35.8097 18.7659 35.8997L19.2531 36.9686C19.2807 37.0024 19.2531 37.0699 19.1979 37.0699Z" fill="#1C75BC"/>
<path d="M20.8526 37.0821H19.7311C19.6668 37.0821 19.6024 37.0371 19.5656 36.9696L19.0692 35.8781C19.0416 35.8219 19.0784 35.7656 19.1244 35.7656L20.2183 35.7769C20.3011 35.7769 20.3746 35.8331 20.4206 35.9231L20.9078 36.9921C20.9354 37.0258 20.9078 37.0821 20.8526 37.0821Z" fill="#1C75BC"/>
<path d="M22.4706 37.1051L21.3491 37.0938C21.2847 37.0938 21.2204 37.0488 21.1836 36.9813L20.6872 35.8899C20.6596 35.8336 20.6964 35.7773 20.7423 35.7773L21.8363 35.7886C21.919 35.7886 21.9925 35.8449 22.0385 35.9349L22.5257 37.0038C22.5533 37.0375 22.5165 37.1051 22.4706 37.1051Z" fill="#1C75BC"/>
<path d="M18.2419 38.648L17.1204 38.6368C17.056 38.6368 16.9917 38.5918 16.9549 38.5243L16.4585 37.4328C16.4309 37.3766 16.4677 37.3203 16.5137 37.3203L17.6076 37.3316C17.6903 37.3316 17.7639 37.3878 17.8098 37.4778L18.2971 38.5468C18.3246 38.5805 18.2971 38.648 18.2419 38.648Z" fill="#1C75BC"/>
<path d="M19.8874 38.6597L18.7659 38.6485C18.7015 38.6485 18.6372 38.6035 18.6004 38.536L18.104 37.4445C18.0764 37.3883 18.1132 37.332 18.1591 37.332L19.2531 37.3433C19.3358 37.3433 19.4094 37.3995 19.4553 37.4896L19.9425 38.5585C19.9701 38.5922 19.9333 38.6597 19.8874 38.6597Z" fill="#1C75BC"/>
<path d="M21.5421 38.6676L20.4206 38.6563C20.3562 38.6563 20.2919 38.6113 20.2551 38.5438L19.7587 37.4524C19.7311 37.3961 19.7679 37.3398 19.8139 37.3398L20.9078 37.3511C20.9905 37.3511 21.0641 37.4074 21.11 37.4974L21.5973 38.5663C21.6248 38.6 21.5881 38.6676 21.5421 38.6676Z" fill="#1C75BC"/>
<path d="M23.16 38.6793L22.0385 38.668C21.9742 38.668 21.9098 38.623 21.873 38.5555L21.3766 37.4641C21.349 37.4078 21.3858 37.3516 21.4318 37.3516L22.5257 37.3628C22.6085 37.3628 22.682 37.4191 22.728 37.5091L23.2152 38.578C23.2336 38.623 23.206 38.6793 23.16 38.6793Z" fill="#1C75BC"/>
<path d="M18.9314 40.2222L17.8098 40.211C17.7455 40.211 17.6811 40.166 17.6444 40.0985L17.148 39.007C17.1204 38.9508 17.1572 38.8945 17.2031 38.8945L18.2971 38.9058C18.3798 38.9058 18.4533 38.962 18.4993 39.0521L18.9865 40.121C19.0141 40.166 18.9773 40.2222 18.9314 40.2222Z" fill="#1C75BC"/>
<path d="M20.5676 40.2457L19.4461 40.2344C19.3818 40.2344 19.3174 40.1894 19.2807 40.1219L18.7842 39.0305C18.7567 38.9742 18.7934 38.918 18.8394 38.918L19.9333 38.9292C20.0161 38.9292 20.0896 38.9855 20.1356 39.0755L20.6228 40.1444C20.6504 40.1782 20.6228 40.2457 20.5676 40.2457Z" fill="#1C75BC"/>
<path d="M22.2315 40.2574L21.1008 40.2461C21.0365 40.2461 20.9721 40.2011 20.9354 40.1336L20.4389 39.0422C20.4114 38.9859 20.4481 38.9297 20.4941 38.9297L21.588 38.9409C21.6708 38.9409 21.7443 38.9972 21.7903 39.0872L22.2775 40.1561C22.3051 40.1899 22.2775 40.2574 22.2315 40.2574Z" fill="#1C75BC"/>
<path d="M23.8403 40.2691L22.7188 40.2579C22.6544 40.2579 22.5901 40.2129 22.5533 40.1453L22.0569 39.0539C22.0293 38.9977 22.0661 38.9414 22.112 38.9414L23.206 38.9527C23.2887 38.9527 23.3623 39.0089 23.4082 39.0989L23.8954 40.1678C23.923 40.2016 23.8954 40.2691 23.8403 40.2691Z" fill="#1C75BC"/>
<path d="M19.6116 41.8082L18.4901 41.7969C18.4258 41.7969 18.3614 41.7519 18.3246 41.6844L17.8282 40.593C17.8006 40.5367 17.8374 40.4805 17.8834 40.4805L18.9773 40.4917C19.0601 40.4917 19.1336 40.548 19.1796 40.638L19.6668 41.7069C19.6944 41.7407 19.6668 41.8082 19.6116 41.8082Z" fill="#1C75BC"/>
<path d="M21.2571 41.8199L20.1356 41.8086C20.0713 41.8086 20.0069 41.7636 19.9701 41.6961L19.4737 40.6047C19.4462 40.5484 19.4829 40.4922 19.5289 40.4922L20.6228 40.5034C20.7056 40.5034 20.7791 40.5597 20.8251 40.6497L21.3123 41.7186C21.3399 41.7636 21.3031 41.8199 21.2571 41.8199Z" fill="#1C75BC"/>
<path d="M22.9118 41.8433L21.7903 41.8321C21.726 41.8321 21.6616 41.7871 21.6248 41.7196L21.1284 40.6281C21.1008 40.5719 21.1376 40.5156 21.1836 40.5156L22.2775 40.5269C22.3603 40.5269 22.4338 40.5831 22.4798 40.6731L22.967 41.7421C22.9946 41.7758 22.9578 41.8433 22.9118 41.8433Z" fill="#1C75BC"/>
<path d="M24.5297 41.855L23.4082 41.8438C23.3439 41.8438 23.2795 41.7988 23.2428 41.7313L22.7463 40.6399C22.7188 40.5836 22.7555 40.5273 22.8015 40.5273L23.8954 40.5386C23.9782 40.5386 24.0517 40.5949 24.0977 40.6849L24.5849 41.7538C24.6125 41.7875 24.5757 41.855 24.5297 41.855Z" fill="#1C75BC"/>
<path d="M20.3011 43.3941L19.1796 43.3829C19.1152 43.3829 19.0509 43.3379 19.0141 43.2703L18.5177 42.1789C18.4901 42.1227 18.5269 42.0664 18.5728 42.0664L19.6668 42.0777C19.7495 42.0777 19.8231 42.1339 19.869 42.2239L20.3562 43.2929C20.3838 43.3266 20.347 43.3941 20.3011 43.3941Z" fill="#1C75BC"/>
<path d="M21.9466 43.4058L20.8251 43.3946C20.7607 43.3946 20.6964 43.3496 20.6596 43.2821L20.1632 42.1906C20.1356 42.1344 20.1724 42.0781 20.2183 42.0781L21.3123 42.0894C21.395 42.0894 21.4686 42.1456 21.5145 42.2356L22.0017 43.3046C22.0201 43.3383 21.9925 43.4058 21.9466 43.4058Z" fill="#1C75BC"/>
<path d="M23.6013 43.4175L22.4798 43.4063C22.4154 43.4063 22.3511 43.3613 22.3143 43.2938L21.8179 42.2024C21.7903 42.1461 21.8271 42.0898 21.873 42.0898L22.967 42.1011C23.0497 42.1011 23.1233 42.1574 23.1692 42.2474L23.6564 43.3163C23.6748 43.3613 23.6472 43.4175 23.6013 43.4175Z" fill="#1C75BC"/>
<path d="M25.2192 43.441L24.0977 43.4297C24.0333 43.4297 23.969 43.3847 23.9322 43.3172L23.4358 42.2258C23.4082 42.1695 23.445 42.1133 23.491 42.1133L24.5849 42.1245C24.6676 42.1245 24.7412 42.1808 24.7871 42.2708L25.2744 43.3397C25.2927 43.3735 25.2652 43.441 25.2192 43.441Z" fill="#1C75BC"/>
<path d="M21.6524 30.7691L20.5309 30.7579C20.4665 30.7579 20.4022 30.7129 20.3654 30.6453L19.869 29.5539C19.8414 29.4977 19.8782 29.4414 19.9242 29.4414L21.0181 29.4527C21.1008 29.4527 21.1744 29.5089 21.2203 29.5989L21.7075 30.6678C21.7351 30.7016 21.6984 30.7691 21.6524 30.7691Z" fill="#1C75BC"/>
<path d="M23.3255 30.7808L22.204 30.7696C22.1396 30.7696 22.0753 30.7246 22.0385 30.6571L21.5421 29.5656C21.5145 29.5094 21.5513 29.4531 21.5972 29.4531L22.6912 29.4644C22.7739 29.4644 22.8475 29.5206 22.8934 29.6107L23.3806 30.6796C23.4082 30.7246 23.3806 30.7808 23.3255 30.7808Z" fill="#1C75BC"/>
<path d="M24.9342 30.7926L23.8127 30.7813C23.7484 30.7813 23.684 30.7363 23.6472 30.6688L23.1508 29.5774C23.1232 29.5211 23.16 29.4648 23.206 29.4648L24.2999 29.4761C24.3827 29.4761 24.4562 29.5324 24.5022 29.6224L24.9894 30.6913C25.017 30.7363 24.9894 30.8038 24.9342 30.7926Z" fill="#1C75BC"/>
<path d="M26.5337 30.816L25.4122 30.8047C25.3479 30.8047 25.2835 30.7597 25.2468 30.6922L24.7503 29.6008C24.7228 29.5445 24.7595 29.4883 24.8055 29.4883L25.8994 29.4995C25.9822 29.4995 26.0557 29.5558 26.1017 29.6458L26.5889 30.7147C26.6165 30.7485 26.5889 30.816 26.5337 30.816Z" fill="#1C75BC"/>
<path d="M22.2775 32.3668L21.156 32.3555C21.0916 32.3555 21.0273 32.3105 20.9905 32.243L20.4941 31.1516C20.4665 31.0953 20.5033 31.0391 20.5493 31.0391L21.6432 31.0503C21.7259 31.0503 21.7995 31.1066 21.8455 31.1966L22.3327 32.2655C22.3602 32.2993 22.3235 32.3668 22.2775 32.3668Z" fill="#1C75BC"/>
<path d="M23.9138 32.3785L22.7923 32.3672C22.7279 32.3672 22.6636 32.3222 22.6268 32.2547L22.1304 31.1633C22.1028 31.107 22.1396 31.0508 22.1856 31.0508L23.2795 31.062C23.3622 31.062 23.4358 31.1183 23.4817 31.2083L23.969 32.2772C23.9965 32.3222 23.969 32.3785 23.9138 32.3785Z" fill="#1C75BC"/>
<path d="M25.5685 32.4019L24.447 32.3907C24.3826 32.3907 24.3183 32.3457 24.2815 32.2782L23.7851 31.1867C23.7575 31.1305 23.7943 31.0742 23.8403 31.0742L24.9342 31.0855C25.0169 31.0855 25.0905 31.1417 25.1364 31.2317L25.6237 32.3007C25.6512 32.3344 25.6237 32.4019 25.5685 32.4019Z" fill="#1C75BC"/>
<path d="M27.1864 32.4136L26.0649 32.4024C26.0006 32.4024 25.9362 32.3574 25.8995 32.2899L25.4031 31.1985C25.3755 31.1422 25.4122 31.0859 25.4582 31.0859L26.5521 31.0972C26.6349 31.0972 26.7084 31.1534 26.7544 31.2435L27.2416 32.3124C27.2692 32.3461 27.2416 32.4136 27.1864 32.4136Z" fill="#1C75BC"/>
<path d="M22.9578 33.9527L21.8362 33.9415C21.7719 33.9415 21.7075 33.8965 21.6708 33.8289L21.1744 32.7375C21.1468 32.6813 21.1835 32.625 21.2295 32.625L22.3235 32.6363C22.4062 32.6363 22.4797 32.6925 22.5257 32.7825L23.0129 33.8514C23.0405 33.8852 23.0129 33.9527 22.9578 33.9527Z" fill="#1C75BC"/>
<path d="M24.6033 33.9644L23.4817 33.9532C23.4174 33.9532 23.353 33.9082 23.3163 33.8407L22.8199 32.7492C22.7923 32.693 22.8291 32.6367 22.875 32.6367L23.969 32.648C24.0517 32.648 24.1252 32.7042 24.1712 32.7942L24.6584 33.8632C24.686 33.8969 24.6492 33.9644 24.6033 33.9644Z" fill="#1C75BC"/>
<path d="M26.258 33.9761L25.1364 33.9649C25.0721 33.9649 25.0077 33.9199 24.971 33.8524L24.4746 32.761C24.447 32.7047 24.4838 32.6484 24.5297 32.6484L25.6237 32.6597C25.7064 32.6597 25.7799 32.7159 25.8259 32.806L26.3131 33.8749C26.3407 33.9199 26.3039 33.9761 26.258 33.9761Z" fill="#1C75BC"/>
<path d="M27.8759 33.9996L26.7544 33.9883C26.69 33.9883 26.6257 33.9433 26.5889 33.8758L26.0925 32.7844C26.0649 32.7281 26.1017 32.6719 26.1477 32.6719L27.2416 32.6831C27.3243 32.6831 27.3979 32.7394 27.4438 32.8294L27.9311 33.8983C27.9586 33.9321 27.9219 33.9996 27.8759 33.9996Z" fill="#1C75BC"/>
<path d="M23.6472 35.5269L22.5257 35.5157C22.4614 35.5157 22.397 35.4707 22.3602 35.4032L21.8638 34.3117C21.8363 34.2555 21.873 34.1992 21.919 34.1992L23.0129 34.2105C23.0957 34.2105 23.1692 34.2667 23.2152 34.3567L23.7024 35.4257C23.73 35.4707 23.6932 35.5269 23.6472 35.5269Z" fill="#1C75BC"/>
<path d="M25.2927 35.5504L24.1712 35.5391C24.1068 35.5391 24.0425 35.4941 24.0057 35.4266L23.5093 34.3352C23.4817 34.2789 23.5185 34.2227 23.5645 34.2227L24.6584 34.2339C24.7411 34.2339 24.8147 34.2902 24.8607 34.3802L25.3479 35.4491C25.3663 35.4829 25.3387 35.5504 25.2927 35.5504Z" fill="#1C75BC"/>
<path d="M26.9474 35.5621L25.8259 35.5508C25.7616 35.5508 25.6972 35.5058 25.6605 35.4383L25.164 34.3469C25.1365 34.2906 25.1732 34.2344 25.2192 34.2344L26.3131 34.2456C26.3959 34.2456 26.4694 34.3019 26.5154 34.3919L27.0026 35.4608C27.021 35.4946 26.9934 35.5621 26.9474 35.5621Z" fill="#1C75BC"/>
<path d="M28.5654 35.5738L27.4438 35.5625C27.3795 35.5625 27.3151 35.5175 27.2784 35.45L26.782 34.3586C26.7544 34.3024 26.7912 34.2461 26.8371 34.2461L27.9311 34.2573C28.0138 34.2573 28.0873 34.3136 28.1333 34.4036L28.6205 35.4725C28.6389 35.5175 28.6113 35.5738 28.5654 35.5738Z" fill="#1C75BC"/>
<path d="M24.3367 37.1168L23.2152 37.1055C23.1508 37.1055 23.0865 37.0605 23.0497 36.993L22.5533 35.9016C22.5257 35.8453 22.5625 35.7891 22.6084 35.7891L23.7024 35.8003C23.7851 35.8003 23.8587 35.8566 23.9046 35.9466L24.3918 37.0155C24.4102 37.0493 24.3827 37.1168 24.3367 37.1168Z" fill="#1C75BC"/>
<path d="M25.973 37.1246L24.8515 37.1133C24.7871 37.1133 24.7228 37.0683 24.686 37.0008L24.1896 35.9094C24.162 35.8531 24.1988 35.7969 24.2447 35.7969L25.3387 35.8081C25.4214 35.8081 25.495 35.8644 25.5409 35.9544L26.0281 37.0233C26.0557 37.0683 26.0281 37.1246 25.973 37.1246Z" fill="#1C75BC"/>
<path d="M27.6277 37.148L26.5062 37.1368C26.4418 37.1368 26.3775 37.0918 26.3407 37.0243L25.8443 35.9328C25.8167 35.8766 25.8535 35.8203 25.8994 35.8203L26.9934 35.8316C27.0761 35.8316 27.1496 35.8878 27.1956 35.9778L27.6828 37.0468C27.7104 37.0805 27.6828 37.148 27.6277 37.148Z" fill="#1C75BC"/>
<path d="M29.2456 37.1597L28.1241 37.1485C28.0598 37.1485 27.9954 37.1035 27.9586 37.036L27.4622 35.9445C27.4346 35.8883 27.4714 35.832 27.5174 35.832L28.6113 35.8433C28.6941 35.8433 28.7676 35.8995 28.8136 35.9896L29.3008 37.0585C29.3284 37.0922 29.3008 37.1597 29.2456 37.1597Z" fill="#1C75BC"/>
<path d="M25.017 38.7027L23.8954 38.6915C23.8311 38.6915 23.7667 38.6464 23.73 38.5789L23.2336 37.4875C23.206 37.4313 23.2428 37.375 23.2887 37.375L24.3827 37.3863C24.4654 37.3863 24.5389 37.4425 24.5849 37.5325L25.0721 38.6014C25.0997 38.6352 25.0721 38.7027 25.017 38.7027Z" fill="#1C75BC"/>
<path d="M26.6625 38.7144L25.5409 38.7032C25.4766 38.7032 25.4122 38.6582 25.3755 38.5907L24.8791 37.4992C24.8515 37.443 24.8883 37.3867 24.9342 37.3867L26.0282 37.398C26.1109 37.398 26.1844 37.4542 26.2304 37.5442L26.7176 38.6132C26.7452 38.6469 26.7084 38.7144 26.6625 38.7144Z" fill="#1C75BC"/>
<path d="M28.3172 38.7222L27.1956 38.711C27.1313 38.711 27.0669 38.666 27.0302 38.5985L26.5338 37.507C26.5062 37.4508 26.543 37.3945 26.5889 37.3945L27.6829 37.4058C27.7656 37.4058 27.8391 37.462 27.8851 37.5521L28.3723 38.621C28.3999 38.666 28.3631 38.7222 28.3172 38.7222Z" fill="#1C75BC"/>
<path d="M29.9351 38.7457L28.8136 38.7344C28.7492 38.7344 28.6849 38.6894 28.6481 38.6219L28.1517 37.5305C28.1241 37.4742 28.1609 37.418 28.2068 37.418L29.3008 37.4292C29.3835 37.4292 29.4571 37.4855 29.503 37.5755L29.9902 38.6444C30.0178 38.6782 29.981 38.7457 29.9351 38.7457Z" fill="#1C75BC"/>
<path d="M25.7064 40.2886L24.5849 40.2774C24.5205 40.2774 24.4562 40.2324 24.4194 40.1649L23.923 39.0735C23.8954 39.0172 23.9322 38.9609 23.9782 38.9609L25.0721 38.9722C25.1548 38.9722 25.2284 39.0284 25.2743 39.1185L25.7616 40.1874C25.7891 40.2211 25.7524 40.2886 25.7064 40.2886Z" fill="#1C75BC"/>
<path d="M27.3519 40.3004L26.2304 40.2891C26.166 40.2891 26.1017 40.2441 26.0649 40.1766L25.5685 39.0852C25.5409 39.0289 25.5777 38.9727 25.6237 38.9727L26.7176 38.9839C26.8004 38.9839 26.8739 39.0402 26.9199 39.1302L27.4071 40.1991C27.4255 40.2329 27.3979 40.3004 27.3519 40.3004Z" fill="#1C75BC"/>
<path d="M29.0066 40.3121L27.8851 40.3008C27.8207 40.3008 27.7564 40.2558 27.7196 40.1883L27.2232 39.0969C27.1956 39.0406 27.2324 38.9844 27.2784 38.9844L28.3723 38.9956C28.455 38.9956 28.5286 39.0519 28.5745 39.1419L29.0618 40.2108C29.0802 40.2446 29.0526 40.3121 29.0066 40.3121Z" fill="#1C75BC"/>
<path d="M30.6153 40.3238L29.4938 40.3125C29.4295 40.3125 29.3651 40.2675 29.3284 40.2L28.8319 39.1086C28.8044 39.0524 28.8411 38.9961 28.8871 38.9961L29.981 39.0073C30.0638 39.0073 30.1373 39.0636 30.1833 39.1536L30.6705 40.2225C30.6981 40.2675 30.6705 40.3238 30.6153 40.3238Z" fill="#1C75BC"/>
<path d="M26.3959 41.8629L25.2743 41.8516C25.21 41.8516 25.1456 41.8066 25.1089 41.7391L24.6125 40.6477C24.5849 40.5914 24.6217 40.5352 24.6676 40.5352L25.7616 40.5464C25.8443 40.5464 25.9178 40.6027 25.9638 40.6927L26.451 41.7616C26.4694 41.8066 26.4418 41.8629 26.3959 41.8629Z" fill="#1C75BC"/>
<path d="M28.0322 41.8863L26.9107 41.8751C26.8463 41.8751 26.782 41.83 26.7452 41.7625L26.2488 40.6711C26.2212 40.6149 26.258 40.5586 26.3039 40.5586L27.3979 40.5698C27.4806 40.5698 27.5542 40.6261 27.6001 40.7161L28.0873 41.785C28.1149 41.8188 28.0873 41.8863 28.0322 41.8863Z" fill="#1C75BC"/>
<path d="M29.6869 41.898L28.5654 41.8868C28.501 41.8868 28.4367 41.8418 28.3999 41.7743L27.9035 40.6828C27.8759 40.6266 27.9127 40.5703 27.9586 40.5703L29.0526 40.5816C29.1353 40.5816 29.2089 40.6378 29.2548 40.7278L29.742 41.7968C29.7696 41.8305 29.742 41.898 29.6869 41.898Z" fill="#1C75BC"/>
<path d="M31.3048 41.9097L30.1833 41.8985C30.1189 41.8985 30.0546 41.8535 30.0178 41.786L29.5214 40.6945C29.4938 40.6383 29.5306 40.582 29.5766 40.582L30.6705 40.5933C30.7532 40.5933 30.8268 40.6495 30.8727 40.7396L31.36 41.8085C31.3875 41.8422 31.3508 41.9097 31.3048 41.9097Z" fill="#1C75BC"/>
<path d="M27.0761 43.4488L25.9546 43.4376C25.8903 43.4376 25.8259 43.3925 25.7891 43.325L25.2927 42.2336C25.2652 42.1774 25.3019 42.1211 25.3479 42.1211L26.4418 42.1323C26.5246 42.1323 26.5981 42.1886 26.6441 42.2786L27.1313 43.3475C27.1589 43.3813 27.1313 43.4488 27.0761 43.4488Z" fill="#1C75BC"/>
<path d="M28.7216 43.4605L27.6001 43.4493C27.5358 43.4493 27.4714 43.4043 27.4346 43.3368L26.9382 42.2453C26.9107 42.1891 26.9474 42.1328 26.9934 42.1328L28.0873 42.1441C28.1701 42.1441 28.2436 42.2003 28.2896 42.2903L28.7768 43.3593C28.8044 43.4043 28.7676 43.4605 28.7216 43.4605Z" fill="#1C75BC"/>
<path d="M30.3763 43.484L29.2548 43.4727C29.1905 43.4727 29.1261 43.4277 29.0893 43.3602L28.5929 42.2688C28.5654 42.2125 28.6021 42.1562 28.6481 42.1562L29.742 42.1675C29.8248 42.1675 29.8983 42.2238 29.9443 42.3138L30.4315 43.3827C30.4591 43.4164 30.4223 43.484 30.3763 43.484Z" fill="#1C75BC"/>
<path d="M31.9942 43.4957L30.8727 43.4844C30.8084 43.4844 30.744 43.4394 30.7073 43.3719L30.2109 42.2805C30.1833 42.2242 30.22 42.168 30.266 42.168L31.3599 42.1792C31.4427 42.1792 31.5162 42.2355 31.5622 42.3255L32.0494 43.3944C32.0678 43.4282 32.0402 43.4957 31.9942 43.4957Z" fill="#1C75BC"/>
<path d="M28.4275 30.8238L27.306 30.8125C27.2416 30.8125 27.1773 30.7675 27.1405 30.7L26.6441 29.6086C26.6165 29.5524 26.6533 29.4961 26.6992 29.4961L27.7932 29.5073C27.8759 29.5073 27.9495 29.5636 27.9954 29.6536L28.4826 30.7225C28.5102 30.7563 28.4734 30.8238 28.4275 30.8238Z" fill="#1C75BC"/>
<path d="M30.1098 30.8355L28.9882 30.8243C28.9239 30.8243 28.8595 30.7793 28.8228 30.7118L28.3264 29.6203C28.2988 29.5641 28.3356 29.5078 28.3815 29.5078L29.4755 29.5191C29.5582 29.5191 29.6317 29.5753 29.6777 29.6653L30.1649 30.7343C30.1833 30.7793 30.1557 30.8468 30.1098 30.8355Z" fill="#1C75BC"/>
<path d="M31.7093 30.859L30.5878 30.8477C30.5234 30.8477 30.4591 30.8027 30.4223 30.7352L29.9259 29.6438C29.8983 29.5875 29.9351 29.5312 29.981 29.5312L31.075 29.5425C31.1577 29.5425 31.2313 29.5988 31.2772 29.6888L31.7644 30.7577C31.792 30.7914 31.7644 30.859 31.7093 30.859Z" fill="#1C75BC"/>
<path d="M33.318 30.8707L32.1965 30.8594C32.1321 30.8594 32.0678 30.8144 32.031 30.7469L31.5346 29.6555C31.507 29.5992 31.5438 29.543 31.5898 29.543H32.6837C32.7664 29.543 32.84 29.5992 32.886 29.6892L33.3732 30.7582C33.3916 30.8032 33.364 30.8707 33.318 30.8707Z" fill="#1C75BC"/>
<path d="M29.0526 32.4215L27.9311 32.4102C27.8667 32.4102 27.8024 32.3652 27.7656 32.2977L27.2692 31.2063C27.2416 31.15 27.2784 31.0938 27.3244 31.0938L28.4183 31.105C28.501 31.105 28.5746 31.1613 28.6205 31.2513L29.1078 32.3202C29.1353 32.3652 29.0986 32.4215 29.0526 32.4215Z" fill="#1C75BC"/>
<path d="M30.6981 32.4449L29.5766 32.4336C29.5122 32.4336 29.4479 32.3886 29.4111 32.3211L28.9147 31.2297C28.8871 31.1734 28.9239 31.1172 28.9698 31.1172L30.0638 31.1284C30.1465 31.1284 30.2201 31.1847 30.266 31.2747L30.7532 32.3436C30.7716 32.3774 30.744 32.4449 30.6981 32.4449Z" fill="#1C75BC"/>
<path d="M32.3528 32.4566L31.2313 32.4454C31.1669 32.4454 31.1026 32.4004 31.0658 32.3328L30.5694 31.2414C30.5418 31.1852 30.5786 31.1289 30.6245 31.1289L31.7185 31.1402C31.8012 31.1402 31.8747 31.1964 31.9207 31.2864L32.4079 32.3553C32.4263 32.3891 32.3987 32.4566 32.3528 32.4566Z" fill="#1C75BC"/>
<path d="M33.9615 32.4683L32.84 32.4571C32.7756 32.4571 32.7113 32.4121 32.6745 32.3446L32.1781 31.2531C32.1505 31.1969 32.1873 31.1406 32.2333 31.1406L33.3272 31.1519C33.4099 31.1519 33.4835 31.2081 33.5294 31.2982L34.0167 32.3671C34.0442 32.4008 34.0167 32.4683 33.9615 32.4683Z" fill="#1C75BC"/>
<path d="M29.7421 34.0074L28.6205 33.9961C28.5562 33.9961 28.4918 33.9511 28.4551 33.8836L27.9587 32.7922C27.9311 32.7359 27.9678 32.6797 28.0138 32.6797L29.1078 32.6909C29.1905 32.6909 29.264 32.7472 29.31 32.8372L29.7972 33.9061C29.8156 33.9399 29.788 34.0074 29.7421 34.0074Z" fill="#1C75BC"/>
<path d="M31.3783 34.0191L30.2568 34.0079C30.1925 34.0079 30.1281 33.9629 30.0914 33.8953L29.5949 32.8039C29.5674 32.7477 29.6041 32.6914 29.6501 32.6914L30.744 32.7027C30.8268 32.7027 30.9003 32.7589 30.9463 32.8489L31.4335 33.9178C31.4611 33.9629 31.4243 34.0191 31.3783 34.0191Z" fill="#1C75BC"/>
<path d="M33.033 34.0426L31.9115 34.0313C31.8472 34.0313 31.7828 33.9863 31.7461 33.9188L31.2496 32.8274C31.2221 32.7711 31.2588 32.7148 31.3048 32.7148L32.3987 32.7261C32.4815 32.7261 32.555 32.7824 32.601 32.8724L33.0882 33.9413C33.1158 33.975 33.0882 34.0426 33.033 34.0426Z" fill="#1C75BC"/>
<path d="M34.651 34.0543L33.5295 34.043C33.4651 34.043 33.4008 33.998 33.364 33.9305L32.8676 32.8391C32.84 32.7828 32.8768 32.7266 32.9227 32.7266L34.0167 32.7378C34.0994 32.7378 34.173 32.7941 34.2189 32.8841L34.7061 33.953C34.7337 33.9868 34.697 34.0543 34.651 34.0543Z" fill="#1C75BC"/>
<path d="M30.4223 35.5933L29.3008 35.5821C29.2365 35.5821 29.1721 35.5371 29.1353 35.4696L28.6389 34.3781C28.6113 34.3219 28.6481 34.2656 28.6941 34.2656L29.788 34.2769C29.8708 34.2769 29.9443 34.3331 29.9903 34.4231L30.4775 35.4921C30.5051 35.5258 30.4683 35.5933 30.4223 35.5933Z" fill="#1C75BC"/>
<path d="M32.0678 35.605L30.9463 35.5938C30.8819 35.5938 30.8176 35.5488 30.7808 35.4813L30.2844 34.3899C30.2568 34.3336 30.2936 34.2773 30.3396 34.2773L31.4335 34.2886C31.5162 34.2886 31.5898 34.3449 31.6357 34.4349L32.123 35.5038C32.1413 35.5375 32.1138 35.605 32.0678 35.605Z" fill="#1C75BC"/>
<path d="M33.7225 35.6168L32.601 35.6055C32.5367 35.6055 32.4723 35.5605 32.4355 35.493L31.9391 34.4016C31.9115 34.3453 31.9483 34.2891 31.9943 34.2891L33.0882 34.3003C33.171 34.3003 33.2445 34.3566 33.2905 34.4466L33.7777 35.5155C33.8053 35.5605 33.7685 35.6168 33.7225 35.6168Z" fill="#1C75BC"/>
<path d="M35.3404 35.6402L34.2189 35.629C34.1546 35.629 34.0902 35.584 34.0535 35.5164L33.557 34.425C33.5295 34.3688 33.5662 34.3125 33.6122 34.3125L34.7061 34.3238C34.7889 34.3238 34.8624 34.38 34.9084 34.47L35.3956 35.5389C35.414 35.5727 35.3864 35.6402 35.3404 35.6402Z" fill="#1C75BC"/>
<path d="M31.1118 37.1715L29.9903 37.1602C29.9259 37.1602 29.8616 37.1152 29.8248 37.0477L29.3284 35.9563C29.3008 35.9 29.3376 35.8438 29.3835 35.8438L30.4775 35.855C30.5602 35.855 30.6337 35.9113 30.6797 36.0013L31.1669 37.0702C31.1945 37.1152 31.1577 37.1715 31.1118 37.1715Z" fill="#1C75BC"/>
<path d="M32.7481 37.191L31.6265 37.1797C31.5622 37.1797 31.4978 37.1347 31.4611 37.0672L30.9647 35.9758C30.9371 35.9195 30.9739 35.8633 31.0198 35.8633L32.1138 35.8745C32.1965 35.8745 32.27 35.9308 32.316 36.0208L32.8032 37.0897C32.8308 37.1235 32.8032 37.191 32.7481 37.191Z" fill="#1C75BC"/>
<path d="M34.4028 37.2027L33.2812 37.1915C33.2169 37.1915 33.1525 37.1464 33.1158 37.0789L32.6194 35.9875C32.5918 35.9313 32.6286 35.875 32.6745 35.875L33.7685 35.8863C33.8512 35.8863 33.9247 35.9425 33.9707 36.0325L34.4579 37.1014C34.4855 37.1352 34.4579 37.2027 34.4028 37.2027Z" fill="#1C75BC"/>
<path d="M36.0207 37.2144L34.8992 37.2032C34.8348 37.2032 34.7705 37.1582 34.7337 37.0907L34.2373 35.9992C34.2097 35.943 34.2465 35.8867 34.2925 35.8867L35.3864 35.898C35.4691 35.898 35.5427 35.9542 35.5887 36.0442L36.0759 37.1132C36.1034 37.1582 36.0759 37.2144 36.0207 37.2144Z" fill="#1C75BC"/>
<path d="M31.792 38.7574L30.6705 38.7461C30.6062 38.7461 30.5418 38.7011 30.5051 38.6336L30.0086 37.5422C29.9811 37.4859 30.0178 37.4297 30.0638 37.4297L31.1577 37.4409C31.2405 37.4409 31.314 37.4972 31.36 37.5872L31.8472 38.6561C31.8748 38.6899 31.8472 38.7574 31.792 38.7574Z" fill="#1C75BC"/>
<path d="M33.4375 38.7657H32.316C32.2517 38.7657 32.1873 38.7207 32.1505 38.6532L31.6541 37.5617C31.6265 37.5055 31.6633 37.4492 31.7093 37.4492L32.8032 37.4605C32.886 37.4605 32.9595 37.5167 33.0055 37.6067L33.4927 38.6757C33.5203 38.7094 33.4835 38.7657 33.4375 38.7657Z" fill="#1C75BC"/>
<path d="M35.0922 38.7886L33.9707 38.7774C33.9064 38.7774 33.842 38.7324 33.8053 38.6649L33.3088 37.5735C33.2813 37.5172 33.318 37.4609 33.364 37.4609L34.4579 37.4722C34.5407 37.4722 34.6142 37.5284 34.6602 37.6185L35.1474 38.6874C35.175 38.7211 35.1382 38.7886 35.0922 38.7886Z" fill="#1C75BC"/>
<path d="M36.7102 38.8004L35.5886 38.7891C35.5243 38.7891 35.4599 38.7441 35.4232 38.6766L34.9268 37.5852C34.8992 37.5289 34.936 37.4727 34.9819 37.4727L36.0759 37.4839C36.1586 37.4839 36.2321 37.5402 36.2781 37.6302L36.7653 38.6991C36.7929 38.7329 36.7561 38.8004 36.7102 38.8004Z" fill="#1C75BC"/>
<path d="M32.4815 40.3433L31.36 40.3321C31.2956 40.3321 31.2313 40.2871 31.1945 40.2196L30.6981 39.1281C30.6705 39.0719 30.7073 39.0156 30.7533 39.0156L31.8472 39.0269C31.9299 39.0269 32.0035 39.0831 32.0494 39.1732L32.5367 40.2421C32.5642 40.2758 32.5275 40.3433 32.4815 40.3433Z" fill="#1C75BC"/>
<path d="M34.127 40.3551L33.0055 40.3438C32.9411 40.3438 32.8768 40.2988 32.84 40.2313L32.3436 39.1399C32.316 39.0836 32.3528 39.0273 32.3988 39.0273L33.4927 39.0386C33.5754 39.0386 33.649 39.0949 33.6949 39.1849L34.1822 40.2538C34.2005 40.2875 34.173 40.3551 34.127 40.3551Z" fill="#1C75BC"/>
<path d="M35.7817 40.3668L34.6602 40.3555C34.5958 40.3555 34.5315 40.3105 34.4947 40.243L33.9983 39.1516C33.9707 39.0953 34.0075 39.0391 34.0535 39.0391L35.1474 39.0503C35.2301 39.0503 35.3037 39.1066 35.3496 39.1966L35.8369 40.2655C35.8552 40.3105 35.8277 40.3668 35.7817 40.3668Z" fill="#1C75BC"/>
<path d="M37.3996 40.3863L36.2781 40.375C36.2137 40.375 36.1494 40.33 36.1126 40.2625L35.6162 39.1711C35.5886 39.1149 35.6254 39.0586 35.6714 39.0586L36.7653 39.0698C36.848 39.0698 36.9216 39.1261 36.9676 39.2161L37.4548 40.285C37.4732 40.3188 37.4456 40.3863 37.3996 40.3863Z" fill="#1C75BC"/>
<path d="M33.1709 41.9293L32.0494 41.918C31.9851 41.918 31.9207 41.873 31.884 41.8055L31.3876 40.7141C31.36 40.6578 31.3967 40.6016 31.4427 40.6016L32.5366 40.6128C32.6194 40.6128 32.6929 40.6691 32.7389 40.7591L33.2261 41.828C33.2445 41.8618 33.2169 41.9293 33.1709 41.9293Z" fill="#1C75BC"/>
<path d="M34.8072 41.941L33.6857 41.9297C33.6214 41.9297 33.557 41.8847 33.5203 41.8172L33.0238 40.7258C32.9963 40.6695 33.033 40.6133 33.079 40.6133L34.1729 40.6245C34.2557 40.6245 34.3292 40.6808 34.3752 40.7708L34.8624 41.8397C34.89 41.8735 34.8624 41.941 34.8072 41.941Z" fill="#1C75BC"/>
<path d="M36.462 41.9527L35.3404 41.9415C35.2761 41.9415 35.2117 41.8965 35.175 41.8289L34.6786 40.7375C34.651 40.6813 34.6878 40.625 34.7337 40.625L35.8277 40.6363C35.9104 40.6363 35.9839 40.6925 36.0299 40.7825L36.5171 41.8514C36.5447 41.8852 36.5171 41.9527 36.462 41.9527Z" fill="#1C75BC"/>
<path d="M38.0799 41.9644L36.9584 41.9532C36.894 41.9532 36.8297 41.9082 36.7929 41.8407L36.2965 40.7492C36.2689 40.693 36.3057 40.6367 36.3516 40.6367L37.4456 40.648C37.5283 40.648 37.6019 40.7042 37.6478 40.7942L38.135 41.8632C38.1626 41.9082 38.1258 41.9644 38.0799 41.9644Z" fill="#1C75BC"/>
<path d="M33.8512 43.5035L32.7297 43.4922C32.6653 43.4922 32.601 43.4472 32.5642 43.3797L32.0678 42.2883C32.0402 42.232 32.077 42.1758 32.123 42.1758L33.2169 42.187C33.2996 42.187 33.3732 42.2433 33.4192 42.3333L33.9064 43.4022C33.9339 43.4472 33.9064 43.5035 33.8512 43.5035Z" fill="#1C75BC"/>
<path d="M35.4967 43.5269L34.3752 43.5157C34.3109 43.5157 34.2465 43.4707 34.2097 43.4032L33.7133 42.3117C33.6857 42.2555 33.7225 42.1992 33.7685 42.1992L34.8624 42.2105C34.9452 42.2105 35.0187 42.2667 35.0647 42.3567L35.5519 43.4257C35.5795 43.4594 35.5427 43.5269 35.4967 43.5269Z" fill="#1C75BC"/>
<path d="M37.1514 43.5386L36.0299 43.5274C35.9655 43.5274 35.9012 43.4824 35.8644 43.4149L35.368 42.3235C35.3404 42.2672 35.3772 42.2109 35.4232 42.2109L36.5171 42.2222C36.5999 42.2222 36.6734 42.2784 36.7194 42.3685L37.2066 43.4374C37.2342 43.4711 37.1974 43.5386 37.1514 43.5386Z" fill="#1C75BC"/>
<path d="M38.7693 43.5504L37.6478 43.5391C37.5835 43.5391 37.5191 43.4941 37.4824 43.4266L36.9859 42.3352C36.9584 42.2789 36.9951 42.2227 37.0411 42.2227L38.135 42.2339C38.2178 42.2339 38.2913 42.2902 38.3373 42.3802L38.8245 43.4491C38.8521 43.4829 38.8153 43.5504 38.7693 43.5504Z" fill="#1C75BC"/>
<path opacity="0.3" d="M14.9233 33.8754L34.3752 43.507L38.8061 43.5407C38.8888 43.5407 38.9072 43.4057 38.8337 43.3719L13.2778 30.0273L14.9233 33.8754Z" fill="white"/>
<path opacity="0.3" d="M16.6239 29.4062L37.7489 40.9055L36.5539 38.3289L19.1336 29.4288L16.4401 29.4062" fill="white"/>
<path d="M39.707 43.8328C39.707 43.8328 39.6978 43.8553 39.6794 43.889C39.661 43.9228 39.6334 43.9791 39.6059 44.0578C39.5323 44.2041 39.4312 44.4291 39.2841 44.7329C37.133 44.7329 30.3763 44.7554 22.3786 44.7667C20.8986 44.7667 19.4737 44.7667 18.1224 44.7667H18.104L18.0948 44.7554C16.339 40.5248 14.813 36.8342 13.7282 34.2125C13.1859 32.8961 12.7538 31.8497 12.4596 31.1296C12.3125 30.7695 12.2022 30.4882 12.1195 30.3082C12.0827 30.2182 12.0551 30.1394 12.0368 30.0944C12.0184 30.0494 12.0092 30.0156 12.0092 30.0156C12.0092 30.0156 12.0184 30.0381 12.0368 30.0831C12.0551 30.1281 12.0919 30.2069 12.1287 30.2969C12.2114 30.4882 12.3217 30.7582 12.478 31.1183C12.7814 31.8384 13.2134 32.8848 13.765 34.19C14.8589 36.8117 16.3849 40.491 18.15 44.7217L18.1316 44.7104C19.4829 44.7104 20.917 44.7104 22.3878 44.7104C30.3855 44.7104 37.1422 44.7104 39.2933 44.7217H39.2841C39.4312 44.4179 39.5415 44.1928 39.615 44.0466C39.6518 43.9791 39.6794 43.9228 39.6978 43.8778C39.6978 43.8553 39.707 43.8328 39.707 43.8328Z" fill="#004B75"/>
<path d="M18.1132 44.7561C18.104 44.7448 18.1775 44.5423 18.2786 44.2947C18.3798 44.0472 18.4809 43.8447 18.4901 43.8559C18.4993 43.8672 18.4257 44.0697 18.3246 44.3172C18.2235 44.5648 18.1316 44.7561 18.1132 44.7561Z" fill="#004B75"/>
<path d="M17.8926 15.1406L16.4769 28.9015H17.4513L18.8854 16.1758L17.8926 15.1406Z" fill="#E0E0E0"/>
<path d="M16.4769 12.8008L16.1735 13.9485L22.3786 28.6208L43.5404 28.4182L43.9632 27.5181L34.3384 22.5898L16.4769 12.8008Z" fill="#E0E0E0"/>
<path d="M16.4769 12.8008L22.7464 27.7206L43.9633 27.5181L37.2893 12.8008H16.4769Z" fill="#F5F5F5"/>
<path d="M16.4769 12.7998C16.6699 12.7998 25.0354 12.7886 37.2893 12.7773H37.2985L37.3077 12.7886C39.3485 17.2893 41.6099 22.2626 43.9816 27.5059L44 27.5509H43.9633C43.9081 27.5509 43.8437 27.5509 43.7886 27.5509C35.8368 27.6184 28.5194 27.6859 22.7464 27.7422H22.7372L22.728 27.7309C18.913 18.6283 16.5504 12.9686 16.4769 12.7998C16.5504 12.9686 18.9314 18.617 22.7647 27.7084L22.7464 27.6972C28.5102 27.6409 35.8368 27.5734 43.7886 27.4946C43.8529 27.4946 43.9081 27.4946 43.9633 27.4946L43.9449 27.5396C41.5731 22.2963 39.3117 17.3231 37.2709 12.8224L37.2893 12.8336C25.0354 12.8111 16.6791 12.7998 16.4769 12.7998Z" fill="#004B75"/>
<path d="M19.0509 14.6133H17.9294C17.865 14.6133 17.8007 14.5683 17.7639 14.5008L17.2583 13.4094C17.2307 13.3531 17.2675 13.2969 17.3134 13.2969H18.4074C18.4901 13.2969 18.5637 13.3531 18.6096 13.4431L19.106 14.5008C19.1336 14.5458 19.106 14.6133 19.0509 14.6133Z" fill="#1C75BC"/>
<path d="M20.7331 14.6133H19.6116C19.5473 14.6133 19.4829 14.5683 19.4462 14.5008L18.9406 13.4094C18.913 13.3531 18.9498 13.2969 18.9957 13.2969H20.0897C20.1724 13.2969 20.2459 13.3531 20.2919 13.4431L20.7883 14.5008C20.8159 14.5458 20.7791 14.6133 20.7331 14.6133Z" fill="#1C75BC"/>
<path d="M22.3419 14.6133H21.2204C21.156 14.6133 21.0917 14.5683 21.0549 14.5008L20.5493 13.4094C20.5217 13.3531 20.5585 13.2969 20.6045 13.2969H21.6984C21.7811 13.2969 21.8547 13.3531 21.9006 13.4431L22.397 14.5008C22.4154 14.5458 22.3878 14.6133 22.3419 14.6133Z" fill="#1C75BC"/>
<path d="M23.9414 14.6133H22.8199C22.7555 14.6133 22.6912 14.5683 22.6544 14.5008L22.1488 13.4094C22.1212 13.3531 22.158 13.2969 22.204 13.2969H23.3071C23.3898 13.2969 23.4634 13.3531 23.5093 13.4431L24.0058 14.5008C24.0241 14.5458 23.9874 14.6133 23.9414 14.6133Z" fill="#1C75BC"/>
<path d="M19.6852 16.211H18.5637C18.4993 16.211 18.435 16.166 18.3982 16.0985L17.8926 15.007C17.865 14.9508 17.9018 14.8945 17.9477 14.8945H19.0417C19.1244 14.8945 19.198 14.9508 19.2439 15.0408L19.7403 16.0985C19.7679 16.1435 19.7403 16.211 19.6852 16.211Z" fill="#1C75BC"/>
<path d="M21.3307 16.211H20.2092C20.1448 16.211 20.0805 16.166 20.0437 16.0985L19.5381 15.007C19.5105 14.9508 19.5473 14.8945 19.5933 14.8945H20.6872C20.7699 14.8945 20.8435 14.9508 20.8894 15.0408L21.3858 16.0985C21.4134 16.1435 21.3766 16.211 21.3307 16.211Z" fill="#1C75BC"/>
<path d="M22.9854 16.211H21.8639C21.7995 16.211 21.7352 16.166 21.6984 16.0985L21.1928 15.007C21.1652 14.9508 21.202 14.8945 21.2479 14.8945H22.3419C22.4246 14.8945 22.4982 14.9508 22.5441 15.0408L23.0405 16.0985C23.0681 16.1435 23.0313 16.211 22.9854 16.211Z" fill="#1C75BC"/>
<path d="M24.6033 16.211H23.4818C23.4174 16.211 23.3531 16.166 23.3163 16.0985L22.8107 15.007C22.7831 14.9508 22.8199 14.8945 22.8659 14.8945H23.9598C24.0425 14.8945 24.1161 14.9508 24.162 15.0408L24.6585 16.0985C24.686 16.1435 24.6493 16.211 24.6033 16.211Z" fill="#1C75BC"/>
<path d="M20.3838 17.7852H19.2623C19.1979 17.7852 19.1336 17.7402 19.0968 17.6727L18.5912 16.5813C18.5636 16.525 18.6004 16.4688 18.6464 16.4688H19.7403C19.8231 16.4688 19.8966 16.525 19.9426 16.615L20.439 17.6727C20.4665 17.7177 20.4298 17.7852 20.3838 17.7852Z" fill="#1C75BC"/>
<path d="M22.0293 17.7852H20.9078C20.8435 17.7852 20.7791 17.7402 20.7423 17.6727L20.2367 16.5813C20.2092 16.525 20.2459 16.4688 20.2919 16.4688H21.3858C21.4686 16.4688 21.5421 16.525 21.5881 16.615L22.0845 17.6727C22.1029 17.7177 22.0753 17.7852 22.0293 17.7852Z" fill="#1C75BC"/>
<path d="M23.684 17.7852H22.5625C22.4981 17.7852 22.4338 17.7402 22.397 17.6727L21.8914 16.5813C21.8638 16.525 21.9006 16.4688 21.9466 16.4688H23.0405C23.1233 16.4688 23.1968 16.525 23.2428 16.615L23.7392 17.6727C23.7576 17.7177 23.73 17.7852 23.684 17.7852Z" fill="#1C75BC"/>
<path d="M25.2928 17.7852H24.1712C24.1069 17.7852 24.0425 17.7402 24.0058 17.6727L23.5002 16.5813C23.4726 16.525 23.5094 16.4688 23.5553 16.4688H24.6493C24.732 16.4688 24.8055 16.525 24.8515 16.615L25.3479 17.6727C25.3755 17.7177 25.3479 17.7852 25.2928 17.7852Z" fill="#1C75BC"/>
<path d="M21.0825 19.3633H19.9609C19.8966 19.3633 19.8322 19.3183 19.7955 19.2508L19.2899 18.1594C19.2623 18.1031 19.2991 18.0469 19.345 18.0469H20.439C20.5217 18.0469 20.5952 18.1031 20.6412 18.1931L21.1376 19.2508C21.156 19.2958 21.1284 19.3633 21.0825 19.3633Z" fill="#1C75BC"/>
<path d="M22.7188 19.3633H21.5973C21.5329 19.3633 21.4686 19.3183 21.4318 19.2508L20.9262 18.1594C20.8986 18.1031 20.9354 18.0469 20.9813 18.0469H22.0753C22.158 18.0469 22.2316 18.1031 22.2775 18.1931L22.7739 19.2508C22.8015 19.2958 22.7739 19.3633 22.7188 19.3633Z" fill="#1C75BC"/>
<path d="M24.3735 19.3633H23.252C23.1876 19.3633 23.1233 19.3183 23.0865 19.2508L22.5809 18.1594C22.5533 18.1031 22.5901 18.0469 22.636 18.0469H23.73C23.8127 18.0469 23.8863 18.1031 23.9322 18.1931L24.4286 19.2508C24.4562 19.2958 24.4286 19.3633 24.3735 19.3633Z" fill="#1C75BC"/>
<path d="M25.9914 19.3633H24.8699C24.8055 19.3633 24.7412 19.3183 24.7044 19.2508L24.1988 18.1594C24.1712 18.1031 24.208 18.0469 24.254 18.0469H25.3479C25.4306 18.0469 25.5042 18.1031 25.5501 18.1931L26.0465 19.2508C26.0741 19.2958 26.0374 19.3633 25.9914 19.3633Z" fill="#1C75BC"/>
<path d="M21.7719 20.9375H20.6504C20.5861 20.9375 20.5217 20.8925 20.485 20.825L19.9793 19.7336C19.9518 19.6774 19.9885 19.6211 20.0345 19.6211H21.1284C21.2112 19.6211 21.2847 19.6774 21.3307 19.7674L21.8271 20.825C21.8547 20.87 21.8271 20.9375 21.7719 20.9375Z" fill="#1C75BC"/>
<path d="M23.4174 20.9375H22.2959C22.2315 20.9375 22.1672 20.8925 22.1304 20.825L21.6248 19.7336C21.5972 19.6774 21.634 19.6211 21.68 19.6211H22.7739C22.8567 19.6211 22.9302 19.6774 22.9762 19.7674L23.4726 20.825C23.491 20.87 23.4634 20.9375 23.4174 20.9375Z" fill="#1C75BC"/>
<path d="M25.0721 20.9375H23.9506C23.8863 20.9375 23.8219 20.8925 23.7852 20.825L23.2795 19.7336C23.252 19.6774 23.2887 19.6211 23.3347 19.6211H24.4286C24.5114 19.6211 24.5849 19.6774 24.6309 19.7674L25.1273 20.825C25.1549 20.87 25.1181 20.9375 25.0721 20.9375Z" fill="#1C75BC"/>
<path d="M26.6901 20.9375H25.5685C25.5042 20.9375 25.4398 20.8925 25.4031 20.825L24.8975 19.7336C24.8699 19.6774 24.9067 19.6211 24.9526 19.6211H26.0466C26.1293 19.6211 26.2028 19.6774 26.2488 19.7674L26.7452 20.825C26.7636 20.87 26.736 20.9375 26.6901 20.9375Z" fill="#1C75BC"/>
<path d="M22.4706 22.5118H21.3491C21.2847 22.5118 21.2204 22.4668 21.1836 22.3993L20.678 21.3078C20.6504 21.2516 20.6872 21.1953 20.7331 21.1953H21.8363C21.919 21.1953 21.9926 21.2516 22.0385 21.3416L22.5349 22.3993C22.5441 22.4555 22.5165 22.5118 22.4706 22.5118Z" fill="#1C75BC"/>
<path d="M24.1069 22.5118H22.9854C22.921 22.5118 22.8567 22.4668 22.8199 22.3993L22.3143 21.3078C22.2867 21.2516 22.3235 21.1953 22.3695 21.1953H23.4634C23.5461 21.1953 23.6197 21.2516 23.6656 21.3416L24.1621 22.3993C24.1896 22.4555 24.1621 22.5118 24.1069 22.5118Z" fill="#1C75BC"/>
<path d="M25.7616 22.5118H24.6401C24.5757 22.5118 24.5114 22.4668 24.4746 22.3993L23.969 21.3078C23.9414 21.2516 23.9782 21.1953 24.0242 21.1953H25.1181C25.2008 21.1953 25.2744 21.2516 25.3203 21.3416L25.8167 22.3993C25.8443 22.4555 25.8167 22.5118 25.7616 22.5118Z" fill="#1C75BC"/>
<path d="M27.3795 22.5118H26.258C26.1936 22.5118 26.1293 22.4668 26.0925 22.3993L25.5869 21.3078C25.5593 21.2516 25.5961 21.1953 25.6421 21.1953H26.736C26.8188 21.1953 26.8923 21.2516 26.9383 21.3416L27.4347 22.3993C27.4622 22.4555 27.4347 22.5118 27.3795 22.5118Z" fill="#1C75BC"/>
<path d="M23.16 24.086H22.0385C21.9742 24.086 21.9098 24.041 21.873 23.9735L21.3674 22.882C21.3399 22.8258 21.3766 22.7695 21.4226 22.7695H22.5165C22.5993 22.7695 22.6728 22.8258 22.7188 22.9158L23.2152 23.9735C23.2428 24.0297 23.2152 24.086 23.16 24.086Z" fill="#1C75BC"/>
<path d="M24.8055 24.086H23.684C23.6197 24.086 23.5553 24.041 23.5185 23.9735L23.0129 22.882C22.9854 22.8258 23.0221 22.7695 23.0681 22.7695H24.162C24.2448 22.7695 24.3183 22.8258 24.3643 22.9158L24.8607 23.9735C24.8883 24.0297 24.8515 24.086 24.8055 24.086Z" fill="#1C75BC"/>
<path d="M26.4602 24.086H25.3387C25.2744 24.086 25.21 24.041 25.1732 23.9735L24.6676 22.882C24.6401 22.8258 24.6768 22.7695 24.7228 22.7695H25.8167C25.8995 22.7695 25.973 22.8258 26.019 22.9158L26.5154 23.9735C26.543 24.0297 26.5062 24.086 26.4602 24.086Z" fill="#1C75BC"/>
<path d="M28.0781 24.086H26.9566C26.8923 24.086 26.8279 24.041 26.7912 23.9735L26.2856 22.882C26.258 22.8258 26.2948 22.7695 26.3407 22.7695H27.4438C27.5266 22.7695 27.6001 22.8258 27.6461 22.9158L28.1425 23.9735C28.1609 24.0297 28.1241 24.086 28.0781 24.086Z" fill="#1C75BC"/>
<path d="M23.8587 25.6719H22.7372C22.6728 25.6719 22.6085 25.6269 22.5717 25.5594L22.0661 24.468C22.0385 24.4117 22.0753 24.3555 22.1212 24.3555H23.2152C23.2979 24.3555 23.3715 24.4117 23.4174 24.5017L23.9138 25.5594C23.9414 25.6044 23.9046 25.6719 23.8587 25.6719Z" fill="#1C75BC"/>
<path d="M25.5042 25.6719H24.3827C24.3183 25.6719 24.254 25.6269 24.2172 25.5594L23.7116 24.468C23.684 24.4117 23.7208 24.3555 23.7667 24.3555H24.8699C24.9526 24.3555 25.0262 24.4117 25.0721 24.5017L25.5685 25.5594C25.5777 25.6044 25.5501 25.6719 25.5042 25.6719Z" fill="#1C75BC"/>
<path d="M27.1589 25.6719H26.0374C25.973 25.6719 25.9087 25.6269 25.8719 25.5594L25.3663 24.468C25.3387 24.4117 25.3755 24.3555 25.4214 24.3555H26.5246C26.6073 24.3555 26.6808 24.4117 26.7268 24.5017L27.2232 25.5594C27.2324 25.6044 27.2048 25.6719 27.1589 25.6719Z" fill="#1C75BC"/>
<path d="M28.7768 25.6719H27.6553C27.591 25.6719 27.5266 25.6269 27.4898 25.5594L26.9842 24.468C26.9567 24.4117 26.9934 24.3555 27.0394 24.3555H28.1333C28.2161 24.3555 28.2896 24.4117 28.3356 24.5017L28.832 25.5594C28.8504 25.6044 28.8228 25.6719 28.7768 25.6719Z" fill="#1C75BC"/>
<path d="M24.5573 27.25H23.4358C23.3715 27.25 23.3071 27.205 23.2704 27.1375L22.7647 26.0461C22.7372 25.9899 22.7739 25.9336 22.8199 25.9336H23.9138C23.9966 25.9336 24.0701 25.9899 24.1161 26.0799L24.6125 27.1375C24.6309 27.1825 24.6033 27.25 24.5573 27.25Z" fill="#1C75BC"/>
<path d="M26.1936 27.25H25.0721C25.0078 27.25 24.9434 27.205 24.9066 27.1375L24.401 26.0461C24.3735 25.9899 24.4102 25.9336 24.4562 25.9336H25.5501C25.6329 25.9336 25.7064 25.9899 25.7524 26.0799L26.2488 27.1375C26.2764 27.1825 26.2488 27.25 26.1936 27.25Z" fill="#1C75BC"/>
<path d="M27.8484 27.25H26.7268C26.6625 27.25 26.5981 27.205 26.5614 27.1375L26.0558 26.0461C26.0282 25.9899 26.065 25.9336 26.1109 25.9336H27.2049C27.2876 25.9336 27.3611 25.9899 27.4071 26.0799L27.9035 27.1375C27.9311 27.1825 27.9035 27.25 27.8484 27.25Z" fill="#1C75BC"/>
<path d="M29.4663 27.25H28.3448C28.2804 27.25 28.2161 27.205 28.1793 27.1375L27.6737 26.0461C27.6461 25.9899 27.6829 25.9336 27.7288 25.9336H28.8228C28.9055 25.9336 28.9791 25.9899 29.025 26.0799L29.5214 27.1375C29.549 27.1825 29.5214 27.25 29.4663 27.25Z" fill="#1C75BC"/>
<path d="M25.8351 14.6133H24.7136C24.6492 14.6133 24.5849 14.5683 24.5481 14.5008L24.0425 13.4094C24.0149 13.3531 24.0517 13.2969 24.0977 13.2969H25.1916C25.2743 13.2969 25.3479 13.3531 25.3939 13.4431L25.8903 14.5008C25.9087 14.5458 25.8811 14.6133 25.8351 14.6133Z" fill="#1C75BC"/>
<path d="M27.5082 14.6133H26.3867C26.3223 14.6133 26.258 14.5683 26.2212 14.5008L25.7156 13.4094C25.688 13.3531 25.7248 13.2969 25.7708 13.2969H26.8647C26.9474 13.2969 27.021 13.3531 27.067 13.4431L27.5634 14.5008C27.5909 14.5458 27.5542 14.6133 27.5082 14.6133Z" fill="#1C75BC"/>
<path d="M29.1169 14.6133H27.9954C27.9311 14.6133 27.8667 14.5683 27.83 14.5008L27.3243 13.4094C27.2968 13.3531 27.3335 13.2969 27.3795 13.2969H28.4734C28.5562 13.2969 28.6297 13.3531 28.6757 13.4431L29.1721 14.5008C29.1997 14.5458 29.1629 14.6133 29.1169 14.6133Z" fill="#1C75BC"/>
<path d="M30.7165 14.6133H29.5949C29.5306 14.6133 29.4662 14.5683 29.4295 14.5008L28.9239 13.4094C28.8963 13.3531 28.9331 13.2969 28.979 13.2969H30.073C30.1557 13.2969 30.2292 13.3531 30.2752 13.4431L30.7716 14.5008C30.7992 14.5458 30.7624 14.6133 30.7165 14.6133Z" fill="#1C75BC"/>
<path d="M26.4602 16.211H25.3387C25.2744 16.211 25.21 16.166 25.1732 16.0985L24.6676 15.007C24.6401 14.9508 24.6768 14.8945 24.7228 14.8945H25.8167C25.8995 14.8945 25.973 14.9508 26.019 15.0408L26.5154 16.0985C26.543 16.1435 26.5154 16.211 26.4602 16.211Z" fill="#1C75BC"/>
<path d="M28.1057 16.211H26.9842C26.9198 16.211 26.8555 16.166 26.8187 16.0985L26.3131 15.007C26.2855 14.9508 26.3223 14.8945 26.3683 14.8945H27.4622C27.5449 14.8945 27.6185 14.9508 27.6645 15.0408L28.1609 16.0985C28.1884 16.1435 28.1517 16.211 28.1057 16.211Z" fill="#1C75BC"/>
<path d="M29.7604 16.211H28.6389C28.5746 16.211 28.5102 16.166 28.4734 16.0985L27.9678 15.007C27.9403 14.9508 27.977 14.8945 28.023 14.8945H29.1169C29.1997 14.8945 29.2732 14.9508 29.3192 15.0408L29.8156 16.0985C29.8432 16.1435 29.8064 16.211 29.7604 16.211Z" fill="#1C75BC"/>
<path d="M31.3784 16.211H30.2568C30.1925 16.211 30.1281 16.166 30.0914 16.0985L29.5858 15.007C29.5582 14.9508 29.595 14.8945 29.6409 14.8945H30.7349C30.8176 14.8945 30.8911 14.9508 30.9371 15.0408L31.4335 16.0985C31.4611 16.1435 31.4243 16.211 31.3784 16.211Z" fill="#1C75BC"/>
<path d="M27.1589 17.7852H26.0374C25.973 17.7852 25.9087 17.7402 25.8719 17.6727L25.3663 16.5813C25.3387 16.525 25.3755 16.4688 25.4214 16.4688H26.5246C26.6073 16.4688 26.6808 16.525 26.7268 16.615L27.2232 17.6727C27.2416 17.7177 27.2048 17.7852 27.1589 17.7852Z" fill="#1C75BC"/>
<path d="M28.8044 17.7852H27.6829C27.6185 17.7852 27.5542 17.7402 27.5174 17.6727L27.0118 16.5813C26.9842 16.525 27.021 16.4688 27.0669 16.4688H28.1609C28.2436 16.4688 28.3172 16.525 28.3631 16.615L28.8595 17.6727C28.8779 17.7177 28.8503 17.7852 28.8044 17.7852Z" fill="#1C75BC"/>
<path d="M30.4591 17.7852H29.3376C29.2732 17.7852 29.2089 17.7402 29.1721 17.6727L28.6665 16.5813C28.6389 16.525 28.6757 16.4688 28.7216 16.4688H29.8156C29.8983 16.4688 29.9719 16.525 30.0178 16.615L30.5142 17.6727C30.5326 17.7177 30.505 17.7852 30.4591 17.7852Z" fill="#1C75BC"/>
<path d="M32.077 17.7852H30.9555C30.8911 17.7852 30.8268 17.7402 30.79 17.6727L30.2844 16.5813C30.2568 16.525 30.2936 16.4688 30.3396 16.4688H31.4335C31.5162 16.4688 31.5898 16.525 31.6357 16.615L32.1321 17.6727C32.1505 17.7177 32.123 17.7852 32.077 17.7852Z" fill="#1C75BC"/>
<path d="M27.8575 19.3633H26.736C26.6716 19.3633 26.6073 19.3183 26.5705 19.2508L26.0649 18.1594C26.0373 18.1031 26.0741 18.0469 26.1201 18.0469H27.214C27.2967 18.0469 27.3703 18.1031 27.4163 18.1931L27.9127 19.2508C27.9311 19.2958 27.9035 19.3633 27.8575 19.3633Z" fill="#1C75BC"/>
<path d="M29.4938 19.3633H28.3723C28.308 19.3633 28.2436 19.3183 28.2068 19.2508L27.7012 18.1594C27.6737 18.1031 27.7104 18.0469 27.7564 18.0469H28.8503C28.9331 18.0469 29.0066 18.1031 29.0526 18.1931L29.549 19.2508C29.5766 19.2958 29.549 19.3633 29.4938 19.3633Z" fill="#1C75BC"/>
<path d="M31.1485 19.3633H30.027C29.9627 19.3633 29.8983 19.3183 29.8615 19.2508L29.3559 18.1594C29.3284 18.1031 29.3651 18.0469 29.4111 18.0469H30.505C30.5878 18.0469 30.6613 18.1031 30.7073 18.1931L31.2037 19.2508C31.2313 19.2958 31.2037 19.3633 31.1485 19.3633Z" fill="#1C75BC"/>
<path d="M32.7664 19.3633H31.6449C31.5806 19.3633 31.5162 19.3183 31.4795 19.2508L30.9739 18.1594C30.9463 18.1031 30.983 18.0469 31.029 18.0469H32.1321C32.2149 18.0469 32.2884 18.1031 32.3344 18.1931L32.8308 19.2508C32.8492 19.2958 32.8216 19.3633 32.7664 19.3633Z" fill="#1C75BC"/>
<path d="M28.547 20.9375H27.4254C27.3611 20.9375 27.2967 20.8925 27.26 20.825L26.7544 19.7336C26.7268 19.6774 26.7636 19.6211 26.8095 19.6211H27.9035C27.9862 19.6211 28.0597 19.6774 28.1057 19.7674L28.6021 20.825C28.6297 20.87 28.6021 20.9375 28.547 20.9375Z" fill="#1C75BC"/>
<path d="M30.1925 20.9375H29.071C29.0066 20.9375 28.9423 20.8925 28.9055 20.825L28.3999 19.7336C28.3723 19.6774 28.4091 19.6211 28.455 19.6211H29.5582C29.6409 19.6211 29.7144 19.6774 29.7604 19.7674L30.2568 20.825C30.2752 20.87 30.2384 20.9375 30.1925 20.9375Z" fill="#1C75BC"/>
<path d="M31.8472 20.9375H30.7256C30.6613 20.9375 30.5969 20.8925 30.5602 20.825L30.0546 19.7336C30.027 19.6774 30.0638 19.6211 30.1097 19.6211H31.2129C31.2956 19.6211 31.3691 19.6774 31.4151 19.7674L31.9115 20.825C31.9299 20.87 31.8931 20.9375 31.8472 20.9375Z" fill="#1C75BC"/>
<path d="M33.4651 20.9375H32.3436C32.2792 20.9375 32.2149 20.8925 32.1781 20.825L31.6725 19.7336C31.6449 19.6774 31.6817 19.6211 31.7277 19.6211H32.8216C32.9044 19.6211 32.9779 19.6774 33.0239 19.7674L33.5203 20.825C33.5478 20.87 33.5111 20.9375 33.4651 20.9375Z" fill="#1C75BC"/>
<path d="M29.2456 22.5118H28.1241C28.0598 22.5118 27.9954 22.4668 27.9586 22.3993L27.453 21.3078C27.4255 21.2516 27.4622 21.1953 27.5082 21.1953H28.6021C28.6849 21.1953 28.7584 21.2516 28.8044 21.3416L29.3008 22.3993C29.3284 22.4555 29.2916 22.5118 29.2456 22.5118Z" fill="#1C75BC"/>
<path d="M30.8911 22.5118H29.7696C29.7053 22.5118 29.6409 22.4668 29.6042 22.3993L29.0985 21.3078C29.071 21.2516 29.1077 21.1953 29.1537 21.1953H30.2476C30.3304 21.1953 30.4039 21.2516 30.4499 21.3416L30.9463 22.3993C30.9647 22.4555 30.9371 22.5118 30.8911 22.5118Z" fill="#1C75BC"/>
<path d="M32.5458 22.5118H31.4243C31.36 22.5118 31.2956 22.4668 31.2588 22.3993L30.7532 21.3078C30.7257 21.2516 30.7624 21.1953 30.8084 21.1953H31.9023C31.9851 21.1953 32.0586 21.2516 32.1046 21.3416L32.601 22.3993C32.6194 22.4555 32.5918 22.5118 32.5458 22.5118Z" fill="#1C75BC"/>
<path d="M34.1546 22.5118H33.033C32.9687 22.5118 32.9044 22.4668 32.8676 22.3993L32.362 21.3078C32.3344 21.2516 32.3712 21.1953 32.4171 21.1953H33.5111C33.5938 21.1953 33.6673 21.2516 33.7133 21.3416L34.2097 22.3993C34.2373 22.4555 34.2097 22.5118 34.1546 22.5118Z" fill="#1C75BC"/>
<path d="M29.9443 24.086H28.8228C28.7584 24.086 28.6941 24.041 28.6573 23.9735L28.1517 22.882C28.1241 22.8258 28.1609 22.7695 28.2068 22.7695H29.3008C29.3835 22.7695 29.4571 22.8258 29.503 22.9158L29.9994 23.9735C30.0178 24.0297 29.9902 24.086 29.9443 24.086Z" fill="#1C75BC"/>
<path d="M31.5806 24.086H30.4591C30.3947 24.086 30.3304 24.041 30.2936 23.9735L29.788 22.882C29.7604 22.8258 29.7972 22.7695 29.8432 22.7695H30.9371C31.0198 22.7695 31.0934 22.8258 31.1393 22.9158L31.6357 23.9735C31.6633 24.0297 31.6357 24.086 31.5806 24.086Z" fill="#1C75BC"/>
<path d="M33.2353 24.086H32.1138C32.0494 24.086 31.9851 24.041 31.9483 23.9735L31.4427 22.882C31.4151 22.8258 31.4519 22.7695 31.4979 22.7695H32.5918C32.6745 22.7695 32.7481 22.8258 32.794 22.9158L33.2904 23.9735C33.318 24.0297 33.2904 24.086 33.2353 24.086Z" fill="#1C75BC"/>
<path d="M34.8532 24.086H33.7317C33.6673 24.086 33.603 24.041 33.5662 23.9735L33.0606 22.882C33.033 22.8258 33.0698 22.7695 33.1158 22.7695H34.2097C34.2924 22.7695 34.366 22.8258 34.412 22.9158L34.9084 23.9735C34.9359 24.0297 34.8992 24.086 34.8532 24.086Z" fill="#1C75BC"/>
<path d="M30.6337 25.6719H29.5122C29.4479 25.6719 29.3835 25.6269 29.3467 25.5594L28.8411 24.468C28.8136 24.4117 28.8503 24.3555 28.8963 24.3555H29.9902C30.073 24.3555 30.1465 24.4117 30.1925 24.5017L30.6889 25.5594C30.7165 25.6044 30.6889 25.6719 30.6337 25.6719Z" fill="#1C75BC"/>
<path d="M32.2792 25.6719H31.1577C31.0934 25.6719 31.029 25.6269 30.9922 25.5594L30.4866 24.468C30.4591 24.4117 30.4958 24.3555 30.5418 24.3555H31.6357C31.7185 24.3555 31.792 24.4117 31.838 24.5017L32.3344 25.5594C32.3528 25.6044 32.3252 25.6719 32.2792 25.6719Z" fill="#1C75BC"/>
<path d="M33.9339 25.6719H32.8124C32.7481 25.6719 32.6837 25.6269 32.6469 25.5594L32.1413 24.468C32.1138 24.4117 32.1505 24.3555 32.1965 24.3555H33.2904C33.3732 24.3555 33.4467 24.4117 33.4927 24.5017L33.9891 25.5594C34.0167 25.6044 33.9799 25.6719 33.9339 25.6719Z" fill="#1C75BC"/>
<path d="M35.5518 25.6719H34.4303C34.366 25.6719 34.3016 25.6269 34.2649 25.5594L33.7593 24.468C33.7317 24.4117 33.7684 24.3555 33.8144 24.3555H34.9084C34.9911 24.3555 35.0646 24.4117 35.1106 24.5017L35.607 25.5594C35.6254 25.6044 35.5978 25.6719 35.5518 25.6719Z" fill="#1C75BC"/>
<path d="M31.3324 27.25H30.2109C30.1465 27.25 30.0822 27.205 30.0454 27.1375L29.5398 26.0461C29.5122 25.9899 29.549 25.9336 29.595 25.9336H30.6889C30.7716 25.9336 30.8452 25.9899 30.8911 26.0799L31.3875 27.1375C31.4059 27.1825 31.3784 27.25 31.3324 27.25Z" fill="#1C75BC"/>
<path d="M32.9687 27.25H31.8472C31.7828 27.25 31.7185 27.205 31.6817 27.1375L31.1761 26.0461C31.1485 25.9899 31.1853 25.9336 31.2313 25.9336H32.3252C32.4079 25.9336 32.4815 25.9899 32.5274 26.0799L33.0238 27.1375C33.0514 27.1825 33.0238 27.25 32.9687 27.25Z" fill="#1C75BC"/>
<path d="M34.6234 27.25H33.5019C33.4375 27.25 33.3732 27.205 33.3364 27.1375L32.8308 26.0461C32.8032 25.9899 32.84 25.9336 32.8859 25.9336H33.9799C34.0626 25.9336 34.1362 25.9899 34.1821 26.0799L34.6785 27.1375C34.7061 27.1825 34.6785 27.25 34.6234 27.25Z" fill="#1C75BC"/>
<path d="M36.2413 27.25H35.1198C35.0555 27.25 34.9911 27.205 34.9543 27.1375L34.4487 26.0461C34.4212 25.9899 34.4579 25.9336 34.5039 25.9336H35.5978C35.6806 25.9336 35.7541 25.9899 35.8001 26.0799L36.2965 27.1375C36.3241 27.1825 36.2965 27.25 36.2413 27.25Z" fill="#1C75BC"/>
<path d="M32.6102 14.6133H31.4887C31.4243 14.6133 31.36 14.5683 31.3232 14.5008L30.8176 13.4094C30.79 13.3531 30.8268 13.2969 30.8728 13.2969H31.9667C32.0494 13.2969 32.123 13.3531 32.1689 13.4431L32.6654 14.5008C32.6837 14.5458 32.6562 14.6133 32.6102 14.6133Z" fill="#1C75BC"/>
<path d="M34.2833 14.6133H33.1618C33.0974 14.6133 33.0331 14.5683 32.9963 14.5008L32.4999 13.4094C32.4723 13.3531 32.5091 13.2969 32.555 13.2969H33.649C33.7317 13.2969 33.8053 13.3531 33.8512 13.4431L34.3476 14.5008C34.366 14.5458 34.3292 14.6133 34.2833 14.6133Z" fill="#1C75BC"/>
<path d="M35.892 14.6133H34.7705C34.7061 14.6133 34.6418 14.5683 34.605 14.5008L34.0994 13.4094C34.0718 13.3531 34.1086 13.2969 34.1546 13.2969H35.2577C35.3404 13.2969 35.414 13.3531 35.4599 13.4431L35.9563 14.5008C35.9747 14.5458 35.938 14.6133 35.892 14.6133Z" fill="#1C75BC"/>
<path d="M37.4915 14.6133H36.37C36.3057 14.6133 36.2413 14.5683 36.2046 14.5008L35.699 13.4094C35.6714 13.3531 35.7081 13.2969 35.7541 13.2969H36.848C36.9308 13.2969 37.0043 13.3531 37.0503 13.4431L37.5467 14.5008C37.5743 14.5458 37.5375 14.6133 37.4915 14.6133Z" fill="#1C75BC"/>
<path d="M33.2445 16.211H32.123C32.0586 16.211 31.9943 16.166 31.9575 16.0985L31.4519 15.007C31.4243 14.9508 31.4611 14.8945 31.5071 14.8945H32.601C32.6837 14.8945 32.7573 14.9508 32.8032 15.0408L33.2997 16.0985C33.318 16.1435 33.2905 16.211 33.2445 16.211Z" fill="#1C75BC"/>
<path d="M34.8808 16.211H33.7593C33.6949 16.211 33.6306 16.166 33.5938 16.0985L33.0882 15.007C33.0606 14.9508 33.0974 14.8945 33.1434 14.8945H34.2465C34.3292 14.8945 34.4028 14.9508 34.4487 15.0408L34.9451 16.0985C34.9635 16.1435 34.9268 16.211 34.8808 16.211Z" fill="#1C75BC"/>
<path d="M36.5355 16.211H35.414C35.3496 16.211 35.2853 16.166 35.2485 16.0985L34.7429 15.007C34.7153 14.9508 34.7521 14.8945 34.7981 14.8945H35.9012C35.9839 14.8945 36.0575 14.9508 36.1034 15.0408L36.5998 16.0985C36.6182 16.1435 36.5906 16.211 36.5355 16.211Z" fill="#1C75BC"/>
<path d="M38.1534 16.211H37.0319C36.9676 16.211 36.9032 16.166 36.8665 16.0985L36.3608 15.007C36.3333 14.9508 36.37 14.8945 36.416 14.8945H37.5099C37.5927 14.8945 37.6662 14.9508 37.7122 15.0408L38.2086 16.0985C38.2362 16.1435 38.1994 16.211 38.1534 16.211Z" fill="#1C75BC"/>
<path d="M33.934 17.7852H32.8124C32.7481 17.7852 32.6837 17.7402 32.647 17.6727L32.1414 16.5813C32.1138 16.525 32.1506 16.4688 32.1965 16.4688H33.2905C33.3732 16.4688 33.4467 16.525 33.4927 16.615L33.9891 17.6727C34.0167 17.7177 33.9799 17.7852 33.934 17.7852Z" fill="#1C75BC"/>
<path d="M35.5795 17.7852H34.4579C34.3936 17.7852 34.3292 17.7402 34.2925 17.6727L33.7869 16.5813C33.7593 16.525 33.7961 16.4688 33.842 16.4688H34.936C35.0187 16.4688 35.0922 16.525 35.1382 16.615L35.6346 17.6727C35.653 17.7177 35.6254 17.7852 35.5795 17.7852Z" fill="#1C75BC"/>
<path d="M37.2342 17.7852H36.1126C36.0483 17.7852 35.9839 17.7402 35.9472 17.6727L35.4416 16.5813C35.414 16.525 35.4508 16.4688 35.4967 16.4688H36.5907C36.6734 16.4688 36.7469 16.525 36.7929 16.615L37.2893 17.6727C37.3169 17.7177 37.2801 17.7852 37.2342 17.7852Z" fill="#1C75BC"/>
<path d="M38.8521 17.7852H37.7306C37.6662 17.7852 37.6019 17.7402 37.5651 17.6727L37.0595 16.5813C37.0319 16.525 37.0687 16.4688 37.1146 16.4688H38.2086C38.2913 16.4688 38.3649 16.525 38.4108 16.615L38.9072 17.6727C38.9256 17.7177 38.898 17.7852 38.8521 17.7852Z" fill="#1C75BC"/>
<path d="M34.6326 19.3633H33.5111C33.4467 19.3633 33.3824 19.3183 33.3456 19.2508L32.84 18.1594C32.8124 18.1031 32.8492 18.0469 32.8952 18.0469H33.9891C34.0718 18.0469 34.1454 18.1031 34.1913 18.1931L34.6878 19.2508C34.7061 19.2958 34.6786 19.3633 34.6326 19.3633Z" fill="#1C75BC"/>
<path d="M36.2689 19.3633H35.1474C35.083 19.3633 35.0187 19.3183 34.9819 19.2508L34.4763 18.1594C34.4487 18.1031 34.4855 18.0469 34.5315 18.0469H35.6254C35.7082 18.0469 35.7817 18.1031 35.8277 18.1931L36.3241 19.2508C36.3517 19.2958 36.3241 19.3633 36.2689 19.3633Z" fill="#1C75BC"/>
<path d="M37.9236 19.3633H36.8021C36.7377 19.3633 36.6734 19.3183 36.6366 19.2508L36.131 18.1594C36.1034 18.1031 36.1402 18.0469 36.1862 18.0469H37.2801C37.3629 18.0469 37.4364 18.1031 37.4824 18.1931L37.9788 19.2508C38.0063 19.2958 37.9788 19.3633 37.9236 19.3633Z" fill="#1C75BC"/>
<path d="M39.5415 19.3633H38.42C38.3557 19.3633 38.2913 19.3183 38.2545 19.2508L37.7489 18.1594C37.7214 18.1031 37.7581 18.0469 37.8041 18.0469H38.898C38.9808 18.0469 39.0543 18.1031 39.1003 18.1931L39.5967 19.2508C39.6243 19.2958 39.5967 19.3633 39.5415 19.3633Z" fill="#1C75BC"/>
<path d="M35.322 20.9375H34.2005C34.1362 20.9375 34.0718 20.8925 34.0351 20.825L33.5295 19.7336C33.5019 19.6774 33.5387 19.6211 33.5846 19.6211H34.6786C34.7613 19.6211 34.8348 19.6774 34.8808 19.7674L35.3772 20.825C35.4048 20.87 35.3772 20.9375 35.322 20.9375Z" fill="#1C75BC"/>
<path d="M36.9676 20.9375H35.846C35.7817 20.9375 35.7173 20.8925 35.6806 20.825L35.175 19.7336C35.1474 19.6774 35.1842 19.6211 35.2301 19.6211H36.3241C36.4068 19.6211 36.4803 19.6774 36.5263 19.7674L37.0227 20.825C37.0503 20.87 37.0135 20.9375 36.9676 20.9375Z" fill="#1C75BC"/>
<path d="M38.6222 20.9375H37.5007C37.4364 20.9375 37.372 20.8925 37.3353 20.825L36.8297 19.7336C36.8021 19.6774 36.8389 19.6211 36.8848 19.6211H37.9788C38.0615 19.6211 38.135 19.6774 38.181 19.7674L38.6774 20.825C38.705 20.87 38.6682 20.9375 38.6222 20.9375Z" fill="#1C75BC"/>
<path d="M40.2402 20.9375H39.1187C39.0543 20.9375 38.99 20.8925 38.9532 20.825L38.4476 19.7336C38.42 19.6774 38.4568 19.6211 38.5028 19.6211H39.5967C39.6794 19.6211 39.753 19.6774 39.7989 19.7674L40.2954 20.825C40.3229 20.87 40.2862 20.9375 40.2402 20.9375Z" fill="#1C75BC"/>
<path d="M36.0207 22.5118H34.8992C34.8349 22.5118 34.7705 22.4668 34.7337 22.3993L34.2281 21.3078C34.2005 21.2516 34.2373 21.1953 34.2833 21.1953H35.3772C35.46 21.1953 35.5335 21.2516 35.5795 21.3416L36.0759 22.3993C36.1034 22.4555 36.0667 22.5118 36.0207 22.5118Z" fill="#1C75BC"/>
<path d="M37.6662 22.5118H36.5447C36.4804 22.5118 36.416 22.4668 36.3792 22.3993L35.8736 21.3078C35.8461 21.2516 35.8828 21.1953 35.9288 21.1953H37.0227C37.1055 21.1953 37.179 21.2516 37.225 21.3416L37.7214 22.3993C37.7398 22.4555 37.7122 22.5118 37.6662 22.5118Z" fill="#1C75BC"/>
<path d="M39.3209 22.5118H38.1994C38.1351 22.5118 38.0707 22.4668 38.0339 22.3993L37.5283 21.3078C37.5008 21.2516 37.5375 21.1953 37.5835 21.1953H38.6774C38.7602 21.1953 38.8337 21.2516 38.8797 21.3416L39.3761 22.3993C39.3945 22.4555 39.3669 22.5118 39.3209 22.5118Z" fill="#1C75BC"/>
<path d="M40.9388 22.5118H39.8173C39.753 22.5118 39.6886 22.4668 39.6519 22.3993L39.1462 21.3078C39.1187 21.2516 39.1554 21.1953 39.2014 21.1953H40.2953C40.3781 21.1953 40.4516 21.2516 40.4976 21.3416L40.994 22.3993C41.0124 22.4555 40.9848 22.5118 40.9388 22.5118Z" fill="#1C75BC"/>
<path d="M36.7194 24.086H35.5978C35.5335 24.086 35.4691 24.041 35.4324 23.9735L34.9268 22.882C34.8992 22.8258 34.936 22.7695 34.9819 22.7695H36.0851C36.1678 22.7695 36.2413 22.8258 36.2873 22.9158L36.7837 23.9735C36.7929 24.0297 36.7653 24.086 36.7194 24.086Z" fill="#1C75BC"/>
<path d="M38.3557 24.086H37.2342C37.1698 24.086 37.1055 24.041 37.0687 23.9735L36.5631 22.882C36.5355 22.8258 36.5723 22.7695 36.6182 22.7695H37.7122C37.7949 22.7695 37.8685 22.8258 37.9144 22.9158L38.4108 23.9735C38.4384 24.0297 38.4108 24.086 38.3557 24.086Z" fill="#1C75BC"/>
<path d="M40.0104 24.086H38.8889C38.8245 24.086 38.7602 24.041 38.7234 23.9735L38.2178 22.882C38.1902 22.8258 38.227 22.7695 38.2729 22.7695H39.3669C39.4496 22.7695 39.5232 22.8258 39.5691 22.9158L40.0655 23.9735C40.0931 24.0297 40.0655 24.086 40.0104 24.086Z" fill="#1C75BC"/>
<path d="M41.6283 24.086H40.5068C40.4424 24.086 40.3781 24.041 40.3413 23.9735L39.8357 22.882C39.8081 22.8258 39.8449 22.7695 39.8909 22.7695H40.9848C41.0675 22.7695 41.1411 22.8258 41.187 22.9158L41.6834 23.9735C41.711 24.0297 41.6834 24.086 41.6283 24.086Z" fill="#1C75BC"/>
<path d="M37.4088 25.6719H36.2873C36.2229 25.6719 36.1586 25.6269 36.1218 25.5594L35.6162 24.468C35.5886 24.4117 35.6254 24.3555 35.6714 24.3555H36.7653C36.848 24.3555 36.9216 24.4117 36.9676 24.5017L37.464 25.5594C37.4915 25.6044 37.464 25.6719 37.4088 25.6719Z" fill="#1C75BC"/>
<path d="M39.0543 25.6719H37.9328C37.8685 25.6719 37.8041 25.6269 37.7673 25.5594L37.2617 24.468C37.2341 24.4117 37.2709 24.3555 37.3169 24.3555H38.4108C38.4936 24.3555 38.5671 24.4117 38.6131 24.5017L39.1095 25.5594C39.1371 25.6044 39.1003 25.6719 39.0543 25.6719Z" fill="#1C75BC"/>
<path d="M40.709 25.6719H39.5875C39.5231 25.6719 39.4588 25.6269 39.422 25.5594L38.9164 24.468C38.8888 24.4117 38.9256 24.3555 38.9716 24.3555H40.0655C40.1483 24.3555 40.2218 24.4117 40.2678 24.5017L40.7642 25.5594C40.7917 25.6044 40.755 25.6719 40.709 25.6719Z" fill="#1C75BC"/>
<path d="M42.3269 25.6719H41.2054C41.1411 25.6719 41.0767 25.6269 41.0399 25.5594L40.5343 24.468C40.5068 24.4117 40.5435 24.3555 40.5895 24.3555H41.6926C41.7754 24.3555 41.8489 24.4117 41.8949 24.5017L42.3913 25.5594C42.4005 25.6044 42.3729 25.6719 42.3269 25.6719Z" fill="#1C75BC"/>
<path d="M38.1075 27.25H36.986C36.9216 27.25 36.8573 27.205 36.8205 27.1375L36.3149 26.0461C36.2873 25.9899 36.3241 25.9336 36.37 25.9336H37.464C37.5467 25.9336 37.6203 25.9899 37.6662 26.0799L38.1626 27.1375C38.1902 27.1825 38.1534 27.25 38.1075 27.25Z" fill="#1C75BC"/>
<path d="M39.753 27.25H38.6314C38.5671 27.25 38.5027 27.205 38.466 27.1375L37.9604 26.0461C37.9328 25.9899 37.9696 25.9336 38.0155 25.9336H39.1095C39.1922 25.9336 39.2657 25.9899 39.3117 26.0799L39.8081 27.1375C39.8265 27.1825 39.7989 27.25 39.753 27.25Z" fill="#1C75BC"/>
<path d="M41.4077 27.25H40.2862C40.2218 27.25 40.1575 27.205 40.1207 27.1375L39.6151 26.0461C39.5875 25.9899 39.6243 25.9336 39.6702 25.9336H40.7734C40.8561 25.9336 40.9297 25.9899 40.9756 26.0799L41.472 27.1375C41.4812 27.1825 41.4536 27.25 41.4077 27.25Z" fill="#1C75BC"/>
<path d="M43.0164 27.25H41.8949C41.8305 27.25 41.7662 27.205 41.7294 27.1375L41.2238 26.0461C41.1962 25.9899 41.233 25.9336 41.279 25.9336H42.3729C42.4556 25.9336 42.5292 25.9899 42.5751 26.0799L43.0715 27.1375C43.0991 27.1825 43.0715 27.25 43.0164 27.25Z" fill="#1C75BC"/>
<path opacity="0.3" d="M19.1152 17.7861L38.6223 27.2488H43.0532C43.1359 27.2488 43.1543 27.1138 43.0807 27.08L17.4513 13.9492L19.1152 17.7861Z" fill="white"/>
<path opacity="0.3" d="M20.7975 13.2969L41.9868 24.6049L40.7733 22.0395L23.3071 13.2969H20.6044" fill="white"/>
<path d="M43.9632 27.5188C43.9632 27.5188 43.954 27.5413 43.9357 27.5751C43.9173 27.6089 43.8897 27.6651 43.8621 27.7439C43.7886 27.8901 43.6875 28.1152 43.5404 28.4302C41.3893 28.4527 34.6326 28.5315 26.6349 28.6103C25.1549 28.6215 23.73 28.6328 22.3786 28.6553H22.3603L22.3511 28.644C20.5677 24.4246 19.0233 20.7565 17.9201 18.1349C17.3686 16.8297 16.9365 15.7833 16.6332 15.0631C16.4861 14.7031 16.3666 14.433 16.293 14.2418C16.2563 14.1518 16.2287 14.073 16.2011 14.028C16.1827 13.983 16.1735 13.9492 16.1735 13.9492C16.1735 13.9492 16.1827 13.9717 16.2103 14.0167C16.2287 14.0617 16.2655 14.1405 16.3022 14.2305C16.385 14.4218 16.5045 14.6918 16.6515 15.0519C16.9549 15.772 17.3962 16.8072 17.9569 18.1124C19.0601 20.7228 20.6136 24.3909 22.4062 28.6103L22.3878 28.599C23.7392 28.5878 25.1732 28.5765 26.6441 28.554C34.6418 28.4865 41.3985 28.4302 43.5496 28.4077H43.5404C43.6875 28.1039 43.7978 27.8789 43.8713 27.7326C43.9081 27.6651 43.9357 27.6089 43.954 27.5638C43.954 27.5413 43.9632 27.5188 43.9632 27.5188Z" fill="#004B75"/>
<path d="M22.3786 28.6193C22.3695 28.6081 22.443 28.4056 22.5441 28.158C22.6452 27.9105 22.7372 27.7079 22.7555 27.7192C22.7647 27.7304 22.6912 27.933 22.5901 28.1805C22.4798 28.4393 22.3878 28.6306 22.3786 28.6193Z" fill="#004B75"/>
</g>
<defs>
<clipPath id="clip0_21431_20025">
<rect width="32" height="32" fill="white" transform="translate(12 12.7773)"/>
</clipPath>
</defs>
</svg>
