<svg width="20" height="21" viewBox="0 0 20 21" fill="none" xmlns="http://www.w3.org/2000/svg">
<path d="M12.4832 3.62734C12.2665 3.39401 11.9832 3.27734 11.6665 3.27734H6.31654C5.63321 3.27734 5.08321 3.82734 5.08321 4.51068V9.96068H3.71654C3.28321 9.96068 2.91654 10.3107 2.91654 10.7607V13.6107C2.91654 14.044 3.26654 14.4107 3.71654 14.4107H11.1665C11.5999 14.4107 11.9665 14.0607 11.9665 13.6107V10.744C11.9665 10.3107 11.6165 9.94401 11.1665 9.94401H6.41654V4.67734C6.41654 4.64401 6.44988 4.61068 6.48321 4.61068H11.5999C11.7999 4.61068 11.9665 4.77734 11.9665 4.97734V7.27734C11.9665 7.96068 12.5165 8.51068 13.1999 8.51068H15.3832C15.5832 8.51068 15.7499 8.67734 15.7499 8.87734V16.8773C15.7499 16.9107 15.7165 16.944 15.6832 16.944H6.48321C6.44988 16.944 6.41654 16.9107 6.41654 16.8773V15.794C6.41654 15.694 6.33321 15.594 6.21654 15.594H5.26654C5.16654 15.594 5.06654 15.6773 5.06654 15.794V17.044C5.06654 17.7273 5.61654 18.2773 6.29988 18.2773H15.8499C16.5332 18.2773 17.0832 17.7273 17.0832 17.044V8.81068C17.0832 8.51068 16.9665 8.22734 16.7665 8.01068L12.4832 3.62734ZM8.36654 11.2773C8.36654 11.2273 8.38321 11.194 8.39988 11.1607C8.41654 11.1273 8.46654 11.1273 8.49988 11.1273H8.99988C9.04988 11.1273 9.09988 11.1273 9.14988 11.1273C9.19988 11.1273 9.24988 11.144 9.31654 11.144C9.38321 11.144 9.44988 11.1773 9.49988 11.2107C9.54988 11.244 9.61654 11.294 9.66654 11.344C9.71654 11.394 9.74988 11.4607 9.76654 11.5273C9.78321 11.594 9.79988 11.6773 9.79988 11.7607C9.79988 11.8773 9.78321 11.9773 9.74988 12.0773C9.71654 12.1773 9.66654 12.244 9.58321 12.3107C9.49988 12.3773 9.43321 12.4107 9.33321 12.444C9.23321 12.4773 9.11654 12.494 8.96654 12.494H8.78321V13.1607C8.78321 13.1773 8.78321 13.1773 8.76654 13.194C8.74988 13.2107 8.74988 13.2107 8.73321 13.2107C8.71654 13.2107 8.69988 13.2273 8.66654 13.2273C8.63321 13.2273 8.59988 13.2273 8.56654 13.2273C8.53321 13.2273 8.48321 13.2273 8.46654 13.2273C8.44988 13.2273 8.41654 13.2273 8.39988 13.2107C8.38321 13.194 8.36654 13.194 8.36654 13.194C8.36654 13.194 8.34988 13.1773 8.34988 13.1607V11.2773H8.36654ZM7.14988 11.1773C7.14988 11.1607 7.14988 11.1607 7.16654 11.144C7.18321 11.1273 7.18321 11.1273 7.19988 11.1273C7.21654 11.1273 7.23321 11.1107 7.26654 11.1107C7.29988 11.1107 7.33321 11.1107 7.36654 11.1107C7.41654 11.1107 7.44988 11.1107 7.46654 11.1107C7.48321 11.1107 7.51654 11.1107 7.53321 11.1273C7.54988 11.144 7.56654 11.144 7.56654 11.144C7.56654 11.144 7.58321 11.1607 7.58321 11.1773V13.1607C7.58321 13.1773 7.58321 13.1773 7.56654 13.194C7.54988 13.2107 7.54988 13.2107 7.53321 13.2107C7.51654 13.2107 7.49988 13.2273 7.46654 13.2273C7.43321 13.2273 7.39988 13.2273 7.36654 13.2273C7.33321 13.2273 7.28321 13.2273 7.26654 13.2273C7.24988 13.2273 7.21654 13.2273 7.19988 13.2107C7.18321 13.194 7.16654 13.194 7.16654 13.194C7.16654 13.194 7.14988 13.1773 7.14988 13.1607V11.1773ZM6.43321 11.1607C6.44988 11.1773 6.46654 11.2107 6.46654 11.2607V11.344C6.46654 11.3773 6.46654 11.394 6.46654 11.4273C6.46654 11.4607 6.46654 11.4773 6.44988 11.494C6.43321 11.5107 6.43321 11.5273 6.41654 11.5607C6.39988 11.594 6.38321 11.6107 6.36654 11.644L5.56654 12.9273H6.44988C6.46654 12.9273 6.48321 12.944 6.49988 12.9607C6.51654 12.9773 6.51654 13.0273 6.51654 13.094C6.51654 13.1273 6.51654 13.144 6.51654 13.1773C6.51654 13.2107 6.51654 13.2107 6.49988 13.2273C6.48321 13.244 6.48321 13.244 6.48321 13.2607C6.48321 13.2773 6.46654 13.2607 6.44988 13.2607H5.19988C5.14988 13.2607 5.11654 13.244 5.09988 13.2273C5.08321 13.2107 5.06654 13.1607 5.06654 13.1107V13.044C5.06654 13.0273 5.06654 13.0107 5.06654 12.9773C5.06654 12.944 5.06654 12.944 5.08321 12.9273C5.09988 12.9107 5.09988 12.894 5.11654 12.8607C5.13321 12.8273 5.14988 12.8107 5.16654 12.7773L5.98321 11.4773H5.16654C5.14988 11.4773 5.14988 11.4773 5.13321 11.4607C5.11654 11.444 5.11654 11.444 5.11654 11.4273C5.11654 11.4107 5.09988 11.394 5.09988 11.3773C5.09988 11.3607 5.09988 11.3273 5.09988 11.294C5.09988 11.2607 5.09988 11.2273 5.09988 11.2107C5.09988 11.194 5.09988 11.1773 5.11654 11.1607C5.13321 11.144 5.13321 11.144 5.13321 11.1273C5.13321 11.1107 5.14988 11.1273 5.16654 11.1273H6.33321C6.38321 11.1273 6.41654 11.1273 6.43321 11.1607Z" fill="#9DA4AE"/>
<path d="M9.16659 12.1453C9.21659 12.1286 9.24993 12.0953 9.28326 12.062C9.31659 12.0286 9.33326 11.9953 9.34993 11.9453C9.36659 11.8953 9.36659 11.8453 9.36659 11.7953C9.36659 11.7286 9.34993 11.662 9.33326 11.612C9.31659 11.562 9.28326 11.5286 9.23326 11.512C9.18326 11.4953 9.14993 11.4786 9.11659 11.462C9.08326 11.4453 9.03326 11.4453 8.98326 11.4453H8.79993V12.162H8.99993C9.06659 12.162 9.11659 12.162 9.16659 12.1453Z" fill="#9DA4AE"/>
</svg>
