<svg width="56" height="56" viewBox="0 0 56 56" fill="none" xmlns="http://www.w3.org/2000/svg">
<path d="M8 0.5H48C52.1421 0.5 55.5 3.85786 55.5 8V48C55.5 52.1421 52.1421 55.5 48 55.5H8C3.85786 55.5 0.5 52.1421 0.5 48V8C0.5 3.85786 3.85786 0.5 8 0.5Z" fill="white"/>
<path d="M8 0.5H48C52.1421 0.5 55.5 3.85786 55.5 8V48C55.5 52.1421 52.1421 55.5 48 55.5H8C3.85786 55.5 0.5 52.1421 0.5 48V8C0.5 3.85786 3.85786 0.5 8 0.5Z" stroke="#F3F4F6"/>
<path d="M27.9883 30.7393L29.1893 29.4545L29.2669 29.3707L30.4678 28.0859L46.0186 40.7227C46.4562 41.0796 46.4996 41.7313 46.1148 42.1409L43.058 45.4118C42.6732 45.8246 42.0184 45.8215 41.6367 45.4087L27.9883 30.7393Z" fill="#126E53"/>
<path d="M28.1129 31.2263L30.8065 28.3464C31.0952 28.0361 31.0796 27.552 30.7693 27.2603L29.4721 26.0469L25.9126 29.8578L27.4022 31.2512C27.6039 31.4405 27.9236 31.428 28.1129 31.2263Z" fill="#59CD98"/>
<path d="M14.0982 28.2282C18.4553 32.3742 25.6923 31.5798 28.9414 26.0714C30.7817 22.9556 30.6483 19.0237 28.6063 16.0383C24.994 10.7596 17.7229 10.4492 13.6513 14.8777C10.1508 18.6854 10.3494 24.6625 14.0982 28.2282Z" fill="#DDF0FF"/>
<g opacity="0.45">
<path d="M14.4192 24.2902C15.363 24.2586 16.0746 22.632 16.0086 20.657C15.9425 18.6821 15.1239 17.1066 14.1801 17.1382C13.2363 17.1697 12.5247 18.7963 12.5908 20.7713C12.6568 22.7463 13.4754 24.3217 14.4192 24.2902Z" fill="#F3FFFE"/>
</g>
<path d="M20.4348 13.0846L20.4503 12.9108C20.4286 12.9077 18.2656 12.7215 16.5557 13.907L16.655 14.0497C18.3121 12.8984 20.4131 13.0815 20.4348 13.0846Z" fill="#21111D"/>
<path d="M20.8416 14.2057L20.8571 14.0319C20.8354 14.0288 18.6723 13.8426 16.9624 15.0281L17.0617 15.1708C18.7189 14.0226 20.8198 14.2026 20.8416 14.2057Z" fill="#21111D"/>
<path d="M27.6253 27.8368C24.0286 31.6787 18.0019 31.8805 14.1569 28.2868C10.315 24.6932 10.1132 18.6634 13.7069 14.8184C17.3006 10.9764 23.3303 10.7747 27.1753 14.3684C31.0173 17.9651 31.219 23.9949 27.6253 27.8368ZM28.2087 13.2636C23.7555 9.09583 16.7668 9.33169 12.6021 13.785C8.43435 18.2382 8.6671 25.2269 13.1235 29.3947C17.5767 33.5594 24.5654 33.3266 28.7332 28.8733C32.8979 24.417 32.6651 17.4283 28.2087 13.2636Z" fill="#29B273"/>
</svg>
