<svg width="56" height="56" viewBox="0 0 56 56" fill="none" xmlns="http://www.w3.org/2000/svg">
<path d="M8 0.5H48C52.1421 0.5 55.5 3.85786 55.5 8V48C55.5 52.1421 52.1421 55.5 48 55.5H8C3.85786 55.5 0.5 52.1421 0.5 48V8C0.5 3.85786 3.85786 0.5 8 0.5Z" fill="white"/>
<path d="M8 0.5H48C52.1421 0.5 55.5 3.85786 55.5 8V48C55.5 52.1421 52.1421 55.5 48 55.5H8C3.85786 55.5 0.5 52.1421 0.5 48V8C0.5 3.85786 3.85786 0.5 8 0.5Z" stroke="#F3F4F6"/>
<g clip-path="url(#clip0_21431_60490)">
<path d="M17.8534 26.5433C16.573 24.8432 13.7969 22.6482 12 22.0241L12.0108 21.3785L17.9933 18.043L21.8561 25.6072L17.8534 26.5433Z" fill="#A0E8C6"/>
<path d="M17.3369 24.9519C16.0565 23.2518 14.0982 21.7024 12 21.3796L17.9933 17.3984L21.8453 24.9519H17.3369Z" fill="#59CD98"/>
<path d="M35.2847 42.2911L30.5395 45.6698L13.0654 19.5231L17.8213 16.1445L35.2847 42.2911Z" fill="#A0E8C6"/>
<path d="M26.5345 10.3249L17.7666 16.1836L35.2349 42.3264L44.0029 36.4677L26.5345 10.3249Z" fill="#59CD98"/>
<path d="M25.9985 12.379L41.9016 36.18L35.7792 40.2687L19.8761 16.4678L25.9985 12.379ZM26.1276 11.7227L19.2197 16.3387L35.6501 40.9251L42.558 36.3091L26.1276 11.7227Z" fill="#126E53"/>
<path d="M19.5425 16.4082L21.2856 15.2461C21.7698 16.0531 21.4362 17.1829 20.5109 17.8608L19.5425 16.4082Z" fill="#126E53"/>
<path d="M21.1888 15.589C21.2964 15.8687 21.2964 16.1915 21.1996 16.5251C21.092 16.8909 20.866 17.2353 20.5647 17.5043L19.8653 16.4605L21.1888 15.589ZM21.3394 14.9219L19.2197 16.3422L20.4464 18.1821C20.4786 18.1606 20.5109 18.1391 20.5432 18.1176C21.673 17.3644 22.0711 15.9979 21.4363 15.051C21.4148 15.008 21.3825 14.9649 21.3394 14.9219Z" fill="#126E53"/>
<path d="M25.6326 13.9053C25.0624 13.9053 24.5674 13.6901 24.2554 13.3028L26.063 12.0977L26.9991 13.4964C26.5688 13.7547 26.0953 13.9053 25.6326 13.9053Z" fill="#126E53"/>
<path d="M25.9878 12.422L26.6441 13.4119C26.3213 13.5841 25.9663 13.6701 25.6219 13.6701C25.2238 13.6701 24.8687 13.5518 24.6105 13.3366L25.9878 12.422ZM26.1169 11.7656L23.9219 13.2397C23.9326 13.272 23.9542 13.2935 23.9757 13.3258C24.3415 13.8638 24.9548 14.1436 25.6327 14.1436C26.1384 14.1436 26.6657 13.9929 27.1499 13.6701C27.2037 13.6379 27.2575 13.5948 27.3112 13.5518L26.1169 11.7656Z" fill="#126E53"/>
<path d="M40.46 37.4193C39.9758 36.6124 40.3094 35.4826 41.2348 34.8047L42.2032 36.2573L40.46 37.4193Z" fill="#126E53"/>
<path d="M41.1701 35.1505L41.8695 36.1942L40.5568 37.0766C40.3309 36.4525 40.5783 35.6885 41.1701 35.1505ZM41.2885 34.4727C41.2562 34.4942 41.2239 34.5157 41.1917 34.5372C40.0619 35.2904 39.6638 36.6569 40.2986 37.6038C40.3309 37.6468 40.3631 37.7006 40.3954 37.7329L42.5259 36.3126L41.2885 34.4727Z" fill="#126E53"/>
<path d="M34.7573 39.1696C35.177 38.9006 35.6504 38.75 36.1131 38.75C36.6834 38.75 37.1783 38.9652 37.4903 39.3526L35.6827 40.5577L34.7573 39.1696Z" fill="#126E53"/>
<path d="M36.1131 38.5156V38.9891C36.5112 38.9891 36.8663 39.1074 37.1246 39.3226L35.758 40.2372L35.1017 39.2473C35.4245 39.0751 35.7796 38.9891 36.1239 38.9891L36.1131 38.5156ZM36.1131 38.5156C35.6074 38.5156 35.0802 38.6663 34.596 38.9891C34.5422 39.0213 34.4884 39.0644 34.4346 39.1074L35.6289 40.8936L37.8239 39.4195C37.8132 39.3872 37.7917 39.3657 37.7701 39.3334C37.4043 38.7954 36.7802 38.5156 36.1131 38.5156Z" fill="#126E53"/>
<path d="M33.2704 29.8978C34.4711 29.0955 34.3765 26.8469 33.0592 24.8753C31.7418 22.9038 29.7005 21.9559 28.4998 22.7582C27.2991 23.5605 27.3936 25.8092 28.711 27.7807C30.0284 29.7523 32.0697 30.7001 33.2704 29.8978Z" fill="#29B273"/>
<path d="M26.5063 19.7762C26.8818 19.5253 26.8544 18.8252 26.445 18.2124C26.0356 17.5997 25.3992 17.3064 25.0237 17.5574C24.6482 17.8083 24.6756 18.5084 25.085 19.1211C25.4945 19.7338 26.1308 20.0271 26.5063 19.7762Z" fill="#D8E6EA"/>
<path d="M36.7478 35.1055C36.3712 35.353 35.7363 35.0625 35.3275 34.4492C34.9186 33.8359 34.8863 33.1365 35.2629 32.889C35.6395 32.6415 36.2743 32.932 36.6832 33.5453C37.0921 34.1479 37.1244 34.8473 36.7478 35.1055Z" fill="#D8E6EA"/>
<path d="M37.4474 26.6498L23.976 35.8495L21.0601 31.481L34.5207 22.2812L37.4474 26.6498Z" fill="#126E53"/>
<path d="M37.2279 26.1544L33.4497 20.5L24.5655 26.4364L28.3437 32.0908L37.2279 26.1544Z" fill="#D3C4AE"/>
<path d="M23.599 35.4603L19.8223 29.8006L24.6427 26.3789L28.4194 32.0386L23.599 35.4603Z" fill="white"/>
<path d="M34.4612 22.0173L34.1025 21.4805L25.2183 27.4168L25.577 27.9536L34.4612 22.0173Z" fill="#0C58A6"/>
<path d="M36.5667 25.1735L36.208 24.6367L27.3238 30.5731L27.6825 31.1099L36.5667 25.1735Z" fill="#0C58A6"/>
<path d="M20.8448 31.32L20.4897 30.782L25.2994 27.3711L25.6545 27.8983L20.8448 31.32Z" fill="#1C75BC"/>
<path d="M22.9537 34.4723L22.5986 33.9343L27.3976 30.5234L27.7634 31.0507L22.9537 34.4723Z" fill="#1C75BC"/>
<path opacity="0.33" d="M19.2091 21.1301C19.123 21.1839 19.0262 21.2054 18.9294 21.1839C18.8325 21.1624 18.7464 21.1086 18.6926 21.0225L16.1641 17.2565L16.7881 16.8477L19.306 20.6244C19.4243 20.7858 19.3705 21.0225 19.2091 21.1301Z" fill="#29B273"/>
<path opacity="0.33" d="M19.0263 23.5507C18.9402 23.6045 18.8434 23.626 18.7465 23.6045C18.6497 23.583 18.5636 23.5292 18.5098 23.4431L14.9268 18.0847L15.5508 17.6758L19.1339 23.045C19.2415 23.2064 19.1984 23.4431 19.0263 23.5507Z" fill="#29B273"/>
<path opacity="0.33" d="M30.2813 40.7964C30.3674 40.7426 30.4642 40.7211 30.5611 40.7426C30.6579 40.7641 30.744 40.8179 30.7978 40.904L32.9175 44.0782L32.2934 44.4871L30.1845 41.3129C30.0661 41.1515 30.1091 40.9148 30.2813 40.7964Z" fill="#29B273"/>
</g>
<defs>
<clipPath id="clip0_21431_60490">
<rect width="32" height="35.3463" fill="white" transform="translate(12 10.3281)"/>
</clipPath>
</defs>
</svg>
