<svg width="56" height="56" viewBox="0 0 56 56" fill="none" xmlns="http://www.w3.org/2000/svg">
<path d="M8 0.5H48C52.1421 0.5 55.5 3.85786 55.5 8V48C55.5 52.1421 52.1421 55.5 48 55.5H8C3.85786 55.5 0.5 52.1421 0.5 48V8C0.5 3.85786 3.85786 0.5 8 0.5Z" fill="white"/>
<path d="M8 0.5H48C52.1421 0.5 55.5 3.85786 55.5 8V48C55.5 52.1421 52.1421 55.5 48 55.5H8C3.85786 55.5 0.5 52.1421 0.5 48V8C0.5 3.85786 3.85786 0.5 8 0.5Z" stroke="#F3F4F6"/>
<path d="M41.9854 12H18.5859V44H41.9854V12Z" fill="#E9571F"/>
<path d="M40.9877 12.8633H19.5835V43.1174H40.9877V12.8633Z" fill="white"/>
<path d="M25.8477 12V13.0895C25.8477 13.6907 26.336 14.179 26.9372 14.179H32.7864C33.3876 14.179 33.8759 13.6907 33.8759 13.0895V12H25.8477Z" fill="#126E53"/>
<path d="M39.1943 21.5078H21.4951V21.8859H39.1943V21.5078Z" fill="#FFAF57"/>
<path d="M37.8059 23.1953H21.4951V23.5734H37.8059V23.1953Z" fill="#FFAF57"/>
<path d="M39.1942 22.3516H34.3696V22.7296H39.1942V22.3516Z" fill="#FFAF57"/>
<path d="M33.0299 22.3516H21.4951V22.7296H33.0299V22.3516Z" fill="#FFAF57"/>
<path d="M39.1948 27.293H21.4951V27.671H39.1948V27.293Z" fill="#FFAF57"/>
<path d="M37.8064 28.9805H21.4951V29.3585H37.8064V28.9805Z" fill="#FFAF57"/>
<path d="M39.1945 28.1367H34.3711V28.5148H39.1945V28.1367Z" fill="#FFAF57"/>
<path d="M33.0343 28.1367H21.4951V28.5148H33.0343V28.1367Z" fill="#FFAF57"/>
<path d="M39.1949 33.1172H21.4951V33.4952H39.1949V33.1172Z" fill="#FFAF57"/>
<path d="M37.8064 34.8047H21.4951V35.1827H37.8064V34.8047Z" fill="#FFAF57"/>
<path d="M39.195 33.9609H34.3716V34.339H39.195V33.9609Z" fill="#FFAF57"/>
<path d="M33.0344 33.9609H21.4951V34.339H33.0344V33.9609Z" fill="#FFAF57"/>
<path d="M22.9179 34.1655L15.0379 41.5846C14.8842 41.7303 14.6872 41.7776 14.6045 41.687L14.3405 41.4033C14.2578 41.3127 14.3129 41.1236 14.4705 40.9778L22.3505 33.5588C22.5042 33.413 22.7012 33.3657 22.7839 33.4563L23.0519 33.74C23.1307 33.8267 23.0716 34.0197 22.9179 34.1655Z" fill="#1F4D84"/>
<path d="M18.4972 38.3294L15.0379 41.5839C14.8842 41.7296 14.6872 41.7769 14.6045 41.6863L14.3405 41.4026C14.2578 41.312 14.3129 41.1229 14.4705 40.9771L17.9259 37.7227L18.4972 38.3294Z" fill="#739AF0"/>
<path d="M21.1051 31.3647C21.4085 32.3615 21.968 33.2953 22.7796 34.0596C25.2657 36.3961 29.1742 36.2779 31.5107 33.7917C33.8156 31.341 33.7328 27.5035 31.3412 25.1552C31.3097 25.1237 31.2782 25.0922 31.2427 25.0607C28.7605 22.7242 24.852 22.8424 22.5117 25.3246C20.9436 26.9991 20.4826 29.3159 21.1051 31.3647ZM22.8702 25.6635C24.2295 24.2175 26.168 23.6422 27.9883 23.9574C29.0482 24.1426 30.0686 24.6272 30.9118 25.4192C33.2009 27.5704 33.3113 31.1716 31.1561 33.4608C30.3641 34.3039 29.3752 34.8516 28.3271 35.0998C26.5305 35.5253 24.5605 35.0683 23.1145 33.709C20.8293 31.5538 20.719 27.9526 22.8702 25.6635Z" fill="#1F4D84"/>
<g opacity="0.5">
<path d="M31.1601 33.4621C30.3682 34.3052 29.3792 34.8529 28.3312 35.1011C26.5346 35.5266 24.5645 35.0696 23.1186 33.7103C20.8294 31.559 20.7191 27.9579 22.8743 25.6687C24.2336 24.2227 26.1721 23.6475 27.9924 23.9627C29.0522 24.1479 30.0727 24.6325 30.9158 25.4244C33.2011 27.5717 33.3114 31.1729 31.1601 33.4621Z" fill="#B3CFF9"/>
</g>
</svg>
