<svg width="56" height="56" viewBox="0 0 56 56" fill="none" xmlns="http://www.w3.org/2000/svg">
<path d="M8 0.5H48C52.1421 0.5 55.5 3.85786 55.5 8V48C55.5 52.1421 52.1421 55.5 48 55.5H8C3.85786 55.5 0.5 52.1421 0.5 48V8C0.5 3.85786 3.85786 0.5 8 0.5Z" fill="white"/>
<path d="M8 0.5H48C52.1421 0.5 55.5 3.85786 55.5 8V48C55.5 52.1421 52.1421 55.5 48 55.5H8C3.85786 55.5 0.5 52.1421 0.5 48V8C0.5 3.85786 3.85786 0.5 8 0.5Z" stroke="#F3F4F6"/>
<path d="M42.6168 16.1151H37.1134V14.8324C37.1134 14.1396 36.5515 13.5781 35.8595 13.5781C35.1671 13.5781 34.6056 14.1396 34.6056 14.8324V16.1151H21.2745V14.8998C21.2745 14.207 20.7126 13.6456 20.0206 13.6456C19.3282 13.6456 18.7667 14.207 18.7667 14.8998V16.1151H13.3809C11.5166 16.1151 10.0088 17.38 10.0088 18.9418V19.1599V24.5953V41.0179C10.0088 42.6665 11.5166 44 13.3809 44H42.6164C44.4807 44 45.9905 42.6665 45.9905 41.0179V24.5953V19.1599V18.9418C45.9909 17.38 44.4811 16.1151 42.6168 16.1151Z" fill="#D3D7DC"/>
<path d="M42.6169 14.6014H36.996V13.3633H34.7453V14.6014H21.2514V13.3633H19.0042V14.6014H13.3814C11.5171 14.6014 10.0093 15.9361 10.0093 17.5827V39.4404C10.0093 41.089 11.5171 42.4225 13.3814 42.4225H42.6169C44.4811 42.4225 45.9909 41.089 45.9909 39.4404V17.5827C45.9909 15.9361 44.4811 14.6014 42.6169 14.6014Z" fill="#F3F4F6"/>
<path opacity="0.8" d="M41.9501 41.3991H14.0497C12.9859 41.3991 12.1152 40.5289 12.1152 39.4646V23.4891C12.1152 22.4253 12.9859 21.5547 14.0497 21.5547H41.9501C43.0139 21.5547 43.8841 22.4253 43.8841 23.4891V39.4646C43.8841 40.5285 43.0139 41.3991 41.9501 41.3991Z" fill="white"/>
<path d="M42.6165 14.5391H36.9956H35.8699H13.3814C11.5171 14.5391 10.0093 15.804 10.0093 17.3658V23.0189C10.0093 23.194 10.0712 23.3643 10.1796 23.5126H12.2564H43.7402H45.8182C45.9275 23.3643 45.9909 23.194 45.9909 23.0189V17.3658C45.9906 15.804 44.4807 14.5391 42.6165 14.5391ZM34.7449 16.4234H35.8699H36.9956V17.3658C36.9956 17.8863 36.4913 18.3082 35.8699 18.3082C35.2488 18.3082 34.7449 17.8863 34.7449 17.3658V16.4234ZM21.2514 16.4234V17.3658C21.2514 17.8863 20.7502 18.3082 20.128 18.3082C19.5065 18.3082 19.0038 17.8863 19.0038 17.3658V16.4234H21.2514Z" fill="#59CD98"/>
<path d="M40.9059 15.5859H35.9428H34.9487H15.0926C13.4468 15.5859 12.1152 16.4763 12.1152 17.5756V21.5549C12.1152 21.6783 12.17 21.7978 12.2659 21.9019H14.099H41.8972H43.7315C43.8281 21.7978 43.8841 21.6779 43.8841 21.5549V17.5756C43.8845 16.4763 42.5518 15.5859 40.9059 15.5859Z" fill="#29B273"/>
<path d="M22.0206 17.5854C22.0206 18.6895 21.1252 19.5849 20.0215 19.5849C18.9171 19.5849 18.022 18.6895 18.022 17.5854C18.022 16.4814 18.9174 15.5859 20.0215 15.5859C21.1252 15.5859 22.0206 16.481 22.0206 17.5854Z" fill="#126E53"/>
<path d="M37.8585 17.4956C37.8585 18.5996 36.9631 19.4947 35.8594 19.4947C34.7549 19.4947 33.8599 18.5996 33.8599 17.4956C33.8599 16.3912 34.7553 15.4961 35.8594 15.4961C36.9631 15.4961 37.8585 16.3912 37.8585 17.4956Z" fill="#126E53"/>
<path d="M21.2754 17.1521C21.2754 17.8449 20.7135 18.4063 20.0215 18.4063C19.3291 18.4063 18.7676 17.8449 18.7676 17.1521V13.3246C18.7676 12.6318 19.3291 12.0703 20.0215 12.0703C20.7135 12.0703 21.2754 12.6318 21.2754 13.3246V17.1521Z" fill="#4D5761"/>
<path d="M37.1133 17.0818C37.1133 17.7745 36.5514 18.336 35.8594 18.336C35.167 18.336 34.6055 17.7745 34.6055 17.0818V13.2543C34.6055 12.5615 35.167 12 35.8594 12C36.5514 12 37.1133 12.5615 37.1133 13.2543V17.0818Z" fill="#4D5761"/>
<path d="M33.2664 37.2151C32.3733 37.2151 31.5737 36.997 30.8675 36.5609C30.1613 36.1143 29.6058 35.4705 29.2008 34.6293C28.7958 33.7882 28.5933 32.7705 28.5933 31.5763C28.5933 30.3821 28.7958 29.3644 29.2008 28.5232C29.6058 27.6821 30.1613 27.0435 30.8675 26.6073C31.5737 26.1608 32.3733 25.9375 33.2664 25.9375C34.1698 25.9375 34.9695 26.1608 35.6652 26.6073C36.3714 27.0435 36.927 27.6821 37.332 28.5232C37.737 29.3644 37.9395 30.3821 37.9395 31.5763C37.9395 32.7705 37.737 33.7882 37.332 34.6293C36.927 35.4705 36.3714 36.1143 35.6652 36.5609C34.9695 36.997 34.1698 37.2151 33.2664 37.2151ZM33.2664 35.0811C33.6921 35.0811 34.0608 34.9617 34.3723 34.7228C34.6943 34.484 34.9435 34.1049 35.12 33.5857C35.307 33.0665 35.4004 32.3967 35.4004 31.5763C35.4004 30.7559 35.307 30.0861 35.12 29.5669C34.9435 29.0477 34.6943 28.6686 34.3723 28.4298C34.0608 28.1909 33.6921 28.0715 33.2664 28.0715C32.851 28.0715 32.4823 28.1909 32.1604 28.4298C31.8489 28.6686 31.5996 29.0477 31.4127 29.5669C31.2362 30.0861 31.1479 30.7559 31.1479 31.5763C31.1479 32.3967 31.2362 33.0665 31.4127 33.5857C31.5996 34.1049 31.8489 34.484 32.1604 34.7228C32.4823 34.9617 32.851 35.0811 33.2664 35.0811Z" fill="#9DA4AE"/>
<path d="M22.911 37.2157C22.1529 37.2157 21.4 37.117 20.6523 36.9197C19.9047 36.712 19.2712 36.4213 18.752 36.0474L19.7333 34.1159C20.1487 34.417 20.6316 34.6559 21.182 34.8324C21.7324 35.009 22.2879 35.0972 22.8487 35.0972C23.4822 35.0972 23.9806 34.9726 24.3441 34.7234C24.7076 34.4742 24.8893 34.1315 24.8893 33.6953C24.8893 33.2799 24.7283 32.9528 24.4064 32.714C24.0845 32.4751 23.5652 32.3557 22.8487 32.3557H21.696V30.689L24.7335 27.2465L25.0139 28.15H19.2971V26.125H26.9299V27.7606L23.9079 31.203L22.6306 30.4709H23.3627C24.7024 30.4709 25.7149 30.7721 26.4003 31.3744C27.0857 31.9767 27.4283 32.7503 27.4283 33.6953C27.4283 34.308 27.2674 34.8843 26.9455 35.4243C26.6235 35.954 26.1303 36.3849 25.4656 36.7172C24.801 37.0495 23.9495 37.2157 22.911 37.2157Z" fill="#9DA4AE"/>
</svg>
