<svg width="56" height="56" viewBox="0 0 56 56" fill="none" xmlns="http://www.w3.org/2000/svg">
<path d="M8 0.5H48C52.1421 0.5 55.5 3.85786 55.5 8V48C55.5 52.1421 52.1421 55.5 48 55.5H8C3.85786 55.5 0.5 52.1421 0.5 48V8C0.5 3.85786 3.85786 0.5 8 0.5Z" fill="white"/>
<path d="M8 0.5H48C52.1421 0.5 55.5 3.85786 55.5 8V48C55.5 52.1421 52.1421 55.5 48 55.5H8C3.85786 55.5 0.5 52.1421 0.5 48V8C0.5 3.85786 3.85786 0.5 8 0.5Z" stroke="#F3F4F6"/>
<path d="M42.9696 24.5625L43.3351 25.2271L43.9997 25.5926L43.3351 25.9581L42.9696 26.6227L42.604 25.9581L41.9395 25.5926L42.604 25.2271L42.9696 24.5625Z" fill="#FF9A74"/>
<g clip-path="url(#clip0_21431_18337)">
<path d="M36.7554 22.3711L23.8291 37.424C23.2642 38.0554 22.8655 38.7532 22.6661 39.3181C22.5997 39.5507 22.5664 39.7501 22.5332 39.9494C22.5332 40.2153 22.5997 40.4146 22.7326 40.5476C22.8323 40.6472 22.9984 40.6805 23.1978 40.6472C23.8291 40.5808 24.7928 39.9494 25.6568 38.9525L38.3504 24.099L36.7554 22.3711Z" fill="#1C75BC"/>
<path d="M36.8551 23.168L22.5332 39.9488C22.5332 40.2146 22.5997 40.414 22.7326 40.5469C22.8323 40.6466 22.9984 40.6798 23.1978 40.6466L37.6858 23.6996L36.8551 23.168Z" fill="#6DCDFC"/>
<path d="M21.2044 42.2763L24.5274 40.0167L22.9324 38.6875C22.9324 38.6875 21.138 42.4424 21.2044 42.2763Z" fill="#F6C8B0"/>
<path d="M21.8687 40.9141C21.5364 41.6119 21.2373 42.21 21.2041 42.2765L22.4668 41.4125L21.8687 40.9141Z" fill="#2D1A14"/>
<path d="M38.6499 23.8017L39.1151 23.27C39.5138 22.8048 39.6135 22.2067 39.4142 21.7415C39.3477 21.6086 39.2812 21.5089 39.1483 21.4092C39.0154 21.2763 38.816 21.2098 38.6167 21.1766C38.1847 21.1101 37.653 21.3095 37.2875 21.7415L36.8223 22.2399L38.6499 23.8017Z" fill="#FC9090"/>
<path d="M38.9157 21.2411C38.816 21.2079 38.7163 21.1747 38.6167 21.1414C38.1847 21.075 37.653 21.2744 37.2875 21.7063L36.8223 22.238L37.5201 22.8361L38.9157 21.2411Z" fill="#E9571F"/>
<path d="M35.9914 23.2007L37.7858 24.696C37.9187 24.7957 37.819 25.0948 37.5864 25.3938C37.3538 25.6597 37.0547 25.8258 36.9218 25.7261L35.1274 24.2308C34.9945 24.1311 35.0942 23.8321 35.3268 23.533C35.5926 23.2339 35.8585 23.101 35.9914 23.2007Z" fill="#E0DEDE"/>
<path d="M36.8219 22.2359L38.6495 23.7644C38.7492 23.8641 38.6495 24.1632 38.4169 24.4622C38.1843 24.7613 37.8852 24.8942 37.7855 24.7945L35.9579 23.266C35.8582 23.1663 35.9579 22.8672 36.1905 22.5681C36.4231 22.2691 36.7222 22.1362 36.8219 22.2359Z" fill="white"/>
<path d="M36.5763 34.4143C36.5763 33.8631 36.1296 33.416 35.5784 33.4158C35.0271 33.4158 34.5799 33.863 34.5799 34.4143C34.58 34.9655 35.0272 35.4122 35.5784 35.4122C36.1295 35.412 36.5761 34.9654 36.5763 34.4143ZM37.3045 34.4143C37.3044 35.3677 36.5317 36.1403 35.5784 36.1405C34.625 36.1405 33.8517 35.3678 33.8516 34.4143C33.8516 33.4608 34.6249 32.6875 35.5784 32.6875C36.5318 32.6877 37.3045 33.4609 37.3045 34.4143Z" fill="#1E2832"/>
<path d="M30.3421 38.6836L30.907 39.7137L31.9371 40.2786L30.907 40.8435L30.3421 41.8736L29.7772 40.8435L28.7471 40.2786L29.7772 39.7137L30.3421 38.6836Z" fill="#FF9A74"/>
</g>
<g clip-path="url(#clip1_21431_18337)">
<path d="M29.1796 22.352H27.7507C27.5513 21.3551 27.1194 20.4247 26.5212 19.6272L27.5513 18.5307C27.9833 18.0654 27.9833 17.3344 27.5181 16.9024C27.0529 16.4704 26.3219 16.4704 25.8899 16.9356L24.8265 18.0322C24.0955 17.5338 23.2315 17.2015 22.3343 17.0686V15.5068C22.3343 14.8754 21.8027 14.3438 21.1713 14.3438C20.5399 14.3438 20.0083 14.8754 20.0083 15.5068V17.0686C19.1111 17.2347 18.2471 17.567 17.5161 18.0322L16.4527 16.9356C16.0208 16.4704 15.2897 16.4704 14.8245 16.9024C14.3593 17.3344 14.3261 18.0987 14.7913 18.5307L15.8214 19.6272C15.2232 20.4247 14.7913 21.3551 14.5919 22.352H13.163C12.5317 22.352 12 22.8837 12 23.5151C12 24.1464 12.5317 24.6781 13.163 24.6781H14.5254C14.6916 25.7414 15.0903 26.7051 15.6885 27.5358L14.7913 28.4662C14.3593 28.9314 14.3593 29.6625 14.8245 30.0945C15.0571 30.3271 15.3229 30.4268 15.622 30.4268C15.9211 30.4268 16.2201 30.2938 16.4527 30.0612L17.3167 29.164C18.1142 29.7289 19.0114 30.0945 20.0083 30.2606V31.4901C20.0083 32.1215 20.5399 32.6531 21.1713 32.6531C21.8027 32.6531 22.3343 32.1215 22.3343 31.4901V30.2938C23.3312 30.1277 24.2284 29.7289 25.0259 29.1973L25.8899 30.0945C26.1225 30.3271 26.4215 30.46 26.7206 30.46C27.0197 30.46 27.2855 30.3603 27.5181 30.1277C27.9833 29.6957 27.9833 28.9647 27.5513 28.4995L26.6542 27.569C27.2523 26.7383 27.651 25.7747 27.8172 24.7113H29.1796C29.8109 24.7113 30.3426 24.1796 30.3426 23.5483C30.3426 22.8837 29.8109 22.352 29.1796 22.352ZM21.0716 26.6054C19.4101 26.6054 18.0477 25.243 18.0477 23.5815C18.0477 21.92 19.4101 20.5576 21.0716 20.5576C22.7331 20.5576 24.0955 21.92 24.0955 23.5815C24.1287 25.243 22.7663 26.6054 21.0716 26.6054Z" fill="#7FD1AB"/>
<path d="M22.6505 23.5818C22.6504 22.7828 21.9986 22.1024 21.1711 22.1024C20.3413 22.1025 19.6918 22.7519 19.6918 23.5818C19.6918 24.4116 20.3413 25.0611 21.1711 25.0611C21.9986 25.0611 22.6505 24.3808 22.6505 23.5818ZM23.0146 23.5818C23.0146 24.5771 22.2045 25.4253 21.1711 25.4253C20.1402 25.4252 19.3276 24.6127 19.3276 23.5818C19.3277 22.5508 20.1402 21.7383 21.1711 21.7383C22.2044 21.7383 23.0146 22.5864 23.0146 23.5818Z" fill="#1E2832"/>
<path d="M24.8108 23.5816C24.8108 21.5555 23.1976 19.9423 21.1714 19.9423C19.1775 19.9423 17.5321 21.5565 17.5321 23.5816C17.5321 25.5755 19.1463 27.2209 21.1714 27.2209C23.1653 27.2209 24.8108 25.6067 24.8108 23.5816ZM25.1749 23.5816C25.1749 25.8098 23.3644 27.5851 21.1714 27.5851C18.9432 27.5851 17.168 25.7746 17.168 23.5816C17.168 21.3533 18.9785 19.5781 21.1714 19.5781C23.3987 19.5781 25.1749 21.3544 25.1749 23.5816Z" fill="#1E2832"/>
</g>
<defs>
<clipPath id="clip0_21431_18337">
<rect width="18.2762" height="21.1671" fill="white" transform="translate(21.2046 21.1406)"/>
</clipPath>
<clipPath id="clip1_21431_18337">
<rect width="18.3426" height="18.3426" fill="white" transform="translate(12 14.3438)"/>
</clipPath>
</defs>
</svg>
