<svg width="56" height="56" viewBox="0 0 56 56" fill="none" xmlns="http://www.w3.org/2000/svg">
<path d="M8 0.5H48C52.1421 0.5 55.5 3.85786 55.5 8V48C55.5 52.1421 52.1421 55.5 48 55.5H8C3.85786 55.5 0.5 52.1421 0.5 48V8C0.5 3.85786 3.85786 0.5 8 0.5Z" fill="white"/>
<path d="M8 0.5H48C52.1421 0.5 55.5 3.85786 55.5 8V48C55.5 52.1421 52.1421 55.5 48 55.5H8C3.85786 55.5 0.5 52.1421 0.5 48V8C0.5 3.85786 3.85786 0.5 8 0.5Z" stroke="#F3F4F6"/>
<path d="M39.6998 12H16.3003V44H39.6998V12Z" fill="#E9571F"/>
<path d="M38.7021 12.8633H17.2979V43.1174H38.7021V12.8633Z" fill="white"/>
<path d="M23.562 12V13.0895C23.562 13.6907 24.0503 14.179 24.6515 14.179H30.5007C31.1019 14.179 31.5902 13.6907 31.5902 13.0895V12H23.562Z" fill="#126E53"/>
<path d="M36.7586 24.8072H32.8862V20.9375H36.7586V24.8072ZM33.0674 24.6261H36.5748V21.1186H33.0674V24.6261Z" fill="#126E53"/>
<path d="M34.9184 24.03C34.837 24.03 34.7609 23.9932 34.7084 23.9302L33.5139 22.4863C33.4167 22.3708 33.4351 22.1975 33.5506 22.1004C33.6661 22.0032 33.8394 22.0216 33.9365 22.1371L34.8843 23.2844L36.5986 20.407C36.6748 20.2784 36.8428 20.2338 36.974 20.3125C37.1027 20.3887 37.1473 20.5567 37.0686 20.688L35.1573 23.8987C35.1127 23.9748 35.0313 24.0247 34.942 24.0326C34.9315 24.03 34.9263 24.03 34.9184 24.03Z" fill="#29B273"/>
<path d="M29.8979 21.5078H21.2974V21.8859H29.8979V21.5078Z" fill="#FFAF57"/>
<path d="M29.2232 23.1953H21.2974V23.5734H29.2232V23.1953Z" fill="#FFAF57"/>
<path d="M29.8981 22.3516H27.5537V22.7296H29.8981V22.3516Z" fill="#FFAF57"/>
<path d="M26.9024 22.3516H21.2974V22.7296H26.9024V22.3516Z" fill="#FFAF57"/>
<path d="M19.3729 21.8455L18.987 21.9532L18.9082 21.6486L19.4831 21.4648H19.7457V23.6176H19.3729V21.8455Z" fill="#E9571F"/>
<path d="M19.9897 23.4803C19.9897 23.4041 20.0501 23.3438 20.1263 23.3438C20.2024 23.3438 20.2628 23.4041 20.2628 23.4803C20.2628 23.5564 20.2024 23.6168 20.1263 23.6168C20.0528 23.6142 19.9897 23.5538 19.9897 23.4803Z" fill="#E9571F"/>
<path d="M36.7869 30.5911H32.9146V26.7188H36.7869V30.5911ZM33.0983 30.4099H36.6057V26.9025H33.0983V30.4099Z" fill="#126E53"/>
<path d="M34.9458 29.8151C34.8644 29.8151 34.7882 29.7784 34.7357 29.7154L33.5412 28.2715C33.4441 28.1559 33.4625 27.9827 33.578 27.8855C33.6935 27.7884 33.8668 27.8068 33.9639 27.9223L34.9116 29.0695L36.626 26.1922C36.7021 26.0636 36.8701 26.0189 37.0014 26.0977C37.13 26.1738 37.1747 26.3418 37.0959 26.4731L35.1847 29.6839C35.14 29.76 35.0587 29.8099 34.9694 29.8178C34.9615 29.8151 34.9536 29.8151 34.9458 29.8151Z" fill="#29B273"/>
<path d="M18.8916 29.1035L19.6214 28.4813C19.9129 28.2346 20.0179 28.098 20.0179 27.909C20.0179 27.699 19.8682 27.5782 19.6739 27.5782C19.4797 27.5782 19.3458 27.6832 19.183 27.8959L18.9205 27.6885C19.1226 27.4023 19.3248 27.2422 19.7028 27.2422C20.1176 27.2422 20.4038 27.4968 20.4038 27.8828C20.4038 28.2162 20.2253 28.3947 19.8525 28.7045L19.4167 29.0694H20.4274V29.3976H18.8916V29.1035Z" fill="#E9571F"/>
<path d="M20.6772 29.2628C20.6772 29.1893 20.7376 29.1289 20.8111 29.1289C20.8846 29.1289 20.945 29.1893 20.945 29.2628C20.945 29.3363 20.8846 29.3967 20.8111 29.3967C20.7376 29.3967 20.6772 29.3363 20.6772 29.2628Z" fill="#E9571F"/>
<path d="M30.404 27.293H21.3677V27.671H30.404V27.293Z" fill="#FFAF57"/>
<path d="M29.6952 28.9805H21.3677V29.3585H29.6952V28.9805Z" fill="#FFAF57"/>
<path d="M30.404 28.1367H27.9414V28.5148H30.404V28.1367Z" fill="#FFAF57"/>
<path d="M27.2589 28.1367H21.3677V28.5148H27.2589V28.1367Z" fill="#FFAF57"/>
<path d="M36.7874 36.4114H32.915V32.5391H36.7874V36.4114ZM33.0988 36.2303H36.6062V32.7228H33.0988V36.2303Z" fill="#126E53"/>
<path d="M34.9463 35.6355C34.8649 35.6355 34.7887 35.5987 34.7362 35.5357L33.5417 34.0918C33.4446 33.9762 33.4629 33.803 33.5785 33.7058C33.694 33.6087 33.8672 33.6271 33.9644 33.7426L34.9121 34.8899L36.6265 32.0125C36.7026 31.8839 36.8706 31.8392 37.0019 31.918C37.1305 31.9941 37.1751 32.1622 37.0964 32.2934L35.1852 35.5042C35.1405 35.5803 35.0591 35.6302 34.9699 35.6381C34.962 35.6354 34.9541 35.6355 34.9463 35.6355Z" fill="#29B273"/>
<path d="M30.404 33.1172H21.3677V33.4952H30.404V33.1172Z" fill="#FFAF57"/>
<path d="M29.6952 34.8047H21.3677V35.1827H29.6952V34.8047Z" fill="#FFAF57"/>
<path d="M30.404 33.9609H27.9414V34.339H30.404V33.9609Z" fill="#FFAF57"/>
<path d="M27.2589 33.9609H21.3677V34.339H27.2589V33.9609Z" fill="#FFAF57"/>
<path d="M18.8643 34.8396L19.1189 34.6033C19.2686 34.7792 19.434 34.8763 19.665 34.8763C19.8698 34.8763 20.0246 34.753 20.0246 34.5561C20.0246 34.3513 19.8383 34.2358 19.5468 34.2358H19.3788L19.3184 34.0074L19.8803 33.4114H18.9798V33.0938H20.3554V33.3668L19.7779 33.9601C20.106 34.0074 20.3896 34.1754 20.3896 34.5508C20.3896 34.9341 20.0929 35.2071 19.6624 35.2071C19.2974 35.2045 19.0402 35.0522 18.8643 34.8396Z" fill="#E9571F"/>
<path d="M20.4922 35.0727C20.4922 34.9992 20.5526 34.9414 20.6235 34.9414C20.697 34.9414 20.7547 35.0018 20.7547 35.0727C20.7547 35.1436 20.6943 35.2039 20.6235 35.2039C20.5526 35.2066 20.4922 35.1462 20.4922 35.0727Z" fill="#E9571F"/>
</svg>
