<svg width="56" height="56" viewBox="0 0 56 56" fill="none" xmlns="http://www.w3.org/2000/svg">
<path d="M8 0.5H48C52.1421 0.5 55.5 3.85786 55.5 8V48C55.5 52.1421 52.1421 55.5 48 55.5H8C3.85786 55.5 0.5 52.1421 0.5 48V8C0.5 3.85786 3.85786 0.5 8 0.5Z" fill="white"/>
<path d="M8 0.5H48C52.1421 0.5 55.5 3.85786 55.5 8V48C55.5 52.1421 52.1421 55.5 48 55.5H8C3.85786 55.5 0.5 52.1421 0.5 48V8C0.5 3.85786 3.85786 0.5 8 0.5Z" stroke="#F3F4F6"/>
<g clip-path="url(#clip0_21431_60351)">
<path d="M31.3515 41.1517H24.6483C24.4966 41.1517 24.376 41.0311 24.376 40.8793V39.0625H31.6238V40.8793C31.6238 41.0311 31.4993 41.1517 31.3515 41.1517Z" fill="#1C75BC"/>
<path d="M22.3531 28.9492C22.3531 28.9492 19.622 32.5907 17.6768 34.8276C15.0547 37.8505 15.7511 38.2357 18.1009 46.6156C24.0766 42.589 21.5244 36.7845 23.672 35.6135C27.5896 33.4777 22.3531 28.9492 22.3531 28.9492Z" fill="#004B75"/>
<path d="M33.647 28.9492C33.647 28.9492 36.382 32.5907 38.3233 34.8276C40.9455 37.8505 40.2491 38.2357 37.8993 46.6156C31.9236 42.589 34.4718 36.7845 32.3243 35.6135C28.4105 33.4777 33.647 28.9492 33.647 28.9492Z" fill="#004B75"/>
<path d="M35.4327 26.0773C35.4327 19.059 31.375 12.7915 29.278 10.0216C28.6517 9.19679 27.4184 9.17733 26.7648 9.98265C24.6251 12.6359 20.5635 18.6155 20.5635 25.735C20.5635 28.6139 22.5359 36.7837 23.563 38.8651C23.8081 39.3631 24.3177 39.6821 24.8741 39.6821H31.2816C31.8379 39.6821 32.3437 39.3631 32.5927 38.8651C33.6197 36.7837 35.4327 28.9523 35.4327 26.0773Z" fill="#004B75"/>
<path d="M32.5927 38.8663C33.6197 36.7849 35.4366 28.9535 35.4366 26.0785C35.4366 21.8029 33.931 17.8074 32.2814 14.7106C30.9937 14.0493 29.5776 13.6797 28.0915 13.6797C26.4458 13.6797 24.8896 14.1271 23.4969 14.9285C21.9329 17.8619 20.5674 21.6084 20.5674 25.7322C20.5674 28.6111 22.5398 36.781 23.5669 38.8624C23.812 39.3603 24.3216 39.6794 24.878 39.6794H31.2855C31.8379 39.6832 32.3437 39.3642 32.5927 38.8663Z" fill="#7CC6FF"/>
<path d="M28.2861 27.2949C30.8064 27.2949 32.8496 25.2518 32.8496 22.7314C32.8496 20.2111 30.8064 18.168 28.2861 18.168C25.7658 18.168 23.7227 20.2111 23.7227 22.7314C23.7227 25.2518 25.7658 27.2949 28.2861 27.2949Z" fill="#EBD6AC"/>
<path d="M31.2493 25.9026C33.0314 24.1205 33.0314 21.2311 31.2493 19.449C29.4672 17.6668 26.5778 17.6668 24.7957 19.449C23.0135 21.2311 23.0135 24.1205 24.7957 25.9026C26.5778 27.6847 29.4672 27.6847 31.2493 25.9026Z" fill="#E9571F"/>
<path d="M23.6642 22.7429C23.6642 20.2219 25.7067 18.1794 28.2277 18.1794C28.6906 18.1794 29.138 18.2494 29.5621 18.3778C29.0797 18.2067 28.5623 18.1133 28.0254 18.1133C25.5044 18.1133 23.4619 20.1558 23.4619 22.6767C23.4619 24.7348 24.8236 26.4738 26.6949 27.0418C24.9247 26.4115 23.6642 24.7231 23.6642 22.7429Z" fill="white"/>
<path d="M28.4264 26.6548C28.4264 26.8455 28.2708 27.0011 28.0801 27.0011C27.8895 27.0011 27.7339 26.8455 27.7339 26.6548C27.7339 26.4642 27.8895 26.3086 28.0801 26.3086C28.2708 26.3086 28.4264 26.4642 28.4264 26.6548Z" fill="white"/>
<path d="M28.4068 18.815C28.4068 19.0056 28.2512 19.1612 28.0606 19.1612C27.87 19.1612 27.7144 19.0056 27.7144 18.815C27.7144 18.6244 27.87 18.4688 28.0606 18.4688C28.2512 18.4688 28.4068 18.6244 28.4068 18.815Z" fill="white"/>
<path d="M31.3458 20.205C31.3897 20.0189 31.2745 19.8324 31.0884 19.7884C30.9023 19.7445 30.7158 19.8597 30.6719 20.0458C30.6279 20.2319 30.7432 20.4184 30.9293 20.4624C31.1154 20.5063 31.3018 20.3911 31.3458 20.205Z" fill="white"/>
<path d="M25.6251 25.5377C25.6251 25.7283 25.4695 25.8839 25.2789 25.8839C25.0882 25.8839 24.9326 25.7283 24.9326 25.5377C24.9326 25.347 25.0882 25.1914 25.2789 25.1914C25.4695 25.1914 25.6251 25.347 25.6251 25.5377Z" fill="white"/>
<path d="M31.3517 25.3853C31.3517 25.5759 31.1961 25.7316 31.0054 25.7316C30.8148 25.7316 30.6592 25.5759 30.6592 25.3853C30.6592 25.1947 30.8148 25.0391 31.0054 25.0391C31.1999 25.043 31.3517 25.1947 31.3517 25.3853Z" fill="white"/>
<path d="M25.485 20.0689C25.485 20.2595 25.3294 20.4152 25.1387 20.4152C24.9481 20.4152 24.7925 20.2595 24.7925 20.0689C24.7925 19.8783 24.9481 19.7227 25.1387 19.7227C25.3294 19.7227 25.485 19.8783 25.485 20.0689Z" fill="white"/>
<path d="M32.2697 22.9909C32.4049 22.8557 32.4049 22.6365 32.2697 22.5013C32.1344 22.366 31.9152 22.366 31.78 22.5013C31.6448 22.6365 31.6448 22.8557 31.78 22.9909C31.9152 23.1261 32.1344 23.1261 32.2697 22.9909Z" fill="white"/>
<path d="M24.4197 22.7541C24.4247 22.5629 24.2738 22.4039 24.0826 22.3988C23.8914 22.3938 23.7324 22.5447 23.7274 22.7359C23.7223 22.9271 23.8732 23.0861 24.0644 23.0911C24.2556 23.0962 24.4146 22.9453 24.4197 22.7541Z" fill="white"/>
<path d="M28.0215 26.0274C29.8715 26.0274 31.3712 24.5277 31.3712 22.6778C31.3712 20.8278 29.8715 19.3281 28.0215 19.3281C26.1716 19.3281 24.6719 20.8278 24.6719 22.6778C24.6719 24.5277 26.1716 26.0274 28.0215 26.0274Z" fill="#D2E3F2"/>
<path d="M25.057 23.0902C25.057 21.2422 26.5548 19.7405 28.4067 19.7405C29.2742 19.7405 30.064 20.0712 30.6553 20.6081C30.0407 19.8261 29.0914 19.3281 28.0215 19.3281C26.1736 19.3281 24.6719 20.8259 24.6719 22.6778C24.6719 23.6621 25.0959 24.5452 25.769 25.156C25.3255 24.588 25.057 23.8682 25.057 23.0902Z" fill="white"/>
<path d="M30.1106 22.7906C29.7333 24.2496 28.2432 25.1288 26.7804 24.7514C26.3291 24.6347 25.9362 24.413 25.6172 24.1173C25.9829 24.7475 26.5898 25.2377 27.3484 25.4322C28.854 25.8213 30.3907 24.9187 30.7798 23.4131C31.0988 22.1799 30.5502 20.931 29.5154 20.3008C30.0912 20.9622 30.344 21.8842 30.1106 22.7906Z" fill="white"/>
<path d="M28.9513 38.5806C28.9513 43.0157 28.5116 45.879 28.002 46.6143C27.4729 45.8518 27.0527 43.0196 27.0527 38.5806C27.0527 34.1416 28.002 30.5469 28.002 30.5469C28.002 30.5469 28.9513 34.1455 28.9513 38.5806Z" fill="#004B75"/>
</g>
<defs>
<clipPath id="clip0_21431_60351">
<rect width="24" height="37.2274" fill="white" transform="translate(16 9.38672)"/>
</clipPath>
</defs>
</svg>
