<svg width="56" height="56" viewBox="0 0 56 56" fill="none" xmlns="http://www.w3.org/2000/svg">
<path d="M8 0.5H48C52.1421 0.5 55.5 3.85786 55.5 8V48C55.5 52.1421 52.1421 55.5 48 55.5H8C3.85786 55.5 0.5 52.1421 0.5 48V8C0.5 3.85786 3.85786 0.5 8 0.5Z" fill="white"/>
<path d="M8 0.5H48C52.1421 0.5 55.5 3.85786 55.5 8V48C55.5 52.1421 52.1421 55.5 48 55.5H8C3.85786 55.5 0.5 52.1421 0.5 48V8C0.5 3.85786 3.85786 0.5 8 0.5Z" stroke="#F3F4F6"/>
<path d="M28 12.6523C19.1775 12.6523 12 19.83 12 28.6535C12 37.475 19.1775 44.6527 28 44.6527C36.8225 44.6527 44 37.475 44 28.6535C43.9997 19.83 36.8222 12.6523 28 12.6523Z" fill="#DBDBDB"/>
<path d="M28.0003 12.9766C20.075 12.9766 13.6274 19.4243 13.6274 27.3499C13.6274 35.2741 20.075 41.7219 28.0003 41.7219C35.9256 41.7219 42.3732 35.2741 42.3732 27.3499C42.3728 19.4247 35.9253 12.9766 28.0003 12.9766Z" fill="white"/>
<path opacity="0.53" d="M40.2316 30.2575C41.8368 23.459 37.627 16.6462 30.8287 15.0409C24.0303 13.4355 17.2179 17.6454 15.6126 24.444C14.0074 31.2426 18.2172 38.0553 25.0155 39.6607C31.8139 41.266 38.6263 37.0561 40.2316 30.2575Z" fill="#DBDBDB"/>
<path d="M28 43.348C19.1775 43.348 12 36.1703 12 27.3488C12 18.5257 19.1775 11.3477 28 11.3477C36.8225 11.3477 44 18.5253 44 27.3488C43.9997 36.1703 36.8222 43.348 28 43.348ZM28 12.9755C20.0747 12.9755 13.6271 19.4233 13.6271 27.3488C13.6271 35.2731 20.0747 41.7208 28 41.7208C35.9253 41.7208 42.3729 35.2731 42.3729 27.3488C42.3725 19.4236 35.925 12.9755 28 12.9755Z" fill="#1C75BC"/>
<path d="M28.0002 40.2933C27.5986 40.2933 27.2729 39.9677 27.2729 39.566V37.6882C27.2729 37.2866 27.5986 36.9609 28.0002 36.9609C28.4019 36.9609 28.7275 37.2866 28.7275 37.6882V39.566C28.7275 39.9677 28.4019 40.2933 28.0002 40.2933Z" fill="#9DA4AE"/>
<path d="M40.4804 28.076H38.4807C38.079 28.076 37.7534 27.7504 37.7534 27.3487C37.7534 26.9471 38.079 26.6211 38.4807 26.6211H40.4804C40.8821 26.6211 41.2077 26.9467 41.2077 27.3484C41.2077 27.75 40.8821 28.076 40.4804 28.076Z" fill="#9DA4AE"/>
<path d="M17.7814 28.076H15.781C15.3793 28.076 15.0537 27.7504 15.0537 27.3487C15.0537 26.9471 15.3793 26.6211 15.781 26.6211H17.7814C18.183 26.6211 18.5087 26.9467 18.5087 27.3484C18.5087 27.75 18.183 28.076 17.7814 28.076Z" fill="#9DA4AE"/>
<path d="M27.7559 17.2986C27.3539 17.2986 27.0283 16.9726 27.0283 16.571V15.087C27.0283 14.6853 27.3539 14.3594 27.7559 14.3594C28.1576 14.3594 28.4835 14.6853 28.4835 15.087V16.571C28.4835 16.9726 28.1576 17.2986 27.7559 17.2986Z" fill="#9DA4AE"/>
<path d="M33.6481 28.3418C33.6145 28.6071 33.372 28.7954 33.1064 28.7618L28.5023 28.1797C28.346 28.1601 28.1901 28.2172 28.084 28.3334L22.8431 34.0633C22.6623 34.261 22.3556 34.2744 22.1582 34.0937C21.9611 33.9129 21.9474 33.6065 22.1278 33.4094L27.7078 27.3098C27.8142 27.194 27.9702 27.1365 28.1261 27.1561L33.2281 27.8009C33.4937 27.8341 33.6817 28.0766 33.6481 28.3418Z" fill="#172835"/>
<path d="M26.6636 27.7146C26.7609 27.0202 27.4023 26.536 28.0973 26.6336C28.7919 26.7302 29.2765 27.3717 29.1796 28.066C29.082 28.7616 28.4409 29.2465 27.7459 29.1489C27.0509 29.052 26.5671 28.4099 26.6636 27.7146Z" fill="#172835"/>
</svg>
