<svg width="136" height="29" viewBox="0 0 136 29" fill="none" xmlns="http://www.w3.org/2000/svg">
<path d="M30.186 14.4367C30.186 5.83225 36.3866 0.328125 44.7888 0.328125C53.1236 0.328125 58.6278 6.41636 58.6278 14.0098C58.6278 14.0098 58.6278 15.3578 58.5154 16.5709H38.1389C38.2962 19.7835 41.082 21.8728 45.3055 21.8728C48.0913 21.8728 50.0009 21.0191 51.888 19.2443L56.5384 23.6701C52.9439 27.3545 49.0573 28.5901 44.9461 28.5901C36.1844 28.5901 30.186 23.086 30.186 14.6388V14.4367ZM50.6075 11.3813C50.6075 8.93253 47.979 6.88814 44.7888 6.88814C41.3066 6.88814 38.4759 8.86513 38.2737 11.3813H50.6075Z" fill="#00505A"/>
<path d="M22.3456 1.11328L15.4036 18.0525L8.41678 1.11328H0.418945L11.854 27.8027H18.9083L30.4782 1.11328H22.3456Z" fill="#00505A"/>
<path d="M78.083 7.83133C73.0057 7.62914 70.2874 10.4374 70.2874 14.7957V27.8259H62.4019V1.11405H70.2874V4.77598C71.5005 2.08008 74.6682 0.237888 79.0715 0.574875L78.083 7.83133Z" fill="#00505A"/>
<path d="M94.5056 0.375C86.3505 0.375 79.7905 6.35091 79.7905 14.5285C79.7905 22.706 86.3505 28.6145 94.5056 28.6145C97.8755 28.6145 101.111 27.6934 104.076 25.1323L100.01 19.3362C98.5495 20.7066 96.9095 21.4704 94.4832 21.4704C90.664 21.4704 87.6536 18.5498 87.6536 14.5285C87.6536 10.4397 90.664 7.5416 94.4832 7.5416C96.887 7.5416 98.527 8.30544 100.01 9.67585L104.076 3.87967C101.111 1.2961 97.898 0.375 94.5056 0.375Z" fill="#00505A"/>
<path d="M120.387 21.446C124.251 21.446 127.328 18.3682 127.328 14.4591C127.328 10.595 124.251 7.47225 120.387 7.47225C116.477 7.47225 113.445 10.595 113.445 14.4591C113.445 18.3906 116.455 21.446 120.387 21.446ZM120.387 0.328125C128.587 0.328125 135.214 6.57362 135.214 14.4816C135.214 22.3671 128.587 28.6126 120.387 28.6126C112.119 28.6126 105.559 22.3671 105.559 14.4816C105.559 6.57362 112.119 0.328125 120.387 0.328125Z" fill="#00F0FF"/>
</svg>
